<svg xmlns="http://www.w3.org/2000/svg" viewBox="0 0 457.54 464.29"><defs><style>.cls-1{isolation:isolate;}.cls-2,.cls-7{fill:#fff;}.cls-2,.cls-8{stroke:#000;stroke-miterlimit:10;stroke-width:2px;}.cls-3{fill:#fff500;}.cls-4{fill:#009241;}.cls-5,.cls-8{fill:none;}.cls-6{opacity:0.85;mix-blend-mode:multiply;}</style></defs><g class="cls-1"><g id="Camada_1" data-name="Camada 1"><path class="cls-2" d="M17.13,257C18.61,133.8,119.82,28.33,245.39,28.61,370.55,28.88,470.22,134.12,472.61,255c2.5,126.67-102.38,238-231.65,235.83C115.92,488.75,15.63,381.2,17.13,257Z" transform="translate(-16.11 -27.61)"/><path class="cls-3" d="M46.87,257C48.37,147.31,140.65,58.42,250,61c107.64,2.49,195.06,92.72,193.91,200.87S353.26,458.38,245.65,458.52C136,458.66,45.37,367.16,46.87,257Z" transform="translate(-16.11 -27.61)"/><polygon class="cls-4" points="39.99 291.64 125.23 63.26 140.53 54.63 228.77 291.64 318.21 54.63 333.22 63.11 418.58 291.64 411.38 310.8 343.8 310.8 342.68 394.8 306.19 415.15 305.19 310.39 151.28 309.35 152.42 415.15 116.5 395.18 116.32 309.87 47.01 310.29 39.99 291.64"/><polygon class="cls-5" points="192.95 322.72 192.95 325.65 211.54 325.65 211.54 288.67 226.8 288.67 224.45 283.39 206.45 283.39 206.26 322.72 192.95 322.72"/><polygon class="cls-5" points="206.45 151.91 214.18 151.91 214.18 193.59 206.4 193.59 206.45 151.91"/><polyline class="cls-5" points="251.19 151.91 264.63 151.91 264.63 322.72 251.19 322.72"/><g class="cls-6"><path d="M157.11,328.52q-42.86-4-68.47-11.8t-27-18.8H189.41q2.79,6.21,19,9.48t42.13,3.27q26.69,0,42.14-2.79t15.45-7.73c0-2.76-4.11-5-12.29-6.85a261.52,261.52,0,0,0-30.2-4.46q-17.91-1.75-50.91-4-47.76-3.35-77.95-6.69t-52-9.88Q63,261.74,63,251.23q0-15.61,49.85-24.46t129.92-8.85q81.45,0,131.32,8.85t53.37,24.62H297.55Q296.14,246,280,242.86t-41.44-3.11q-21.76,0-35.11,2.63T190.11,250q0,5.43,22.47,8.45t70.23,6.53q47.74,3.68,77.59,7T412,281.67q21.75,6.38,21.77,16.41,0,9.56-21.42,17.37t-62.15,12.43Q309.48,332.5,254,332.5,199.94,332.5,157.11,328.52Z" transform="translate(-16.11 -27.61)"/></g><path class="cls-7" d="M156.11,321.52q-42.86-4-68.47-11.8t-27-18.8H188.41q2.79,6.21,19,9.48t42.13,3.27q26.69,0,42.14-2.79t15.45-7.73c0-2.76-4.11-5-12.29-6.85a261.52,261.52,0,0,0-30.2-4.46q-17.91-1.75-50.91-4-47.76-3.35-77.95-6.69t-52-9.88Q62,254.74,62,244.23q0-15.61,49.85-24.46t129.92-8.85q81.45,0,131.32,8.85t53.37,24.62H296.55Q295.14,239,279,235.86t-41.44-3.11q-21.76,0-35.11,2.63T189.11,243q0,5.43,22.47,8.45t70.23,6.53q47.74,3.68,77.59,7T411,274.67q21.75,6.38,21.77,16.41,0,9.56-21.42,17.37t-62.15,12.43Q308.48,325.5,253,325.5,198.94,325.5,156.11,321.52Z" transform="translate(-16.11 -27.61)"/><g class="cls-6"><path d="M213.63,183.52h7.63a4.3,4.3,0,0,1,4.3,4.31L225.37,350a4.3,4.3,0,0,1-4.3,4.3h-7.44a4.3,4.3,0,0,1-4.3-4.31V187.82A4.3,4.3,0,0,1,213.63,183.52Z" transform="translate(-16.11 -27.61)"/></g><path class="cls-7" d="M207.63,179.52h7.63a4.3,4.3,0,0,1,4.3,4.31L219.37,346a4.3,4.3,0,0,1-4.3,4.3h-7.44a4.3,4.3,0,0,1-4.3-4.31V183.82A4.3,4.3,0,0,1,207.63,179.52Z" transform="translate(-16.11 -27.61)"/><g class="cls-6"><path d="M274.61,183.52h7.63a4.31,4.31,0,0,1,4.3,4.31L286.35,350a4.31,4.31,0,0,1-4.3,4.3h-7.44A4.31,4.31,0,0,1,270.3,350V187.82A4.31,4.31,0,0,1,274.61,183.52Z" transform="translate(-16.11 -27.61)"/></g><path class="cls-7" d="M268.61,179.52h7.63a4.31,4.31,0,0,1,4.3,4.31L280.35,346a4.31,4.31,0,0,1-4.3,4.3h-7.44A4.31,4.31,0,0,1,264.3,346V183.82A4.31,4.31,0,0,1,268.61,179.52Z" transform="translate(-16.11 -27.61)"/><polygon class="cls-5" points="253.93 322.72 253.93 325.65 272.52 325.65 272.52 288.67 287.78 288.67 285.43 283.39 267.43 283.39 267.23 322.72 253.93 322.72"/><path class="cls-5" d="M283.54,208.87" transform="translate(-16.11 -27.61)"/><path d="M40.5,304.69a3.93,3.93,0,0,1,1.58,0,5.51,5.51,0,0,1,1.85.68,5.68,5.68,0,0,1,1.74,1.57,7.15,7.15,0,0,1,1.16,2.55,9.74,9.74,0,0,1,.32,2.15,5.94,5.94,0,0,1-.24,1.9,5.83,5.83,0,0,1-.84,1.72,6.87,6.87,0,0,1-1.27,1.38,7.73,7.73,0,0,1-1.64,1.07,9.77,9.77,0,0,1-2,.72,9.29,9.29,0,0,1-3.25.29,6.71,6.71,0,0,1-2.73-.88,6.58,6.58,0,0,1-2.07-1.86,7.62,7.62,0,0,1-1.21-2.61,7.18,7.18,0,0,1-.11-3.34A5.85,5.85,0,0,1,33,307.43a3.48,3.48,0,0,1,1.76-1.24,1.28,1.28,0,0,1,1,.14,1.18,1.18,0,0,1,.61.77,1.28,1.28,0,0,1-.05.92,3.92,3.92,0,0,1-.75.86,4.55,4.55,0,0,0-1.26,1.77,3.45,3.45,0,0,0,0,2.07,3.62,3.62,0,0,0,2.11,2.56,6.37,6.37,0,0,0,4.16.09,7.41,7.41,0,0,0,2.68-1.2,3.68,3.68,0,0,0,1.32-1.78,3.87,3.87,0,0,0,0-2.19,3.76,3.76,0,0,0-1.18-2,3.86,3.86,0,0,0-2.17-.86,3.12,3.12,0,0,1-1.05-.24,1.09,1.09,0,0,1-.59-.8,1.34,1.34,0,0,1,.13-1A1.23,1.23,0,0,1,40.5,304.69Z" transform="translate(-16.11 -27.61)"/><path d="M28.48,297.19a8.17,8.17,0,0,1,.23-4.13,6.15,6.15,0,0,1,2.19-3,8.9,8.9,0,0,1,3.86-1.55,9.8,9.8,0,0,1,3.18-.08,6.82,6.82,0,0,1,2.65,1,6.12,6.12,0,0,1,2,2,9.21,9.21,0,0,1,1.08,6.23,6.22,6.22,0,0,1-1.17,2.58,6.74,6.74,0,0,1-2.18,1.82,9.85,9.85,0,0,1-3,1,9.28,9.28,0,0,1-3.19.05,6.62,6.62,0,0,1-2.65-1,6.14,6.14,0,0,1-1.91-2A8.34,8.34,0,0,1,28.48,297.19Zm6.8-5.6a6.86,6.86,0,0,0-2.7,1,3.9,3.9,0,0,0-1.53,1.81,4.32,4.32,0,0,0-.21,2.35,4.24,4.24,0,0,0,.63,1.61,3.67,3.67,0,0,0,1.2,1.15,4.84,4.84,0,0,0,1.79.59,8.38,8.38,0,0,0,4.5-.79,4.65,4.65,0,0,0,1.52-1.2,3.85,3.85,0,0,0,.76-1.51,4.26,4.26,0,0,0,0-1.71,4.18,4.18,0,0,0-.94-2,4,4,0,0,0-2-1.23A6.92,6.92,0,0,0,35.28,291.59Z" transform="translate(-16.11 -27.61)"/><path d="M26.14,279.74a8.09,8.09,0,0,1,.56-4.1,6.17,6.17,0,0,1,2.42-2.78,9.11,9.11,0,0,1,4-1.24,9.65,9.65,0,0,1,3.17.18A6.67,6.67,0,0,1,38.83,273a6.08,6.08,0,0,1,1.8,2.17,9.24,9.24,0,0,1,.57,6.3,6.22,6.22,0,0,1-1.37,2.47,6.77,6.77,0,0,1-2.32,1.64,10,10,0,0,1-3.06.76,9.47,9.47,0,0,1-3.18-.2,6.79,6.79,0,0,1-2.57-1.21A6.45,6.45,0,0,1,27,282.77,8.44,8.44,0,0,1,26.14,279.74Zm7.22-5a6.88,6.88,0,0,0-2.77.79,3.91,3.91,0,0,0-1.66,1.69,4.21,4.21,0,0,0-.4,2.33,4.07,4.07,0,0,0,.49,1.65,3.78,3.78,0,0,0,1.11,1.24,4.76,4.76,0,0,0,1.74.73,7.42,7.42,0,0,0,2.29.11,7.58,7.58,0,0,0,2.25-.54A4.49,4.49,0,0,0,38,281.64a3.74,3.74,0,0,0,.88-1.44,4,4,0,0,0,.18-1.71,4.1,4.1,0,0,0-.78-2.09A3.94,3.94,0,0,0,36.38,275,6.87,6.87,0,0,0,33.36,274.71Z" transform="translate(-16.11 -27.61)"/><path d="M34.56,262.83l0,2.8,4.22-.08a2,2,0,0,1,1.38.4,1.42,1.42,0,0,1,.48,1.09,1.39,1.39,0,0,1-.44,1.11,1.92,1.92,0,0,1-1.35.45l-11.47.22a1.85,1.85,0,0,1-1.43-.44,2.1,2.1,0,0,1-.45-1.46L25.47,263a10.19,10.19,0,0,1,.22-2.68,3.87,3.87,0,0,1,.81-1.62,3.93,3.93,0,0,1,1.42-1.05,5,5,0,0,1,1.91-.38,4.22,4.22,0,0,1,3.48,1.35A6.56,6.56,0,0,1,34.56,262.83Zm-6.81.87,0,2.05,4.55-.08,0-2.06a6,6,0,0,0-.26-1.8,2.1,2.1,0,0,0-.75-1.09,2.15,2.15,0,0,0-1.34-.36,2.28,2.28,0,0,0-1.59.62A4,4,0,0,0,27.75,263.7Z" transform="translate(-16.11 -27.61)"/><path d="M28.25,244.21l-.34,6.88,3.66.18.31-6.33a1.5,1.5,0,0,1,.36-1,1,1,0,0,1,.83-.3,1,1,0,0,1,.81.38,1.49,1.49,0,0,1,.27,1.06l-.31,6.33,4.23.21.35-7.11a1.56,1.56,0,0,1,.38-1.07,1.13,1.13,0,0,1,.9-.32,1.06,1.06,0,0,1,.83.4,1.59,1.59,0,0,1,.28,1.1l-.41,8.3a2,2,0,0,1-.5,1.41,2,2,0,0,1-1.43.37l-11.18-.55a2.32,2.32,0,0,1-1.05-.25,1.19,1.19,0,0,1-.57-.64,2.62,2.62,0,0,1-.14-1.07l.4-8.06A1.59,1.59,0,0,1,26.3,243a1.09,1.09,0,0,1,.85-.31,1.1,1.1,0,0,1,.83.39A1.57,1.57,0,0,1,28.25,244.21Z" transform="translate(-16.11 -27.61)"/><path d="M35.24,236.15l-.13,1.07,4.75.57a2,2,0,0,1,1.34.58,1.48,1.48,0,0,1,.31,1.15,1.4,1.4,0,0,1-.6,1.06,2.05,2.05,0,0,1-1.41.24l-11.37-1.37a1.9,1.9,0,0,1-1.35-.6,2,2,0,0,1-.27-1.48l.6-4.93a16.5,16.5,0,0,1,.29-1.74,4.62,4.62,0,0,1,.51-1.26,3.87,3.87,0,0,1,1-1.15,3.65,3.65,0,0,1,1.37-.67,4.27,4.27,0,0,1,1.56-.1,3.75,3.75,0,0,1,2.53,1.27,5.47,5.47,0,0,1,1,3,5.64,5.64,0,0,1,1.44-1.39,13.11,13.11,0,0,1,1.92-1.11,13.64,13.64,0,0,1,1.79-.69,3.25,3.25,0,0,1,1.07-.2,1,1,0,0,1,.56.26,1.35,1.35,0,0,1,.39.57,1.79,1.79,0,0,1,.08.78,1.57,1.57,0,0,1-.34.82,2.23,2.23,0,0,1-.68.53c-.26.14-.64.32-1.15.55l-2.14,1a11,11,0,0,0-1.81,1,2.93,2.93,0,0,0-.92,1A3.85,3.85,0,0,0,35.24,236.15Zm-6-2.48-.34,2.8L33,237l.32-2.72a7.91,7.91,0,0,0,0-1.86,2.23,2.23,0,0,0-.5-1.22,1.8,1.8,0,0,0-1.19-.54,1.85,1.85,0,0,0-1.12.19,1.93,1.93,0,0,0-.81.79A6.4,6.4,0,0,0,29.24,233.67Z" transform="translate(-16.11 -27.61)"/><path d="M43.15,216.41l-2,.35-1.17,6,1.73,1.07a6.58,6.58,0,0,1,1.35,1,1.13,1.13,0,0,1,.19,1,1.4,1.4,0,0,1-.6.92,1.29,1.29,0,0,1-1,.26,2.43,2.43,0,0,1-.6-.22c-.2-.11-.47-.28-.82-.51l-8.75-5.64-.91-.58a5,5,0,0,1-.86-.67,1.94,1.94,0,0,1-.48-.79,2.15,2.15,0,0,1,0-1.08,2.1,2.1,0,0,1,.44-1,2,2,0,0,1,.73-.56,3.76,3.76,0,0,1,.88-.28c.3-.07.71-.14,1.22-.23l10.18-2a4.5,4.5,0,0,1,1.66-.15,1.28,1.28,0,0,1,.84.61,1.47,1.47,0,0,1,.23,1.12,1.4,1.4,0,0,1-.25.58,1.22,1.22,0,0,1-.42.36,3.86,3.86,0,0,1-.73.24Zm-5.21,5.15.86-4.42-6.47,1.05Z" transform="translate(-16.11 -27.61)"/><path d="M36,200.77,35.14,204l10.47,2.69a2,2,0,0,1,1.24.76,1.4,1.4,0,0,1,.16,1.17,1.43,1.43,0,0,1-.71.95,1.94,1.94,0,0,1-1.45.07L34.38,207l-.83,3.23a1.73,1.73,0,0,1-.62,1,1.16,1.16,0,0,1-1,.15,1.13,1.13,0,0,1-.78-.62,1.64,1.64,0,0,1,0-1.19l2.42-9.41a1.73,1.73,0,0,1,.62-1.05,1.1,1.1,0,0,1,1-.15,1.12,1.12,0,0,1,.78.6A1.77,1.77,0,0,1,36,200.77Z" transform="translate(-16.11 -27.61)"/><path d="M47.44,200.23l-11.21-3.46A2,2,0,0,1,35,196a1.38,1.38,0,0,1-.11-1.18,1.41,1.41,0,0,1,.76-.93,1.91,1.91,0,0,1,1.44,0l11.21,3.46a2,2,0,0,1,1.19.81,1.46,1.46,0,0,1,.11,1.2,1.44,1.44,0,0,1-.76.91A2,2,0,0,1,47.44,200.23Z" transform="translate(-16.11 -27.61)"/><path d="M39.18,188.07l10.55.2-8.27-6.66q-.66-.53-.9-.75a1.49,1.49,0,0,1-.37-.61,1.3,1.3,0,0,1,.05-.88,1.39,1.39,0,0,1,.43-.61,1.45,1.45,0,0,1,.66-.32,1.24,1.24,0,0,1,.67,0,2.07,2.07,0,0,1,.44.23,4.13,4.13,0,0,1,.42.31c.13.12.27.23.42.35l7.89,6.77c.31.25.59.49.86.73a4.53,4.53,0,0,1,.68.72,2,2,0,0,1,.35.86,2.06,2.06,0,0,1-.13,1.07,2.16,2.16,0,0,1-.58.9,2.06,2.06,0,0,1-.83.43,4.33,4.33,0,0,1-1,.12H49.41l-10.3.07h-.55a3.76,3.76,0,0,1-.57,0,1.79,1.79,0,0,1-.49-.11,1.32,1.32,0,0,1-.75-.72,1.41,1.41,0,0,1,0-1.14,1.26,1.26,0,0,1,.82-.88A6.25,6.25,0,0,1,39.18,188.07Z" transform="translate(-16.11 -27.61)"/><path d="M57.7,172.79l-2-.1-2.47,5.62,1.45,1.42A6.62,6.62,0,0,1,55.77,181a1.12,1.12,0,0,1,0,1.05,1.39,1.39,0,0,1-.79.77,1.26,1.26,0,0,1-1,0,2,2,0,0,1-.53-.35c-.17-.15-.4-.37-.69-.67l-7.3-7.43-.75-.77a4.41,4.41,0,0,1-.69-.84,1.91,1.91,0,0,1-.29-.88,2,2,0,0,1,.2-1.06,2.11,2.11,0,0,1,.65-.88,1.88,1.88,0,0,1,.84-.38,4,4,0,0,1,.92-.08l1.24,0,10.38.27a4.53,4.53,0,0,1,1.64.22,1.33,1.33,0,0,1,.7.78,1.5,1.5,0,0,1,0,1.14,1.35,1.35,0,0,1-.37.51,1.23,1.23,0,0,1-.49.26,3,3,0,0,1-.76.07Zm-6.22,3.87,1.81-4.13-6.54-.39Z" transform="translate(-16.11 -27.61)"/><path d="M51.76,155.13l2-3.47a11,11,0,0,1,1.55-2.18,4.87,4.87,0,0,1,1.92-1.24c1.93-.72,4.08-.41,6.43.92a12,12,0,0,1,2,1.41A6.92,6.92,0,0,1,67,152.19a6.09,6.09,0,0,1,.76,1.88,5,5,0,0,1,.1,1.58,5.57,5.57,0,0,1-.36,1.57,11,11,0,0,1-.8,1.69l-2,3.47a2.44,2.44,0,0,1-.83,1,1.15,1.15,0,0,1-.88.14A4.43,4.43,0,0,1,62,163l-9.51-5.37a1.9,1.9,0,0,1-1-1.07A2,2,0,0,1,51.76,155.13Zm2.66.14,8.81,5,1.13-2a10.16,10.16,0,0,0,.55-1.06,3.63,3.63,0,0,0,.27-.88,2.58,2.58,0,0,0,0-.92q-.36-2-3.09-3.5a6.3,6.3,0,0,0-3.2-1,2.93,2.93,0,0,0-2,.76,8.21,8.21,0,0,0-1.44,1.93Z" transform="translate(-16.11 -27.61)"/><path d="M66.45,135.56l-3.79,5.75,3,2L69.2,138a1.5,1.5,0,0,1,.84-.7,1,1,0,0,1,.87.16,1.08,1.08,0,0,1,.5.74,1.46,1.46,0,0,1-.31,1l-3.49,5.29,3.53,2.33L75.07,141a1.53,1.53,0,0,1,.87-.72,1.15,1.15,0,0,1,.94.18,1.1,1.1,0,0,1,.51.78,1.57,1.57,0,0,1-.32,1.08l-4.58,6.93a2,2,0,0,1-1.16,1,2,2,0,0,1-1.42-.41l-9.33-6.18a2.54,2.54,0,0,1-.78-.74,1.2,1.2,0,0,1-.16-.85,2.59,2.59,0,0,1,.43-1l4.44-6.73a1.62,1.62,0,0,1,.87-.73,1.06,1.06,0,0,1,.89.17,1.08,1.08,0,0,1,.52.76A1.61,1.61,0,0,1,66.45,135.56Z" transform="translate(-16.11 -27.61)"/><path d="M78.66,119.54l-4.31,5.37,2.85,2.29,4-4.94a1.49,1.49,0,0,1,.89-.62,1.07,1.07,0,0,1,.86.24,1.11,1.11,0,0,1,.43.78,1.5,1.5,0,0,1-.41,1l-4,4.95,3.31,2.65,4.45-5.56a1.6,1.6,0,0,1,.94-.64,1.12,1.12,0,0,1,.91.27,1.09,1.09,0,0,1,.45.82,1.61,1.61,0,0,1-.43,1l-5.19,6.48a2,2,0,0,1-1.24.84,1.91,1.91,0,0,1-1.38-.54l-8.73-7a2.56,2.56,0,0,1-.7-.82,1.25,1.25,0,0,1-.09-.85,2.66,2.66,0,0,1,.52-1l5-6.29a1.61,1.61,0,0,1,.93-.65,1.07,1.07,0,0,1,.88.25,1.11,1.11,0,0,1,.44.81A1.65,1.65,0,0,1,78.66,119.54Z" transform="translate(-16.11 -27.61)"/><path d="M96.23,111.8a3.92,3.92,0,0,1,.89,1.31,5.53,5.53,0,0,1,.44,1.92,5.66,5.66,0,0,1-.38,2.31,7.08,7.08,0,0,1-1.5,2.36A10.57,10.57,0,0,1,94,121.14a6.33,6.33,0,0,1-1.72.83,5.93,5.93,0,0,1-1.91.23,7,7,0,0,1-1.84-.32,8.14,8.14,0,0,1-1.79-.79,10.31,10.31,0,0,1-1.68-1.27,9,9,0,0,1-2-2.58,6.61,6.61,0,0,1-.31-5.51,7.44,7.44,0,0,1,1.53-2.43,7.22,7.22,0,0,1,2.75-1.91,5.89,5.89,0,0,1,2.8-.39,3.53,3.53,0,0,1,2,.8,1.29,1.29,0,0,1,.41.9,1.18,1.18,0,0,1-.31.92,1.27,1.27,0,0,1-.8.46,3.68,3.68,0,0,1-1.14-.16,4.65,4.65,0,0,0-2.17-.1,3.46,3.46,0,0,0-1.75,1.09,3.63,3.63,0,0,0-1,3.16,6.39,6.39,0,0,0,2.19,3.55,7.52,7.52,0,0,0,2.45,1.6,3.64,3.64,0,0,0,2.22.14,3.86,3.86,0,0,0,1.86-1.17,3.79,3.79,0,0,0,1-2.07,3.94,3.94,0,0,0-.46-2.29,3.26,3.26,0,0,1-.38-1,1.1,1.1,0,0,1,.36-.93,1.34,1.34,0,0,1,.91-.44A1.24,1.24,0,0,1,96.23,111.8Z" transform="translate(-16.11 -27.61)"/><path d="M96,97.64a8.07,8.07,0,0,1,3.6-2,6.18,6.18,0,0,1,3.68.23,9,9,0,0,1,3.39,2.4,9.9,9.9,0,0,1,1.79,2.63,7,7,0,0,1,.62,2.76,6.22,6.22,0,0,1-.64,2.74,8.24,8.24,0,0,1-1.94,2.55,8.53,8.53,0,0,1-2.71,1.74,6.38,6.38,0,0,1-2.8.42,6.76,6.76,0,0,1-2.71-.86,9.83,9.83,0,0,1-2.47-2,9.31,9.31,0,0,1-1.77-2.65,6.77,6.77,0,0,1-.59-2.77,6.36,6.36,0,0,1,.64-2.7A8.48,8.48,0,0,1,96,97.64Zm8.39,2.67a7.05,7.05,0,0,0-2.32-1.72,4,4,0,0,0-2.35-.29,4.17,4.17,0,0,0-2.09,1.1,4.23,4.23,0,0,0-1,1.39,4,4,0,0,0-.31,1.64,4.7,4.7,0,0,0,.48,1.82,7.53,7.53,0,0,0,1.3,1.89,7.65,7.65,0,0,0,1.8,1.46,4.55,4.55,0,0,0,1.83.63,3.85,3.85,0,0,0,3.14-1.08,4,4,0,0,0,1.13-4.26A6.86,6.86,0,0,0,104.41,100.31Z" transform="translate(-16.11 -27.61)"/><path d="M108.44,89.28l10,3.25-5.48-7a1.92,1.92,0,0,1-.51-1.25,1.43,1.43,0,0,1,1.61-1.27,1.89,1.89,0,0,1,1.1.78l7.25,9.2c.81,1,.78,1.88-.08,2.56a2.12,2.12,0,0,1-.65.36,1.7,1.7,0,0,1-.72.09,3.83,3.83,0,0,1-.79-.13l-.81-.24-9.87-3.27,5.4,6.85a1.86,1.86,0,0,1,.48,1.26,1.45,1.45,0,0,1-1.63,1.28,1.84,1.84,0,0,1-1.1-.77l-7.11-9a3.15,3.15,0,0,1-.58-1,1.61,1.61,0,0,1,0-1,1.81,1.81,0,0,1,1.22-1.16,1.46,1.46,0,0,1,.62,0,3.35,3.35,0,0,1,.72.17Z" transform="translate(-16.11 -27.61)"/><path d="M123.11,76.28A8.09,8.09,0,0,1,127,74.83a6.14,6.14,0,0,1,3.6.81,9.1,9.1,0,0,1,3,2.9,9.63,9.63,0,0,1,1.34,2.87,6.82,6.82,0,0,1,.18,2.83A6.26,6.26,0,0,1,134,86.85a9.32,9.32,0,0,1-5.28,3.5,6.38,6.38,0,0,1-2.82,0,6.65,6.65,0,0,1-2.55-1.27,9.91,9.91,0,0,1-2.13-2.32,9.65,9.65,0,0,1-1.33-2.9,6.84,6.84,0,0,1-.15-2.83,6.31,6.31,0,0,1,1.07-2.56A8.27,8.27,0,0,1,123.11,76.28Zm7.86,4a7.1,7.1,0,0,0-2-2.06,4.06,4.06,0,0,0-2.28-.66,4.24,4.24,0,0,0-2.23.76,4.05,4.05,0,0,0-1.22,1.22,3.82,3.82,0,0,0-.57,1.56,4.84,4.84,0,0,0,.19,1.88,7.22,7.22,0,0,0,1,2.07,7.69,7.69,0,0,0,1.54,1.73,4.72,4.72,0,0,0,1.71.9,3.75,3.75,0,0,0,1.69.09,4.21,4.21,0,0,0,1.59-.66,4.15,4.15,0,0,0,1.47-1.67,4.08,4.08,0,0,0,.31-2.36A7,7,0,0,0,131,80.24Z" transform="translate(-16.11 -27.61)"/><path d="M143.06,79.12,136.35,72l5,9a1.88,1.88,0,0,1,.29,1.31,1.35,1.35,0,0,1-.69.87,1.32,1.32,0,0,1-1.09.12,1.84,1.84,0,0,1-1-.94L133.17,72a1.45,1.45,0,0,1-.19-1.4,2.56,2.56,0,0,1,1.05-1l.83-.45a3.42,3.42,0,0,1,1.16-.47,1,1,0,0,1,.77.2,8.86,8.86,0,0,1,1,.93l5.87,6.07-2-8.2a8.39,8.39,0,0,1-.25-1.33,1.08,1.08,0,0,1,.23-.76,3.64,3.64,0,0,1,1-.73l.83-.46a2.44,2.44,0,0,1,1.38-.37c.41,0,.77.33,1.09.9l5.7,10.3a1.84,1.84,0,0,1,.29,1.31,1.31,1.31,0,0,1-.7.87,1.25,1.25,0,0,1-1.08.11,1.78,1.78,0,0,1-1-.93l-5-9,2.48,9.47c.16.62.27,1.08.32,1.38a1.87,1.87,0,0,1-.1.95,1.63,1.63,0,0,1-.8.85,1.8,1.8,0,0,1-.91.24,1.58,1.58,0,0,1-.78-.23,3.32,3.32,0,0,1-.67-.53Z" transform="translate(-16.11 -27.61)"/><path d="M154.41,73.89l-5.08-10.58a2,2,0,0,1-.21-1.42,1.41,1.41,0,0,1,.78-.88,1.45,1.45,0,0,1,1.2-.08,2,2,0,0,1,1,1.06l5.07,10.57a2,2,0,0,1,.22,1.43,1.49,1.49,0,0,1-.81.9,1.4,1.4,0,0,1-1.18,0A1.92,1.92,0,0,1,154.41,73.89Z" transform="translate(-16.11 -27.61)"/><path d="M169,67.3l-1.38-1.45L162,68.21l.07,2a6.72,6.72,0,0,1-.08,1.67,1.17,1.17,0,0,1-.76.74,1.44,1.44,0,0,1-1.1,0,1.28,1.28,0,0,1-.77-.7,2.09,2.09,0,0,1-.15-.62c0-.23,0-.55,0-1L159,60c0-.3,0-.65,0-1.07a5.1,5.1,0,0,1,.08-1.09,2,2,0,0,1,.39-.84,2.13,2.13,0,0,1,.88-.63,2.33,2.33,0,0,1,1.08-.19,2.15,2.15,0,0,1,.87.3A4.46,4.46,0,0,1,163,57c.22.22.51.51.87.89l7.34,7.34a5,5,0,0,1,1,1.3,1.31,1.31,0,0,1,0,1,1.46,1.46,0,0,1-.81.81,1.24,1.24,0,0,1-1.15,0,2.76,2.76,0,0,1-.6-.47Zm-7.17-1.49L166,64.08l-4.47-4.8Z" transform="translate(-16.11 -27.61)"/><path d="M185.2,50.26l-6.57,2.06,1.09,3.49,6.05-1.89a1.52,1.52,0,0,1,1.09,0,1.06,1.06,0,0,1,.57.68,1.1,1.1,0,0,1-.08.89,1.47,1.47,0,0,1-.91.62l-6,1.89,1.26,4,6.79-2.12a1.54,1.54,0,0,1,1.14,0,1.13,1.13,0,0,1,.61.73,1.16,1.16,0,0,1-.09.93,1.63,1.63,0,0,1-.94.64l-7.93,2.47a1.59,1.59,0,0,1-2.34-1.2l-3.33-10.69a2.35,2.35,0,0,1-.13-1.07,1.16,1.16,0,0,1,.4-.75,2.55,2.55,0,0,1,1-.5L184.5,48a1.56,1.56,0,0,1,1.13,0,1.05,1.05,0,0,1,.59.69,1.09,1.09,0,0,1-.08.92A1.58,1.58,0,0,1,185.2,50.26Z" transform="translate(-16.11 -27.61)"/><path d="M209.3,52.69a3.8,3.8,0,0,1,0,1.57,5.49,5.49,0,0,1-.76,1.82,5.77,5.77,0,0,1-1.64,1.67,7.06,7.06,0,0,1-2.6,1,10.09,10.09,0,0,1-2.17.23,6.38,6.38,0,0,1-1.88-.32,6.1,6.1,0,0,1-1.69-.92,7.92,7.92,0,0,1-1.32-1.33,8.25,8.25,0,0,1-1-1.68,9.46,9.46,0,0,1-.64-2,9.1,9.1,0,0,1-.14-3.26,6.8,6.8,0,0,1,1-2.69,6.57,6.57,0,0,1,1.95-2A7.55,7.55,0,0,1,201,43.75a7.22,7.22,0,0,1,3.34,0,5.93,5.93,0,0,1,2.51,1.3,3.52,3.52,0,0,1,1.16,1.81,1.29,1.29,0,0,1-.18,1,1.17,1.17,0,0,1-.79.57,1.24,1.24,0,0,1-.92-.09,3.61,3.61,0,0,1-.83-.79,4.51,4.51,0,0,0-1.72-1.33,3.45,3.45,0,0,0-2.06-.13,3.62,3.62,0,0,0-2.65,2,6.42,6.42,0,0,0-.27,4.16A7.49,7.49,0,0,0,199.71,55a3.61,3.61,0,0,0,1.72,1.39,3.93,3.93,0,0,0,2.19.13,3.81,3.81,0,0,0,2-1.09,3.93,3.93,0,0,0,1-2.13,3.15,3.15,0,0,1,.27-1,1.13,1.13,0,0,1,.83-.56,1.35,1.35,0,0,1,1,.18A1.23,1.23,0,0,1,209.3,52.69Z" transform="translate(-16.11 -27.61)"/><path d="M215.94,50l-1.07.14.64,4.75a2,2,0,0,1-.24,1.43,1.45,1.45,0,0,1-1,.59,1.42,1.42,0,0,1-1.18-.31,2.06,2.06,0,0,1-.58-1.31L211,44a1.89,1.89,0,0,1,.26-1.45,2,2,0,0,1,1.35-.63l4.93-.65a16.26,16.26,0,0,1,1.76-.15,4.46,4.46,0,0,1,1.35.17,4,4,0,0,1,1.35.67,3.69,3.69,0,0,1,1,1.16,4,4,0,0,1,.49,1.48,3.74,3.74,0,0,1-.59,2.77,5.55,5.55,0,0,1-2.68,1.78,5.69,5.69,0,0,1,1.71,1,12.76,12.76,0,0,1,1.54,1.58,14.14,14.14,0,0,1,1.13,1.56,3.29,3.29,0,0,1,.45,1,1,1,0,0,1-.11.61,1.32,1.32,0,0,1-.45.52,1.73,1.73,0,0,1-.73.27,1.52,1.52,0,0,1-.89-.13,2.13,2.13,0,0,1-.68-.52c-.2-.21-.47-.54-.82-1l-1.48-1.83a11.06,11.06,0,0,0-1.39-1.52,2.79,2.79,0,0,0-1.15-.64A3.54,3.54,0,0,0,215.94,50Zm.9-6.43-2.79.37.54,4.06,2.71-.36a7.9,7.9,0,0,0,1.81-.43,2.19,2.19,0,0,0,1-.79,1.77,1.77,0,0,0,.23-1.28,1.87,1.87,0,0,0-.46-1,2,2,0,0,0-1-.58A6.44,6.44,0,0,0,216.84,43.61Z" transform="translate(-16.11 -27.61)"/><path d="M236.65,41.89l-6.88.43L230,46l6.33-.39a1.53,1.53,0,0,1,1.06.24,1,1,0,0,1,.39.8,1,1,0,0,1-.28.84,1.48,1.48,0,0,1-1,.39l-6.33.39.27,4.23,7.1-.45a1.61,1.61,0,0,1,1.11.27,1.21,1.21,0,0,1,.11,1.73,1.57,1.57,0,0,1-1.07.4l-8.28.51a1.59,1.59,0,0,1-2-1.72L226.7,42a2.54,2.54,0,0,1,.12-1.08,1.23,1.23,0,0,1,.58-.63,2.69,2.69,0,0,1,1-.26l8.05-.5a1.61,1.61,0,0,1,1.1.25,1.08,1.08,0,0,1,.41.82,1.11,1.11,0,0,1-.3.87A1.61,1.61,0,0,1,236.65,41.89Zm-4.11-6,1.39-.08c.35,0,.53,0,.53.11a2.8,2.8,0,0,1-.53.7c-.36.41-.73.8-1.09,1.18a5.31,5.31,0,0,1-.78.69,2.76,2.76,0,0,1-1.23.37c-.29,0-.45-.06-.46-.23a1.55,1.55,0,0,1,.23-.61l.41-.88a2.92,2.92,0,0,1,.64-1A1.65,1.65,0,0,1,232.54,35.93Z" transform="translate(-16.11 -27.61)"/><path d="M243.32,39.4l4,0a10.74,10.74,0,0,1,2.66.31,4.89,4.89,0,0,1,2,1.08q2.34,2,2.3,6.08a11.41,11.41,0,0,1-.26,2.44,6.85,6.85,0,0,1-.75,2A6,6,0,0,1,252,52.92a5.19,5.19,0,0,1-1.33.85,6,6,0,0,1-1.55.44,11.92,11.92,0,0,1-1.87.12l-4,0A2.58,2.58,0,0,1,242,54a1.13,1.13,0,0,1-.54-.71,4.67,4.67,0,0,1-.12-1.17l.1-10.92a1.94,1.94,0,0,1,.46-1.41A2,2,0,0,1,243.32,39.4Zm1.16,2.4-.09,10.1,2.31,0q.77,0,1.2,0a3.85,3.85,0,0,0,.9-.2,2.33,2.33,0,0,0,.8-.45c1-.84,1.56-2.31,1.58-4.39a6.5,6.5,0,0,0-.65-3.31,3,3,0,0,0-1.65-1.41,8.16,8.16,0,0,0-2.38-.32Z" transform="translate(-16.11 -27.61)"/><path d="M256.9,53.05l.74-11.71a1.9,1.9,0,0,1,.5-1.34,1.4,1.4,0,0,1,1.12-.39,1.48,1.48,0,0,1,1.09.52,2,2,0,0,1,.34,1.4L260,53.24a2,2,0,0,1-.51,1.35,1.46,1.46,0,0,1-1.15.38,1.39,1.39,0,0,1-1.05-.52A2,2,0,0,1,256.9,53.05Z" transform="translate(-16.11 -27.61)"/><path d="M274.18,43.77l-3.31-.37-1.19,10.75a2,2,0,0,1-.57,1.34,1.47,1.47,0,0,1-1.14.32,1.42,1.42,0,0,1-1.05-.57,2,2,0,0,1-.27-1.42l1.19-10.75-3.31-.37a1.69,1.69,0,0,1-1.12-.47,1.13,1.13,0,0,1-.28-.93,1.15,1.15,0,0,1,.5-.87,1.7,1.7,0,0,1,1.17-.2l9.66,1.07a1.72,1.72,0,0,1,1.13.47,1.23,1.23,0,0,1-.2,1.79A1.74,1.74,0,0,1,274.18,43.77Z" transform="translate(-16.11 -27.61)"/><path d="M284.9,42.75a8.08,8.08,0,0,1,3.79,1.65,6.09,6.09,0,0,1,2,3.08,9,9,0,0,1,.12,4.16,9.66,9.66,0,0,1-1,3A6.61,6.61,0,0,1,288,56.79a6.1,6.1,0,0,1-2.58,1.14,8.22,8.22,0,0,1-3.2,0,8.35,8.35,0,0,1-3-1.12,6.27,6.27,0,0,1-2-2,6.75,6.75,0,0,1-1-2.68,9.61,9.61,0,0,1,.1-3.15,9.32,9.32,0,0,1,1.05-3,6.81,6.81,0,0,1,1.86-2.14,6.37,6.37,0,0,1,2.55-1.1A8.48,8.48,0,0,1,284.9,42.75Zm2.89,8.31a7,7,0,0,0,0-2.88,4,4,0,0,0-1.18-2.06,4.33,4.33,0,0,0-2.13-1,4.19,4.19,0,0,0-1.73,0,3.73,3.73,0,0,0-1.49.74,4.64,4.64,0,0,0-1.17,1.47,8.14,8.14,0,0,0-.82,4.49,4.64,4.64,0,0,0,.59,1.84A3.84,3.84,0,0,0,281,54.91a4.15,4.15,0,0,0,1.59.63,4.22,4.22,0,0,0,2.23-.18,4,4,0,0,0,1.86-1.48A6.85,6.85,0,0,0,287.79,51.06Z" transform="translate(-16.11 -27.61)"/><path d="M302.33,60l.38-9.78-2.93,9.86a1.83,1.83,0,0,1-.73,1.11,1.43,1.43,0,0,1-1.95-.57,1.87,1.87,0,0,1,0-1.35L300.44,48a1.48,1.48,0,0,1,.87-1.11,2.46,2.46,0,0,1,1.43.07l.91.27a3.59,3.59,0,0,1,1.14.49,1,1,0,0,1,.39.69,7.51,7.51,0,0,1,0,1.36L305,58.23,309.42,51a7.66,7.66,0,0,1,.78-1.12,1,1,0,0,1,.7-.36,3.53,3.53,0,0,1,1.23.2L313,50a2.45,2.45,0,0,1,1.23.73,1.42,1.42,0,0,1,.12,1.4L311,63.46a1.84,1.84,0,0,1-.74,1.11,1.32,1.32,0,0,1-1.11.12,1.3,1.3,0,0,1-.83-.7,1.77,1.77,0,0,1,0-1.33l2.92-9.86-5,8.41c-.32.54-.58.94-.75,1.19a1.89,1.89,0,0,1-.75.6,1.61,1.61,0,0,1-1.17,0,1.64,1.64,0,0,1-.8-.48,1.5,1.5,0,0,1-.39-.72,3.82,3.82,0,0,1-.09-.85Q302.32,60.54,302.33,60Z" transform="translate(-16.11 -27.61)"/><path d="M315.56,60.07l2.58-6.67a2,2,0,0,1,.88-1.13,1.37,1.37,0,0,1,1.19,0,1.44,1.44,0,0,1,.89.83A2,2,0,0,1,321,54.5l-2.64,6.83a6.7,6.7,0,0,0-.49,2.05,2.41,2.41,0,0,0,.47,1.57A3.75,3.75,0,0,0,320,66.11a3.06,3.06,0,0,0,2.7,0,4.58,4.58,0,0,0,1.72-2.4l2.67-6.88a2,2,0,0,1,.87-1.14,1.41,1.41,0,0,1,1.19,0,1.44,1.44,0,0,1,.88.82A1.9,1.9,0,0,1,330,58l-2.58,6.68A10.32,10.32,0,0,1,326,67.24a4.4,4.4,0,0,1-1.95,1.45,5,5,0,0,1-2.18.33,8.66,8.66,0,0,1-2.51-.6A10.79,10.79,0,0,1,316.72,67a4.76,4.76,0,0,1-1.49-1.81,4.58,4.58,0,0,1-.37-2.28A9.85,9.85,0,0,1,315.56,60.07Zm10.85-9.32,1.3.5c.33.12.47.23.43.33a3.09,3.09,0,0,1-.77.41c-.5.22-1,.42-1.49.61a4.2,4.2,0,0,1-1,.3,2.76,2.76,0,0,1-1.27-.17c-.28-.11-.38-.24-.32-.4a1.35,1.35,0,0,1,.46-.46l.74-.63a2.72,2.72,0,0,1,1-.63A1.55,1.55,0,0,1,326.41,50.75Z" transform="translate(-16.11 -27.61)"/><path d="M342.07,64.55l-3-1.41-4.59,9.79a1.94,1.94,0,0,1-1,1.08,1.44,1.44,0,0,1-1.18-.06,1.39,1.39,0,0,1-.8-.88,2,2,0,0,1,.19-1.43l4.59-9.8-3-1.41a1.67,1.67,0,0,1-.91-.8,1.26,1.26,0,0,1,.78-1.64,1.7,1.7,0,0,1,1.18.19l8.8,4.12a1.71,1.71,0,0,1,.92.81,1.16,1.16,0,0,1,0,1,1.1,1.1,0,0,1-.73.65A1.73,1.73,0,0,1,342.07,64.55Z" transform="translate(-16.11 -27.61)"/><path d="M342.63,71.79l3.48-6.26a2,2,0,0,1,1-1,1.42,1.42,0,0,1,1.18.13,1.45,1.45,0,0,1,.76,1,1.92,1.92,0,0,1-.3,1.4l-3.56,6.4a6.58,6.58,0,0,0-.77,2A2.44,2.44,0,0,0,344.7,77a3.69,3.69,0,0,0,1.53,1.39,3.07,3.07,0,0,0,2.67.41,4.58,4.58,0,0,0,2-2.13l3.59-6.45a2,2,0,0,1,1-1,1.45,1.45,0,0,1,1.19.14,1.48,1.48,0,0,1,.75.94,2,2,0,0,1-.29,1.41L353.71,78A10.24,10.24,0,0,1,352,80.34a4.52,4.52,0,0,1-2.14,1.16,5.1,5.1,0,0,1-2.2,0,8.8,8.8,0,0,1-2.4-.94,11,11,0,0,1-2.44-1.78,4.86,4.86,0,0,1-1.23-2,4.6,4.6,0,0,1,0-2.31A10,10,0,0,1,342.63,71.79Z" transform="translate(-16.11 -27.61)"/><path d="M367.22,76a8.17,8.17,0,0,1,2.84,3,6.08,6.08,0,0,1,.64,3.63,8.92,8.92,0,0,1-1.52,3.87,10,10,0,0,1-2.13,2.35,6.88,6.88,0,0,1-2.54,1.26,6.06,6.06,0,0,1-2.81,0,9.29,9.29,0,0,1-5.27-3.51A6.27,6.27,0,0,1,355.36,84a6.74,6.74,0,0,1,.19-2.84,9.82,9.82,0,0,1,1.32-2.86A9.44,9.44,0,0,1,359,75.93a6.76,6.76,0,0,1,2.55-1.23,6.16,6.16,0,0,1,2.77,0A8.27,8.27,0,0,1,367.22,76Zm-.61,8.78a7,7,0,0,0,1.12-2.66,4,4,0,0,0-.27-2.35A4.26,4.26,0,0,0,365.9,78a4.07,4.07,0,0,0-1.6-.65,3.78,3.78,0,0,0-1.67.08,4.79,4.79,0,0,0-1.65.89A7.57,7.57,0,0,0,359.46,80a7.24,7.24,0,0,0-1,2.09,4.64,4.64,0,0,0-.18,1.92,3.88,3.88,0,0,0,.57,1.6,4.26,4.26,0,0,0,1.22,1.21,4.18,4.18,0,0,0,2.12.7,3.93,3.93,0,0,0,2.29-.62A6.86,6.86,0,0,0,366.61,84.73Z" transform="translate(-16.11 -27.61)"/><path d="M382,86.92l3.07,2.53A10.47,10.47,0,0,1,387,91.36a4.86,4.86,0,0,1,.88,2.1q.56,3-2,6.17a11.9,11.9,0,0,1-1.74,1.74,7.21,7.21,0,0,1-1.83,1.08,6.32,6.32,0,0,1-2,.43,5.16,5.16,0,0,1-1.57-.18,6.23,6.23,0,0,1-1.49-.63,12.14,12.14,0,0,1-1.53-1.08l-3.07-2.53a2.52,2.52,0,0,1-.81-1,1.14,1.14,0,0,1,0-.89,4.27,4.27,0,0,1,.64-1l6.94-8.43a1.85,1.85,0,0,1,1.23-.81A2,2,0,0,1,382,86.92Zm-.61,2.59L375,97.32l1.79,1.47c.39.32.7.56.94.73a4.48,4.48,0,0,0,.82.41,2.45,2.45,0,0,0,.91.15c1.34,0,2.66-.82,4-2.43a6.35,6.35,0,0,0,1.57-3,3,3,0,0,0-.39-2.13A8.85,8.85,0,0,0,383,90.79Z" transform="translate(-16.11 -27.61)"/><path d="M398.13,100.69a8.1,8.1,0,0,1,2.25,3.47,6.11,6.11,0,0,1,0,3.69,9.06,9.06,0,0,1-2.2,3.53,9.7,9.7,0,0,1-2.51,1.94,6.77,6.77,0,0,1-2.72.78,6.16,6.16,0,0,1-2.78-.47,9.33,9.33,0,0,1-4.55-4.39,6.25,6.25,0,0,1-.58-2.77,6.69,6.69,0,0,1,.69-2.76,9.92,9.92,0,0,1,1.81-2.58,9.62,9.62,0,0,1,2.54-1.92,6.76,6.76,0,0,1,2.73-.76,6.37,6.37,0,0,1,2.73.49A8.51,8.51,0,0,1,398.13,100.69ZM396,109.22a7,7,0,0,0,1.57-2.41,3.89,3.89,0,0,0,.15-2.37,4.22,4.22,0,0,0-1.21-2,4.31,4.31,0,0,0-1.46-.93,3.84,3.84,0,0,0-1.65-.21,4.76,4.76,0,0,0-1.79.59,7.36,7.36,0,0,0-1.81,1.41,7.84,7.84,0,0,0-1.35,1.88,4.67,4.67,0,0,0-.52,1.86,3.87,3.87,0,0,0,.28,1.67,4.3,4.3,0,0,0,2.94,2.48,4,4,0,0,0,2.36-.2A6.86,6.86,0,0,0,396,109.22Z" transform="translate(-16.11 -27.61)"/><path d="M405.57,124.06a4.34,4.34,0,0,1-2.28,1.09,4.61,4.61,0,0,1-2.63-.41,7.58,7.58,0,0,1-2.6-2,7.31,7.31,0,0,1-1.85-3.29,4.92,4.92,0,0,1,.08-2.32,3.58,3.58,0,0,1,1-1.77,1.25,1.25,0,0,1,.95-.34,1.29,1.29,0,0,1,.95.47,1.16,1.16,0,0,1,.32.81,2.42,2.42,0,0,1-.29,1,6,6,0,0,0-.47,1.25,2.58,2.58,0,0,0,0,1.23,4.28,4.28,0,0,0,2.78,2.62,1.91,1.91,0,0,0,1.73-.41,1.63,1.63,0,0,0,.58-1.15,2.92,2.92,0,0,0-.26-1.35c-.2-.47-.51-1.06-.91-1.79a14.15,14.15,0,0,1-1.17-2.61,4.54,4.54,0,0,1-.14-2.21A3.53,3.53,0,0,1,402.6,111a3.66,3.66,0,0,1,2.08-1,4.25,4.25,0,0,1,2.4.48,8.93,8.93,0,0,1,3.76,3.92,5.25,5.25,0,0,1,.45,1.86,3.77,3.77,0,0,1-.23,1.52,2.75,2.75,0,0,1-.69,1,1.43,1.43,0,0,1-1,.36,1.26,1.26,0,0,1-1-.42,1.17,1.17,0,0,1-.34-.77,3.65,3.65,0,0,1,.24-1,3.94,3.94,0,0,0,.32-1.61,2.88,2.88,0,0,0-.89-1.69,3.2,3.2,0,0,0-1.65-1.08,1.51,1.51,0,0,0-1.41.28,1.3,1.3,0,0,0-.41.7,2.22,2.22,0,0,0,0,.88,5,5,0,0,0,.31.9l.69,1.34a21.17,21.17,0,0,1,1.06,2.15,7.28,7.28,0,0,1,.54,1.89,3.63,3.63,0,0,1-.2,1.7A4.19,4.19,0,0,1,405.57,124.06Z" transform="translate(-16.11 -27.61)"/><path d="M422.44,132.62l-3.6-4.82-3,2.28,3,4a1.55,1.55,0,0,1,.38,1,1.06,1.06,0,0,1-.46.77,1,1,0,0,1-.87.21,1.49,1.49,0,0,1-.86-.65l-3-4L410,134.37a1.94,1.94,0,0,1-1.36.48,1.44,1.44,0,0,1-1-.6,1.46,1.46,0,0,1-.3-1.16,2,2,0,0,1,.85-1.17l9.18-6.86a2.49,2.49,0,0,1,1-.48,1.21,1.21,0,0,1,.85.14,2.43,2.43,0,0,1,.78.74l4.32,5.77a1.57,1.57,0,0,1,.39,1.06,1,1,0,0,1-.46.78,1.06,1.06,0,0,1-.89.23A1.63,1.63,0,0,1,422.44,132.62Z" transform="translate(-16.11 -27.61)"/><path d="M419.6,139.63l6-3.88a2,2,0,0,1,1.38-.39,1.4,1.4,0,0,1,1,.67,1.44,1.44,0,0,1,.23,1.2,2,2,0,0,1-.93,1.09l-6.15,4a6.44,6.44,0,0,0-1.6,1.36,2.38,2.38,0,0,0-.55,1.55,3.71,3.71,0,0,0,.7,2,3.08,3.08,0,0,0,2.16,1.62,4.59,4.59,0,0,0,2.8-.92l6.2-4a2,2,0,0,1,1.38-.4,1.4,1.4,0,0,1,1,.68,1.5,1.5,0,0,1,.23,1.18,2,2,0,0,1-.93,1.11l-6,3.87a10.22,10.22,0,0,1-2.64,1.29,4.45,4.45,0,0,1-2.43,0,5.17,5.17,0,0,1-2-1,8.78,8.78,0,0,1-1.67-2,10.79,10.79,0,0,1-1.31-2.72,4.86,4.86,0,0,1-.14-2.34,4.58,4.58,0,0,1,1-2.06A10.17,10.17,0,0,1,419.6,139.63Z" transform="translate(-16.11 -27.61)"/><path d="M436.45,153.38l-4.93,9.34,7.8-4.2a1.89,1.89,0,0,1,1.31-.29,1.23,1.23,0,0,1,.86.69,1.32,1.32,0,0,1,.12,1.12,1.91,1.91,0,0,1-1,1l-10.3,5.56c-1.15.62-2,.45-2.51-.52a2.27,2.27,0,0,1-.25-.7,2,2,0,0,1,0-.72,4.08,4.08,0,0,1,.27-.76l.38-.76,4.91-9.16-7.68,4.14a1.82,1.82,0,0,1-1.32.26,1.34,1.34,0,0,1-.88-.7,1.31,1.31,0,0,1-.1-1.12,1.88,1.88,0,0,1,.94-1l10.11-5.45a2.93,2.93,0,0,1,1.09-.4,1.65,1.65,0,0,1,1,.21,1.72,1.72,0,0,1,.72.72,1.67,1.67,0,0,1,.22.69,1.62,1.62,0,0,1-.07.62,4,4,0,0,1-.29.67Z" transform="translate(-16.11 -27.61)"/><path d="M439.73,180a3.85,3.85,0,0,1-1.55.31,5.46,5.46,0,0,1-1.94-.36,5.79,5.79,0,0,1-2-1.25,7.08,7.08,0,0,1-1.58-2.32,9.42,9.42,0,0,1-.68-2.07,6.19,6.19,0,0,1-.09-1.91,5.84,5.84,0,0,1,.54-1.84,7.54,7.54,0,0,1,1-1.57,7.63,7.63,0,0,1,1.44-1.33,9.73,9.73,0,0,1,1.82-1.05,9.31,9.31,0,0,1,3.16-.82,6.85,6.85,0,0,1,2.84.39,6.72,6.72,0,0,1,2.34,1.49,7.62,7.62,0,0,1,1.64,2.37,7.14,7.14,0,0,1,.67,3.27,5.87,5.87,0,0,1-.74,2.73,3.43,3.43,0,0,1-1.52,1.51,1.3,1.3,0,0,1-1,0,1.18,1.18,0,0,1-.72-.66,1.22,1.22,0,0,1-.11-.91,3.78,3.78,0,0,1,.6-1,4.69,4.69,0,0,0,.94-2,3.5,3.5,0,0,0-.31-2,3.64,3.64,0,0,0-2.51-2.17,6.35,6.35,0,0,0-4.12.61,7.41,7.41,0,0,0-2.44,1.63,3.61,3.61,0,0,0-1,2,3.92,3.92,0,0,0,.34,2.17,3.78,3.78,0,0,0,1.5,1.77,3.87,3.87,0,0,0,2.29.48,3.35,3.35,0,0,1,1.07.05,1.11,1.11,0,0,1,.71.7,1.31,1.31,0,0,1,0,1A1.21,1.21,0,0,1,439.73,180Z" transform="translate(-16.11 -27.61)"/><path d="M437.81,183.83l10.95-4.2a2,2,0,0,1,1.43-.1,1.43,1.43,0,0,1,.82.86,1.51,1.51,0,0,1,0,1.2,2,2,0,0,1-1.14.89l-11,4.2a2,2,0,0,1-1.44.1,1.45,1.45,0,0,1-.83-.88,1.43,1.43,0,0,1,0-1.18A2,2,0,0,1,437.81,183.83Z" transform="translate(-16.11 -27.61)"/><path d="M455.08,191.94a8.18,8.18,0,0,1,.33,4.13,6.1,6.1,0,0,1-1.76,3.24,9.08,9.08,0,0,1-3.61,2.07,9.67,9.67,0,0,1-3.13.5,6.75,6.75,0,0,1-2.77-.6,6.26,6.26,0,0,1-2.22-1.73,8.58,8.58,0,0,1-1.49-2.84,8.48,8.48,0,0,1-.43-3.19,6.3,6.3,0,0,1,.8-2.71,6.81,6.81,0,0,1,1.92-2.1,9.81,9.81,0,0,1,2.82-1.41,9.64,9.64,0,0,1,3.15-.49,6.9,6.9,0,0,1,2.76.63,6.21,6.21,0,0,1,2.17,1.73A8.47,8.47,0,0,1,455.08,191.94Zm-6,6.48a6.85,6.85,0,0,0,2.54-1.38,3.87,3.87,0,0,0,1.25-2,4.21,4.21,0,0,0-.11-2.35,4,4,0,0,0-.84-1.51,3.65,3.65,0,0,0-1.35-1,4.77,4.77,0,0,0-1.85-.34,7.31,7.31,0,0,0-2.26.39,7.81,7.81,0,0,0-2.09,1,4.88,4.88,0,0,0-1.34,1.39,3.76,3.76,0,0,0-.54,1.6,4.05,4.05,0,0,0,.19,1.71,4.13,4.13,0,0,0,1.21,1.87,4.07,4.07,0,0,0,2.18.95A6.87,6.87,0,0,0,449.11,198.42Z" transform="translate(-16.11 -27.61)"/><path d="M457.42,206.71l-7.17,7.75,8.61-2.05a1.94,1.94,0,0,1,1.35.06,1.26,1.26,0,0,1,.65.89,1.28,1.28,0,0,1-.18,1.11,1.9,1.9,0,0,1-1.17.67l-11.39,2.71c-1.27.31-2-.08-2.29-1.14a2.17,2.17,0,0,1-.05-.75,1.83,1.83,0,0,1,.21-.69,3.43,3.43,0,0,1,.46-.66L447,214l7.11-7.58-8.49,2a1.88,1.88,0,0,1-1.35-.09,1.39,1.39,0,0,1-.66-.9,1.32,1.32,0,0,1,.19-1.12,1.94,1.94,0,0,1,1.16-.68L456.14,203a3.35,3.35,0,0,1,1.16-.1,1.55,1.55,0,0,1,.87.46,1.71,1.71,0,0,1,.51.88,1.64,1.64,0,0,1,0,.72,1.72,1.72,0,0,1-.23.58,3.11,3.11,0,0,1-.46.57C457.84,206.28,457.63,206.49,457.42,206.71Z" transform="translate(-16.11 -27.61)"/><path d="M450.25,230.52l1.73-1-1-6-2-.41a6.91,6.91,0,0,1-1.6-.47,1.16,1.16,0,0,1-.54-.91,1.43,1.43,0,0,1,.25-1.07A1.28,1.28,0,0,1,448,220a2,2,0,0,1,.64,0,9.1,9.1,0,0,1,.94.19l10.16,2.27,1.05.23a4.53,4.53,0,0,1,1,.34,2,2,0,0,1,.73.58,2.46,2.46,0,0,1,.33,2.09,2.08,2.08,0,0,1-.49.78,4.42,4.42,0,0,1-.73.56l-1.07.64-8.86,5.42a4.68,4.68,0,0,1-1.5.71,1.32,1.32,0,0,1-1-.28,1.48,1.48,0,0,1-.6-1,1.32,1.32,0,0,1,0-.63,1.42,1.42,0,0,1,.27-.48,4,4,0,0,1,.6-.48Zm3.12-6.63.71,4.45,5.71-3.22Zm13.2.52.22,1.37c0,.35,0,.53-.07.54a2.78,2.78,0,0,1-.74-.46c-.45-.32-.87-.64-1.28-1a5.28,5.28,0,0,1-.76-.7,2.72,2.72,0,0,1-.49-1.19q-.07-.45.18-.48a1.44,1.44,0,0,1,.63.17l.92.32a2.6,2.6,0,0,1,1,.54A1.61,1.61,0,0,1,466.57,224.41Z" transform="translate(-16.11 -27.61)"/><path d="M456,239.53l-.09-1.07-4.77.42a2,2,0,0,1-1.42-.3,1.47,1.47,0,0,1-.54-1.06,1.4,1.4,0,0,1,.36-1.17,2.09,2.09,0,0,1,1.34-.52l11.41-1a1.88,1.88,0,0,1,1.44.32,1.93,1.93,0,0,1,.56,1.38l.43,5a16.48,16.48,0,0,1,.07,1.76,4.37,4.37,0,0,1-.24,1.34,3.81,3.81,0,0,1-1.93,2.26,4,4,0,0,1-1.5.41,3.71,3.71,0,0,1-2.74-.71,5.59,5.59,0,0,1-1.65-2.76,5.59,5.59,0,0,1-1.12,1.66,12.21,12.21,0,0,1-1.66,1.47,12.08,12.08,0,0,1-1.61,1,3.12,3.12,0,0,1-1,.41,1,1,0,0,1-.6-.14,1.28,1.28,0,0,1-.5-.48A1.66,1.66,0,0,1,450,247a1.49,1.49,0,0,1,.17-.88,2.27,2.27,0,0,1,.55-.65c.23-.19.56-.45,1-.78l1.9-1.39a10.9,10.9,0,0,0,1.57-1.32,2.83,2.83,0,0,0,.7-1.12A3.83,3.83,0,0,0,456,239.53Zm6.38,1.2-.24-2.81-4.08.35.24,2.73a7.53,7.53,0,0,0,.35,1.83,2.15,2.15,0,0,0,.73,1.09,1.85,1.85,0,0,0,1.28.28,1.87,1.87,0,0,0,1.06-.41,1.92,1.92,0,0,0,.62-.94A6.41,6.41,0,0,0,462.39,240.73Z" transform="translate(-16.11 -27.61)"/><path d="M452,251l11.72-.4a2,2,0,0,1,1.39.37,1.41,1.41,0,0,1,.49,1.07,1.46,1.46,0,0,1-.41,1.14,2,2,0,0,1-1.36.47l-11.73.4a1.93,1.93,0,0,1-1.39-.38,1.45,1.45,0,0,1-.5-1.1,1.43,1.43,0,0,1,.43-1.1A2,2,0,0,1,452,251Z" transform="translate(-16.11 -27.61)"/><path d="M465.68,264.26a8.21,8.21,0,0,1-1,4,6.1,6.1,0,0,1-2.73,2.49,9,9,0,0,1-4.08.78,9.9,9.9,0,0,1-3.13-.55,6.58,6.58,0,0,1-2.41-1.47,6.24,6.24,0,0,1-1.54-2.36,8.73,8.73,0,0,1-.48-3.17,8.47,8.47,0,0,1,.64-3.16,6.23,6.23,0,0,1,1.64-2.3,6.72,6.72,0,0,1,2.5-1.36,10.15,10.15,0,0,1,3.12-.41,9.74,9.74,0,0,1,3.14.57,6.66,6.66,0,0,1,2.41,1.5,6.16,6.16,0,0,1,1.48,2.34A8.36,8.36,0,0,1,465.68,264.26Zm-7.75,4.18a6.91,6.91,0,0,0,2.84-.48,3.93,3.93,0,0,0,1.85-1.48,4.29,4.29,0,0,0,.66-2.27,4.35,4.35,0,0,0-.3-1.7,3.92,3.92,0,0,0-1-1.36,4.78,4.78,0,0,0-1.64-.92,7.48,7.48,0,0,0-2.26-.37,7.64,7.64,0,0,0-2.31.27,4.82,4.82,0,0,0-1.72.88,3.92,3.92,0,0,0-1,1.34,4.35,4.35,0,0,0,.16,3.84,4,4,0,0,0,1.76,1.6A6.78,6.78,0,0,0,457.93,268.44Z" transform="translate(-16.11 -27.61)"/><path d="M453.51,285.55a4.37,4.37,0,0,1-2.35-.94,4.71,4.71,0,0,1-1.48-2.21,8,8,0,0,1-.29-3.27,7.3,7.3,0,0,1,1.18-3.59,5,5,0,0,1,1.75-1.51,3.63,3.63,0,0,1,2-.45,1.33,1.33,0,0,1,.9.47,1.35,1.35,0,0,1,.29,1,1.21,1.21,0,0,1-.38.79,2.41,2.41,0,0,1-.95.48,5.91,5.91,0,0,0-1.25.5,2.5,2.5,0,0,0-.87.87,3.38,3.38,0,0,0-.46,1.55,3.62,3.62,0,0,0,.41,2.26,1.85,1.85,0,0,0,1.47,1,1.61,1.61,0,0,0,1.24-.34,2.88,2.88,0,0,0,.82-1.11c.2-.46.44-1.09.7-1.88a14.34,14.34,0,0,1,1.13-2.62,4.45,4.45,0,0,1,1.53-1.6,3.51,3.51,0,0,1,2.22-.43,3.61,3.61,0,0,1,2.1.88,4.29,4.29,0,0,1,1.28,2.1,8.31,8.31,0,0,1,.22,3.06,7.64,7.64,0,0,1-.57,2.36,5.25,5.25,0,0,1-1.06,1.59,4,4,0,0,1-1.28.86,2.87,2.87,0,0,1-1.23.19,1.46,1.46,0,0,1-.93-.48,1.24,1.24,0,0,1-.33-1,1.11,1.11,0,0,1,.33-.77,3.85,3.85,0,0,1,.9-.51A3.87,3.87,0,0,0,462,282a3,3,0,0,0,.64-1.8,3.23,3.23,0,0,0-.32-2,1.51,1.51,0,0,0-1.16-.84,1.24,1.24,0,0,0-.79.17,2.06,2.06,0,0,0-.63.62,4.22,4.22,0,0,0-.44.84c-.12.28-.3.76-.53,1.41a24,24,0,0,1-.87,2.24,6.7,6.7,0,0,1-1,1.67,3.51,3.51,0,0,1-1.38,1A4.11,4.11,0,0,1,453.51,285.55Z" transform="translate(-16.11 -27.61)"/><path d="M462.23,297.3l-.76,3.91a11.26,11.26,0,0,1-.79,2.56,5,5,0,0,1-1.44,1.78c-1.6,1.28-3.73,1.67-6.39,1.15a12.16,12.16,0,0,1-2.36-.7,7.6,7.6,0,0,1-1.82-1.1,6.53,6.53,0,0,1-1.31-1.55,5.18,5.18,0,0,1-.6-1.47,6.08,6.08,0,0,1-.15-1.61,12.54,12.54,0,0,1,.23-1.86l.77-3.9a2.45,2.45,0,0,1,.48-1.19,1.15,1.15,0,0,1,.79-.4,4,4,0,0,1,1.18.1l10.71,2.09a1.94,1.94,0,0,1,1.31.7A2,2,0,0,1,462.23,297.3Zm-2.57.71-9.92-1.94-.44,2.27c-.1.5-.16.89-.19,1.18a3.6,3.6,0,0,0,0,.92,2.3,2.3,0,0,0,.29.87c.64,1.17,2,1.95,4,2.35a6.44,6.44,0,0,0,3.37,0,3,3,0,0,0,1.69-1.36,8.42,8.42,0,0,0,.75-2.29Z" transform="translate(-16.11 -27.61)"/><path d="M444.22,316.61l2-.21,1.6-5.92-1.66-1.19a7,7,0,0,1-1.27-1.09,1.15,1.15,0,0,1-.12-1.05,1.41,1.41,0,0,1,.67-.87,1.19,1.19,0,0,1,1-.18,2.17,2.17,0,0,1,.59.26c.19.12.45.31.78.56l8.33,6.24.87.64a5.35,5.35,0,0,1,.8.73,1.94,1.94,0,0,1,.43.83,2.12,2.12,0,0,1-.05,1.08,2.28,2.28,0,0,1-.5,1,2,2,0,0,1-.78.5,3.74,3.74,0,0,1-.89.22l-1.23.14-10.3,1.31a4.61,4.61,0,0,1-1.66,0,1.29,1.29,0,0,1-.81-.67,1.44,1.44,0,0,1-.14-1.13,1.29,1.29,0,0,1,.28-.56,1.45,1.45,0,0,1,.45-.33,4.07,4.07,0,0,1,.74-.19Zm5.57-4.77-1.17,4.35,6.52-.6Z" transform="translate(-16.11 -27.61)"/><path d="M214.7,476.51a4.55,4.55,0,0,1-1.07,2.29,4.61,4.61,0,0,1-2.26,1.33,7.6,7.6,0,0,1-3.18.09,7,7,0,0,1-3.4-1.41,4.82,4.82,0,0,1-1.33-1.85,3.71,3.71,0,0,1-.3-2,1.32,1.32,0,0,1,.52-.86,1.24,1.24,0,0,1,1-.23,1.08,1.08,0,0,1,.73.43,2.28,2.28,0,0,1,.4,1,6.36,6.36,0,0,0,.4,1.27,2.43,2.43,0,0,0,.78.93,3.33,3.33,0,0,0,1.47.56,3.43,3.43,0,0,0,2.22-.27,1.87,1.87,0,0,0,1.07-1.4,1.69,1.69,0,0,0-.24-1.26,2.86,2.86,0,0,0-1-.88c-.44-.24-1-.51-1.77-.82a13.82,13.82,0,0,1-2.46-1.3,4.4,4.4,0,0,1-1.45-1.63,3.68,3.68,0,0,1-.26-2.24,3.84,3.84,0,0,1,1-2A4.23,4.23,0,0,1,207.7,465a7.8,7.8,0,0,1,3,0,7.35,7.35,0,0,1,2.25.72,5.09,5.09,0,0,1,1.46,1.16,3.92,3.92,0,0,1,.74,1.32,2.87,2.87,0,0,1,.1,1.25,1.46,1.46,0,0,1-.53.89,1.17,1.17,0,0,1-1,.27,1.06,1.06,0,0,1-.73-.38,3.77,3.77,0,0,1-.42-.93,4,4,0,0,0-.73-1.46,2.84,2.84,0,0,0-1.7-.76,3.11,3.11,0,0,0-1.91.2,1.5,1.5,0,0,0-.9,1.11,1.27,1.27,0,0,0,.11.8,2,2,0,0,0,.56.66,4.68,4.68,0,0,0,.78.5c.26.13.71.34,1.33.61a23.32,23.32,0,0,1,2.11,1,6.75,6.75,0,0,1,1.54,1.13,3.48,3.48,0,0,1,.87,1.45A4.13,4.13,0,0,1,214.7,476.51Z" transform="translate(-16.11 -27.61)"/><path d="M227.91,469.85l-6.65-.71-.38,3.63,6.12.66a1.39,1.39,0,0,1,1,.41,1.09,1.09,0,0,1,.25.85,1.13,1.13,0,0,1-.42.79,1.41,1.41,0,0,1-1.05.21l-6.12-.66-.45,4.22,6.88.73a1.51,1.51,0,0,1,1,.44,1.15,1.15,0,0,1,.26.91,1.14,1.14,0,0,1-.44.82,1.53,1.53,0,0,1-1.09.21l-8-.85a1.87,1.87,0,0,1-1.33-.59,1.92,1.92,0,0,1-.28-1.45l1.19-11.12a2.56,2.56,0,0,1,.31-1,1.14,1.14,0,0,1,.65-.53,2.47,2.47,0,0,1,1.05-.08l7.79.84a1.46,1.46,0,0,1,1,.42,1.11,1.11,0,0,1,.26.87,1.13,1.13,0,0,1-.44.81A1.49,1.49,0,0,1,227.91,469.85Z" transform="translate(-16.11 -27.61)"/><path d="M234.66,469.55l-.55,10.82,6,.3a1.57,1.57,0,0,1,1.08.41,1.16,1.16,0,0,1,.34.92,1.14,1.14,0,0,1-.42.86,1.62,1.62,0,0,1-1.13.29l-7.15-.36a1.57,1.57,0,0,1-1.72-1.94l.57-11.45a2,2,0,0,1,.48-1.35,1.31,1.31,0,0,1,1.08-.4,1.4,1.4,0,0,1,1.06.5A2,2,0,0,1,234.66,469.55Z" transform="translate(-16.11 -27.61)"/><path d="M253.53,470.65l-6.68,0,0,3.66,6.16,0a1.42,1.42,0,0,1,1,.31,1,1,0,0,1,.34.81,1.13,1.13,0,0,1-.32.83,1.39,1.39,0,0,1-1,.33l-6.16,0,0,4.24,6.91,0a1.56,1.56,0,0,1,1.06.32,1.13,1.13,0,0,1,.36.88,1.15,1.15,0,0,1-.35.86,1.55,1.55,0,0,1-1,.34l-8.07,0a1.84,1.84,0,0,1-1.39-.43,2,2,0,0,1-.44-1.4l-.06-11.2a2.69,2.69,0,0,1,.18-1.06,1.19,1.19,0,0,1,.59-.6,2.57,2.57,0,0,1,1-.2l7.83,0a1.54,1.54,0,0,1,1.06.31,1.14,1.14,0,0,1,.35.84,1.12,1.12,0,0,1-.34.85A1.58,1.58,0,0,1,253.53,470.65Z" transform="translate(-16.11 -27.61)"/><path d="M261.12,469.52l6.3,8.36-.61-8.83a2,2,0,0,1,.27-1.32,1.37,1.37,0,0,1,2-.14,1.93,1.93,0,0,1,.46,1.27l.81,11.68c.09,1.3-.4,2-1.46,2.07a2.42,2.42,0,0,1-.73-.07,1.78,1.78,0,0,1-.62-.33,3.7,3.7,0,0,1-.56-.56l-.53-.66-6.15-8.27.61,8.71a2,2,0,0,1-.3,1.31,1.3,1.3,0,0,1-1,.51,1.28,1.28,0,0,1-1-.37,2,2,0,0,1-.47-1.26l-.79-11.46a3.35,3.35,0,0,1,.08-1.16,1.64,1.64,0,0,1,.58-.78,1.7,1.7,0,0,1,.93-.36,1.53,1.53,0,0,1,.69.09,1.56,1.56,0,0,1,.52.32,4.54,4.54,0,0,1,.48.54Z" transform="translate(-16.11 -27.61)"/><path d="M282.16,468.1l-6.62.88.48,3.63,6.1-.82a1.49,1.49,0,0,1,1.05.17,1.08,1.08,0,0,1,.44.77,1.11,1.11,0,0,1-.22.86,1.42,1.42,0,0,1-1,.46l-6.1.81.56,4.2,6.86-.92a1.5,1.5,0,0,1,1.09.19,1.26,1.26,0,0,1,.23,1.72,1.51,1.51,0,0,1-1,.47l-8,1.07a1.92,1.92,0,0,1-1.44-.25A2,2,0,0,1,274,480l-1.48-11.1a2.45,2.45,0,0,1,.05-1.07,1.21,1.21,0,0,1,.51-.68,2.5,2.5,0,0,1,1-.32l7.76-1a1.53,1.53,0,0,1,1.09.18,1,1,0,0,1,.45.78,1.09,1.09,0,0,1-.23.89A1.54,1.54,0,0,1,282.16,468.1Z" transform="translate(-16.11 -27.61)"/><path class="cls-8" d="M46.37,257C47.86,147.31,140.15,58.42,249.5,61c107.63,2.49,195.06,92.72,193.91,200.87S352.75,458.38,245.15,458.52C135.47,458.66,44.86,367.16,46.37,257Z" transform="translate(-16.11 -27.61)"/></g></g></svg>