<svg xmlns="http://www.w3.org/2000/svg" xmlns:xlink="http://www.w3.org/1999/xlink" viewBox="0 0 1070.38 1040.7"><defs><style>.cls-1,.cls-11{fill:none;}.cls-2{fill:#ffd70f;}.cls-3{fill:#e63946;}.cls-4{fill:#7ecfe7;}.cls-5{fill:#fff;}.cls-6{fill:#29275f;}.cls-7{fill:#ecb85e;}.cls-8{fill:#1a346f;}.cls-9{clip-path:url(#clip-path);}.cls-10{fill:#021526;}.cls-11{stroke:#fff;stroke-linecap:round;stroke-linejoin:round;stroke-width:1.5px;}</style><clipPath id="clip-path" transform="translate(-64.02 -120.54)"><polygon class="cls-1" points="1919.95 0.03 1919.95 1079.97 1919.93 1080 0 1080 0 0 1919.93 0 1919.95 0.03"/></clipPath></defs><g id="OBJECTS"><circle class="cls-2" cx="650.9" cy="813.01" r="105.49"/><circle class="cls-3" cx="964.89" cy="504.52" r="105.49"/><path class="cls-4" d="M1005.41,433.39V450H66.14V433.39a42.66,42.66,0,0,1,42.64-42.67h854A42.66,42.66,0,0,1,1005.41,433.39Z" transform="translate(-64.02 -120.54)"/><path class="cls-5" d="M1005.41,450V919.21a42.66,42.66,0,0,1-42.67,42.64h-854a42.65,42.65,0,0,1-42.64-42.64V450Z" transform="translate(-64.02 -120.54)"/><path class="cls-6" d="M962.74,964h-854A44.81,44.81,0,0,1,64,919.21V433.39a44.82,44.82,0,0,1,44.76-44.79h854a44.84,44.84,0,0,1,44.79,44.79V919.21A44.82,44.82,0,0,1,962.74,964Zm-854-571.13a40.58,40.58,0,0,0-40.52,40.55V919.21a40.57,40.57,0,0,0,40.52,40.52h854a40.58,40.58,0,0,0,40.55-40.52V433.39a40.6,40.6,0,0,0-40.55-40.55Z" transform="translate(-64.02 -120.54)"/><path class="cls-6" d="M1005.41,452.09H550.9a2.12,2.12,0,0,1,0-4.24h454.51a2.12,2.12,0,1,1,0,4.24Z" transform="translate(-64.02 -120.54)"/><path class="cls-6" d="M349,452.09H66.14a2.12,2.12,0,0,1,0-4.24H349a2.12,2.12,0,0,1,0,4.24Z" transform="translate(-64.02 -120.54)"/><circle class="cls-3" cx="761.29" cy="298.95" r="13.43"/><path class="cls-6" d="M954.84,435a15.55,15.55,0,1,1,15.55-15.54A15.56,15.56,0,0,1,954.84,435Zm0-26.85a11.31,11.31,0,1,0,11.3,11.31A11.32,11.32,0,0,0,954.84,408.19Z" transform="translate(-64.02 -120.54)"/><circle class="cls-7" cx="824.83" cy="300.65" r="13.43"/><rect class="cls-4" x="673.72" y="652.92" width="253.04" height="253.04" transform="translate(1536.47 1438.34) rotate(180)"/><path class="cls-5" d="M912.27,612.62l-.2.2c-6.1,6.1-7.11,15-2.26,19.81s13.71,3.84,19.81-2.26c-6.1,6.1-7.1,15-2.25,19.82s13.71,3.84,19.81-2.25c-6.1,6.09-7.1,15-2.26,19.8s13.72,3.85,19.82-2.24l.2-.21v0l16.84-69.48-67.47,16.36Z" transform="translate(-64.02 -120.54)"/><path class="cls-5" d="M737,785.36l-8.54,8.54-1.08-1.08a6,6,0,0,0-8.51,0L716.67,795a6,6,0,0,0,0,8.5l57.41,57.41a6,6,0,0,0,8.49,0l2.16-2.16a6,6,0,0,0,0-8.5l-1.08-1.07,8.54-8.54,1.07,1.07a6,6,0,0,0,8.51,0l2.15-2.15a6,6,0,0,0,0-8.49l-57.4-57.41a6,6,0,0,0-8.49,0l-2.16,2.15a6.05,6.05,0,0,0,0,8.51Z" transform="translate(-64.02 -120.54)"/><path class="cls-7" d="M912.06,612.81,748.88,776l52.68,52.68L964.74,665.5c-6.1,6.09-15,7.1-19.82,2.24s-3.84-13.71,2.26-19.8c-6.1,6.09-15,7.1-19.81,2.25s-3.85-13.72,2.25-19.82c-6.1,6.1-15,7.12-19.81,2.26s-3.84-13.71,2.26-19.81Z" transform="translate(-64.02 -120.54)"/><path class="cls-6" d="M947.86,604s-1.32,8.27,8.06,17.65c9.13,9.13,17.21,8.12,17.64,8.07l8.2-33.85,0-.09Z" transform="translate(-64.02 -120.54)"/><path class="cls-2" d="M717.84,805.18,699,824.05s-13.65,17.78,11.55,43,43,11.56,43,11.56l18.87-18.88Z" transform="translate(-64.02 -120.54)"/><path class="cls-6" d="M952.76,672.94a12.92,12.92,0,0,1-9.34-3.7,13.27,13.27,0,0,1-3.58-11.17,17.43,17.43,0,0,1,.81-3.61c-5.42,1.79-11.07.94-14.78-2.76a13.34,13.34,0,0,1-3.59-11.19,18,18,0,0,1,.8-3.59,18,18,0,0,1-3.59.8A12.85,12.85,0,0,1,904.72,623a19.92,19.92,0,0,1,5.85-11.63l.21-.21a2.07,2.07,0,0,1,1-.55l69.52-16.85a2.13,2.13,0,0,1,2.57,2.56L967,665.75a2.26,2.26,0,0,1-.57,1l-.2.2a19.83,19.83,0,0,1-11.64,5.83A14.41,14.41,0,0,1,952.76,672.94Zm-4.08-23.51c-5.26,5.26-6.27,12.8-2.26,16.81a9.15,9.15,0,0,0,7.7,2.38,15.6,15.6,0,0,0,8.91-4.41l15.88-65.56-65.56,15.89c-5.06,5.24-6,12.63-2,16.59a9.15,9.15,0,0,0,7.7,2.37,15.55,15.55,0,0,0,9.11-4.63,2.12,2.12,0,0,1,3,3A15.56,15.56,0,0,0,926.5,641a8.61,8.61,0,0,0,10.06,10.07,15.66,15.66,0,0,0,9.12-4.63,2.14,2.14,0,0,1,3,0,2.1,2.1,0,0,1,.62,1.5A2.07,2.07,0,0,1,948.68,649.43Z" transform="translate(-64.02 -120.54)"/><path class="cls-6" d="M778.32,864.77a8.1,8.1,0,0,1-5.74-2.38L715.17,805a8.16,8.16,0,0,1,0-11.5l2.15-2.15a8.14,8.14,0,0,1,11.07-.42l5.57-5.56a8.16,8.16,0,0,1,.41-11.08l2.16-2.15a8.14,8.14,0,0,1,11.49,0l57.4,57.41a8.14,8.14,0,0,1,0,11.49l-2.15,2.15a8.06,8.06,0,0,1-5.76,2.38h0a8.06,8.06,0,0,1-5.3-2l-5.57,5.57a8.16,8.16,0,0,1-.42,11.07l-2.16,2.15A8.11,8.11,0,0,1,778.32,864.77Zm-55.24-71.59a3.9,3.9,0,0,0-2.76,1.15l-2.15,2.15a3.91,3.91,0,0,0,0,5.5l57.41,57.41a3.89,3.89,0,0,0,5.49,0l2.16-2.16a3.9,3.9,0,0,0,0-5.5l-1.08-1.07a2.14,2.14,0,0,1,0-3l8.54-8.54a2.12,2.12,0,0,1,3,0l1.07,1.07a3.86,3.86,0,0,0,2.75,1.13h0a3.84,3.84,0,0,0,2.76-1.14l2.15-2.15a3.88,3.88,0,0,0,0-5.49L745,775.13a3.88,3.88,0,0,0-5.48,0l-2.16,2.15a3.91,3.91,0,0,0,0,5.51l1.08,1.08a2.12,2.12,0,0,1,0,3l-8.53,8.54a2.12,2.12,0,0,1-1.5.62h0a2.12,2.12,0,0,1-1.5-.62l-1.08-1.08A3.87,3.87,0,0,0,723.08,793.18Z" transform="translate(-64.02 -120.54)"/><path class="cls-6" d="M801.56,830.8a2.07,2.07,0,0,1-1.5-.62L747.37,777.5a2.14,2.14,0,0,1,0-3L910.56,611.31a2.13,2.13,0,0,1,2.88-.11h0a2.16,2.16,0,0,1,.74,1.53,2.11,2.11,0,0,1-.62,1.58c-5.26,5.26-6.27,12.8-2.26,16.81a9.15,9.15,0,0,0,7.7,2.37,15.55,15.55,0,0,0,9.11-4.63,2.12,2.12,0,0,1,3,3A15.56,15.56,0,0,0,926.5,641a9.15,9.15,0,0,0,2.37,7.7c4,4,11.55,3,16.81-2.26a2.14,2.14,0,0,1,3,0,2.1,2.1,0,0,1,.62,1.5,2.07,2.07,0,0,1-.62,1.5c-5.26,5.26-6.27,12.8-2.26,16.81s11.56,3,16.82-2.24a2.12,2.12,0,0,1,3.62,1.5,2.15,2.15,0,0,1-.62,1.5L803.06,830.18A2.1,2.1,0,0,1,801.56,830.8ZM751.88,776l49.68,49.68L954.4,672.84a12.81,12.81,0,0,1-14.56-14.77,17.43,17.43,0,0,1,.81-3.61c-5.42,1.79-11.07.94-14.78-2.76a13.34,13.34,0,0,1-3.59-11.19,18,18,0,0,1,.8-3.59,18,18,0,0,1-3.59.8,12.83,12.83,0,0,1-14.79-14.55Z" transform="translate(-64.02 -120.54)"/><path class="cls-6" d="M972.48,631.88c-3.1,0-10.28-1-18.06-8.75-10-10-8.72-19.1-8.65-19.48a2.11,2.11,0,0,1,1.59-1.73l33.93-8.22a2.12,2.12,0,0,1,2,.59,2.15,2.15,0,0,1,.5,2.07l-8.21,33.84a2.1,2.1,0,0,1-1.82,1.61A11.55,11.55,0,0,1,972.48,631.88Zm-22.56-26.21c.11,2.5,1.16,8.12,7.5,14.46s11.88,7.36,14.46,7.49l7-29Z" transform="translate(-64.02 -120.54)"/><path class="cls-6" d="M740.46,884.29c-8.07,0-19-3.3-31.44-15.76-26.21-26.22-11.88-45.58-11.73-45.78l19.05-19.07a2.12,2.12,0,0,1,3,0l54.54,54.53a2.12,2.12,0,0,1,0,3L755,880.09C754.8,880.26,749.36,884.29,740.46,884.29Zm-39.87-58.86c-1.1,1.54-11.33,17.34,11.43,40.09s38.56,12.55,40.1,11.45l17.26-17.26-51.54-51.53Z" transform="translate(-64.02 -120.54)"/><path class="cls-6" d="M875.33,721.91a2.12,2.12,0,0,1-1.5-3.62l71.85-71.86a2.12,2.12,0,0,1,3,3l-71.85,71.86A2.15,2.15,0,0,1,875.33,721.91Z" transform="translate(-64.02 -120.54)"/><path class="cls-6" d="M784,813.24a2.12,2.12,0,0,1-1.5-3.62l63.44-63.44a2.12,2.12,0,0,1,3,3L785.5,812.62A2.15,2.15,0,0,1,784,813.24Z" transform="translate(-64.02 -120.54)"/><path class="cls-6" d="M802.11,760a2.12,2.12,0,0,1-1.51-3.62L928.12,628.87a2.12,2.12,0,0,1,3,3L803.61,759.39A2.15,2.15,0,0,1,802.11,760Z" transform="translate(-64.02 -120.54)"/><path class="cls-6" d="M793.27,843.81a2.15,2.15,0,0,1-1.5-.62l-56.33-56.33a2.12,2.12,0,0,1,3-3l56.33,56.33a2.12,2.12,0,0,1-1.5,3.62Z" transform="translate(-64.02 -120.54)"/><path class="cls-6" d="M783.67,851.28a2.15,2.15,0,0,1-1.51-.62l-56.33-56.34a2.12,2.12,0,0,1,3-3l56.34,56.34a2.12,2.12,0,0,1-1.5,3.62Z" transform="translate(-64.02 -120.54)"/><path class="cls-6" d="M750,875.62a2.15,2.15,0,0,1-1.5-.62l-43-43a2.12,2.12,0,0,1,3-3l43,43a2.12,2.12,0,0,1-1.5,3.62Z" transform="translate(-64.02 -120.54)"/><path class="cls-8" d="M854,322.12a35.17,35.17,0,0,0-.18-3.58v0a72.79,72.79,0,0,0,11.59-5.65,47.74,47.74,0,0,0-7.1-17.13,75.72,75.72,0,0,0-12.19,4.19,36.76,36.76,0,0,0-5.1-5.11,73.45,73.45,0,0,0,4.2-12.18,47.32,47.32,0,0,0-17.14-7.08,75.68,75.68,0,0,0-5.64,11.57c-1.2-.12-2.4-.18-3.61-.18a36.06,36.06,0,0,0-3.61.18,75.68,75.68,0,0,0-5.64-11.57,47.32,47.32,0,0,0-17.14,7.08,73.45,73.45,0,0,0,4.2,12.18,36.22,36.22,0,0,0-5.1,5.11,74.47,74.47,0,0,0-12.19-4.19,47.39,47.39,0,0,0-7.1,17.13,73.58,73.58,0,0,0,11.58,5.65c-.11,1.17-.17,2.39-.17,3.6s.06,2.44.17,3.61a75.37,75.37,0,0,0-11.58,5.65,47.31,47.31,0,0,0,7.1,17.13,74.47,74.47,0,0,0,12.19-4.19,36.76,36.76,0,0,0,5.1,5.11,73.45,73.45,0,0,0-4.2,12.18,47.72,47.72,0,0,0,17.14,7.1,75.83,75.83,0,0,0,5.64-11.59,36.06,36.06,0,0,0,3.61.18c1.21,0,2.41-.06,3.61-.18a75.83,75.83,0,0,0,5.64,11.59,47.72,47.72,0,0,0,17.14-7.1,73.45,73.45,0,0,0-4.2-12.18,37.32,37.32,0,0,0,5.1-5.11,75.72,75.72,0,0,0,12.19,4.19,47.67,47.67,0,0,0,7.1-17.13,74.54,74.54,0,0,0-11.59-5.65A35.62,35.62,0,0,0,854,322.12Zm-51.93,0a16.76,16.76,0,1,1,16.76,16.77A16.77,16.77,0,0,1,802.05,322.12Z" transform="translate(-64.02 -120.54)"/><path class="cls-6" d="M944.26,346.09a2.33,2.33,0,0,1-.37,0,63,63,0,0,1-20.6-7.51,2.08,2.08,0,0,1-1-1.28,2.13,2.13,0,0,1,.21-1.62l6.36-11a48.7,48.7,0,0,1-9.7-8l-9.7,8.14a2.19,2.19,0,0,1-1.55.49,2.14,2.14,0,0,1-1.44-.76,63.17,63.17,0,0,1-10.93-19,2.11,2.11,0,0,1,1.27-2.71l11.68-4.26A47.82,47.82,0,0,1,906.19,286H893.81a2.09,2.09,0,0,1-1.5-.63,2.13,2.13,0,0,1-.62-1.51,64.27,64.27,0,0,1,3.86-21.58,2.12,2.12,0,0,1,2.72-1.26l11.38,4.14a48.31,48.31,0,0,1,6.3-11.14l-9.21-7.74a2.12,2.12,0,0,1-.27-3,61.55,61.55,0,0,1,16.81-14.08,2.11,2.11,0,0,1,2.9.77l5.94,10.26a47.78,47.78,0,0,1,12.1-4.43l-2.05-11.66a2.14,2.14,0,0,1,1.81-2.47l1.64-.24a35.22,35.22,0,0,1,3.8-.47l5.32-.26,5.51.26a35.28,35.28,0,0,1,3.82.47c.55.08,1.09.17,1.64.24a2.13,2.13,0,0,1,1.43.86,2.1,2.1,0,0,1,.37,1.61l-2,11.66a47.85,47.85,0,0,1,12.09,4.43L983.5,230a2.12,2.12,0,0,1,2.9-.77,61.55,61.55,0,0,1,16.81,14.08,2.1,2.1,0,0,1-.27,3l-9.21,7.74a47.59,47.59,0,0,1,6.3,11.14l11.38-4.14a2.12,2.12,0,0,1,2.72,1.26,64.27,64.27,0,0,1,3.86,21.58,2.12,2.12,0,0,1-.61,1.51,2.09,2.09,0,0,1-1.51.63h-12.38a47.81,47.81,0,0,1-2.3,12.48l11.68,4.26a2.11,2.11,0,0,1,1.26,2.71,63.14,63.14,0,0,1-10.92,19,2.11,2.11,0,0,1-3,.27l-9.71-8.14a48.93,48.93,0,0,1-9.69,8l6.35,11a2.11,2.11,0,0,1-.77,2.9,63.21,63.21,0,0,1-20.6,7.51,2.13,2.13,0,0,1-2.47-1.72l-2.21-12.6a48,48,0,0,1-12.56,0l-2.21,12.6a2.11,2.11,0,0,1-.87,1.37A2.16,2.16,0,0,1,944.26,346.09Zm-17-10.19a58.82,58.82,0,0,0,15.27,5.56l2.2-12.51a2.12,2.12,0,0,1,2.46-1.72,44.11,44.11,0,0,0,15.29,0,2.11,2.11,0,0,1,2.45,1.72l2.2,12.51a58.76,58.76,0,0,0,15.28-5.56L976.1,325a2.13,2.13,0,0,1-.22-1.62,2.16,2.16,0,0,1,1-1.29,44.49,44.49,0,0,0,11.8-9.78,2.11,2.11,0,0,1,3-.25l9.62,8.07a59,59,0,0,0,8.1-14.09l-11.61-4.23a2.16,2.16,0,0,1-1.21-1.11,2.14,2.14,0,0,1,0-1.63,44.12,44.12,0,0,0,2.8-15.14,2.12,2.12,0,0,1,2.12-2.11h12.26a59.74,59.74,0,0,0-2.85-16l-11.33,4.13a2.1,2.1,0,0,1-1.63-.07,2.16,2.16,0,0,1-1.1-1.22,44,44,0,0,0-7.62-13.52,2.11,2.11,0,0,1,.27-3l9.14-7.68A57.61,57.61,0,0,0,986.09,234l-5.9,10.2a2.12,2.12,0,0,1-2.91.77,43.8,43.8,0,0,0-14.63-5.36,2.12,2.12,0,0,1-1.72-2.46l2-11.56a28.25,28.25,0,0,0-2.92-.35l-5.3-.26-5.11.26a28.4,28.4,0,0,0-2.91.35l2,11.56a2.13,2.13,0,0,1-.36,1.59,2.1,2.1,0,0,1-1.37.87A43.88,43.88,0,0,0,932.4,245a2.13,2.13,0,0,1-2.91-.77l-5.9-10.2a57.61,57.61,0,0,0-12.48,10.42l9.14,7.68a2.11,2.11,0,0,1,.28,3,44.1,44.1,0,0,0-7.63,13.52,2.14,2.14,0,0,1-1.09,1.22,2.17,2.17,0,0,1-1.64.07l-11.33-4.13a60.2,60.2,0,0,0-2.85,16h12.26a2.13,2.13,0,0,1,2.13,2.11,43.61,43.61,0,0,0,2.8,15.14,2.1,2.1,0,0,1-.06,1.63,2.18,2.18,0,0,1-1.2,1.11L900.3,306a59.34,59.34,0,0,0,8.1,14.09L918,312a2.12,2.12,0,0,1,3,.25,44.69,44.69,0,0,0,11.81,9.78,2.13,2.13,0,0,1,.78,2.91Zm27.57-19.67a32.81,32.81,0,1,1,32.82-32.82A32.85,32.85,0,0,1,954.84,316.23Zm0-61.37a28.57,28.57,0,1,0,28.58,28.55A28.59,28.59,0,0,0,954.84,254.86Z" transform="translate(-64.02 -120.54)"/><path class="cls-3" d="M882.58,181.89H894a62.63,62.63,0,0,0-3.75-21l-10.65,3.89a49.87,49.87,0,0,0-8.68-15.05l8.7-7.3a60.79,60.79,0,0,0-16.32-13.67l-5.67,9.81a50,50,0,0,0-16.32-5.93l2-11.16c-1.79-.25-3.53-.61-5.31-.71l-5.34-.26-5.34.26c-1.79.1-3.55.46-5.31.71l2,11.16a50.12,50.12,0,0,0-16.32,5.93l-5.67-9.81a60.64,60.64,0,0,0-16.32,13.67l8.71,7.3a49.66,49.66,0,0,0-8.68,15.05L775,160.92a62.39,62.39,0,0,0-3.76,21h11.39a50.07,50.07,0,0,0,3,17.12L775,202.89a61.52,61.52,0,0,0,10.62,18.44l8.71-7.31a50.43,50.43,0,0,0,13.28,11.17L801.92,235a62.21,62.21,0,0,0,20,7.28l2-11.19a49.37,49.37,0,0,0,17.37,0l2,11.19a62.24,62.24,0,0,0,20-7.28l-5.69-9.83A50,50,0,0,0,870.89,214l8.7,7.31a61.55,61.55,0,0,0,10.63-18.44L879.57,199A50.07,50.07,0,0,0,882.58,181.89Zm-50,26.16a26.63,26.63,0,1,1,26.61-26.64A26.64,26.64,0,0,1,832.6,208.05Z" transform="translate(-64.02 -120.54)"/><polygon class="cls-7" points="698.91 118.9 657.47 154.77 670.55 167.84 583.58 203.15 635.03 163.32 622.75 151.05 698.91 118.9"/><polygon class="cls-7" points="684.82 239.42 648.68 232.43 647.21 244.76 592.46 213.49 634.85 224.13 636.23 212.55 684.82 239.42"/><polygon class="cls-7" points="599.05 93.99 592.06 130.13 604.39 131.61 573.12 186.35 583.76 143.97 572.18 142.58 599.05 93.99"/><path class="cls-5" d="M279.66,203.23v40.3A28.73,28.73,0,0,1,251,272.17H219.07l9.15,25.66-40.51-25.66H124.57a28.73,28.73,0,0,1-28.64-28.64v-40.3a28.73,28.73,0,0,1,28.64-28.64H251A28.73,28.73,0,0,1,279.66,203.23Z" transform="translate(-64.02 -120.54)"/><path class="cls-6" d="M228.22,300a2.13,2.13,0,0,1-1.14-.33l-40-25.33H124.57a30.8,30.8,0,0,1-30.76-30.76v-40.3a30.8,30.8,0,0,1,30.76-30.76H251a30.8,30.8,0,0,1,30.77,30.76v40.3A30.8,30.8,0,0,1,251,274.29H222.08l8.14,22.83a2.13,2.13,0,0,1-.68,2.37A2.08,2.08,0,0,1,228.22,300ZM124.57,176.71a26.55,26.55,0,0,0-26.52,26.52v40.3a26.55,26.55,0,0,0,26.52,26.52h63.14a2,2,0,0,1,1.13.33l35.31,22.36-7.08-19.86a2.13,2.13,0,0,1,2-2.83H251a26.55,26.55,0,0,0,26.52-26.52v-40.3A26.55,26.55,0,0,0,251,176.71Z" transform="translate(-64.02 -120.54)"/><path class="cls-6" d="M138,238.33a15.81,15.81,0,1,1,15.82-15.81A15.82,15.82,0,0,1,138,238.33ZM138,211a11.57,11.57,0,1,0,11.57,11.57A11.58,11.58,0,0,0,138,211Z" transform="translate(-64.02 -120.54)"/><path class="cls-6" d="M185,238.33a15.81,15.81,0,1,1,15.81-15.81A15.83,15.83,0,0,1,185,238.33ZM185,211a11.57,11.57,0,1,0,11.56,11.57A11.58,11.58,0,0,0,185,211Z" transform="translate(-64.02 -120.54)"/><path class="cls-6" d="M232,238.33a15.81,15.81,0,1,1,15.81-15.81A15.82,15.82,0,0,1,232,238.33ZM232,211a11.57,11.57,0,1,0,11.57,11.57A11.58,11.58,0,0,0,232,211Z" transform="translate(-64.02 -120.54)"/><path class="cls-6" d="M607.63,786.72a2.12,2.12,0,0,1-2.12-2.13V759.16a2.12,2.12,0,0,1,4.24,0v25.43A2.12,2.12,0,0,1,607.63,786.72Z" transform="translate(-64.02 -120.54)"/><path class="cls-6" d="M620.35,774H594.92a2.12,2.12,0,1,1,0-4.24h25.43a2.12,2.12,0,0,1,0,4.24Z" transform="translate(-64.02 -120.54)"/><path class="cls-6" d="M127.51,516.33a2.12,2.12,0,0,1-2.12-2.12V488.78a2.12,2.12,0,1,1,4.24,0v25.43A2.12,2.12,0,0,1,127.51,516.33Z" transform="translate(-64.02 -120.54)"/><path class="cls-6" d="M140.23,503.62H114.79a2.13,2.13,0,0,1,0-4.25h25.44a2.13,2.13,0,0,1,0,4.25Z" transform="translate(-64.02 -120.54)"/><path class="cls-6" d="M112.54,557.32c-10.92,0-10.94,17,0,17S123.48,557.32,112.54,557.32Z" transform="translate(-64.02 -120.54)"/><path class="cls-6" d="M1068.09,971.41a2.12,2.12,0,0,1-2.12-2.12V943.86a2.12,2.12,0,0,1,4.24,0v25.43A2.12,2.12,0,0,1,1068.09,971.41Z" transform="translate(-64.02 -120.54)"/><path class="cls-6" d="M1080.8,958.7h-25.43a2.13,2.13,0,0,1,0-4.25h25.43a2.13,2.13,0,1,1,0,4.25Z" transform="translate(-64.02 -120.54)"/><path class="cls-6" d="M1064.59,884.59c-10.92,0-10.94,17,0,17S1075.54,884.59,1064.59,884.59Z" transform="translate(-64.02 -120.54)"/><path class="cls-6" d="M1110.21,910.39c-18.2,0-18.23,28.29,0,28.29S1128.45,910.39,1110.21,910.39Z" transform="translate(-64.02 -120.54)"/><path class="cls-6" d="M1090.26,455.15c-10.93,0-11,17,0,17S1101.2,455.15,1090.26,455.15Z" transform="translate(-64.02 -120.54)"/><path class="cls-6" d="M1050.93,396c-18.21,0-18.24,28.29,0,28.29S1069.16,396,1050.93,396Z" transform="translate(-64.02 -120.54)"/><path class="cls-6" d="M1095,359.82c-18.21,0-18.24,28.3,0,28.3S1113.21,359.82,1095,359.82Z" transform="translate(-64.02 -120.54)"/><path class="cls-6" d="M624.12,848.4c-10.93,0-11,17,0,17S635.06,848.4,624.12,848.4Z" transform="translate(-64.02 -120.54)"/><path class="cls-6" d="M556.47,778.25c-18.21,0-18.24,28.29,0,28.29S574.71,778.25,556.47,778.25Z" transform="translate(-64.02 -120.54)"/><g class="cls-9"><polygon class="cls-2" points="638.1 345.59 673.23 414.86 618.9 442.39 583.78 373.14 638.1 345.59"/><path class="cls-5" d="M682.92,562.94l-62.55,31.73q-5.11,2.61-10.36,4.72a20.49,20.49,0,0,0-.87-4.74,10.41,10.41,0,0,0-.41-1.27l-.17-.43-8.51-21.44a10.79,10.79,0,0,0-5-5.59,10.95,10.95,0,0,0-15.45,13.49l-1.79-4.48a11,11,0,0,0-21.11,5l-.52-1.3a11,11,0,0,0-14.23-6.14,11,11,0,0,0-6.16,14.23L533.91,582a11,11,0,0,0-20.39,8.1l5.42,13.68a135.46,135.46,0,0,1-25.86-10.64v-22.5l1.7-.39a10.57,10.57,0,0,0,8-12.6l-.13-.59a9.69,9.69,0,0,0-.52-1.63,10.57,10.57,0,0,0-9-6.58,9.89,9.89,0,0,0-3.05.22l3.05-.67,2.33-.53a10.55,10.55,0,0,0,8-12.57l-.15-.61a10.57,10.57,0,0,0-10.14-8.23,12.71,12.71,0,0,0-1.83.13l1.83-.41,1.81-.42a10.56,10.56,0,0,0,7.94-12.58l-.13-.63a10.56,10.56,0,0,0-9.62-8.18,10.42,10.42,0,0,0-3,.24l3-.68,2-.45a10.47,10.47,0,0,0,7.93-7.88c.5,1.15,1,2.31,1.63,3.46a60,60,0,0,0,80.59,26.36l62.54-31.71Z" transform="translate(-64.02 -120.54)"/><polygon class="cls-4" points="548.74 169.38 583.89 238.65 529.54 266.2 494.42 196.93 548.74 169.38"/><path class="cls-5" d="M610,599.39a21.39,21.39,0,0,1-13.45,21.31l-2.63,1-40.67,16.13-18.48,7.33a21.4,21.4,0,0,1-27.77-12l-2-5.07-4.29-10.84a11,11,0,0,1,20.22-8.51l-2-5-5.42-13.68a11,11,0,0,1,20.39-8.1l1.87,4.72a11,11,0,0,1,6.16-14.23,11,11,0,0,1,14.23,6.14l.52,1.3a11,11,0,0,1,21.11-5l1.79,4.48A10.95,10.95,0,0,1,595,565.92a10.79,10.79,0,0,1,5,5.59L608.56,593c.21.56.41,1.13.58,1.7a10.67,10.67,0,0,1,.35,2.74,11.65,11.65,0,0,1-.24,2.3A8,8,0,0,0,610,599.39Z" transform="translate(-64.02 -120.54)"/><path class="cls-5" d="M610,599.39a8,8,0,0,1-.76.3,11.65,11.65,0,0,0,.24-2.3,10.67,10.67,0,0,0-.35-2.74A20.49,20.49,0,0,1,610,599.39Z" transform="translate(-64.02 -120.54)"/><path class="cls-5" d="M609.14,594.65c-.17-.57-.37-1.14-.58-1.7l.17.43A10.41,10.41,0,0,1,609.14,594.65Z" transform="translate(-64.02 -120.54)"/><path class="cls-2" d="M553.26,637.87l40.67-16.13a53,53,0,0,1-22.92,20l-41.59,18.91a53.08,53.08,0,0,1-36.34,2.83V593.12a135.46,135.46,0,0,0,25.86,10.64l2,5a11,11,0,0,0-20.22,8.51L505,628.14l2,5.07a21.4,21.4,0,0,0,27.77,12Z" transform="translate(-64.02 -120.54)"/><path class="cls-5" d="M593.56,386.74,531,418.47a60.11,60.11,0,0,0-31.47,66.18,10.38,10.38,0,0,0-6.46-2.59,11.22,11.22,0,0,0-2.74.24l-53.19,12-1.35-13.1a19.71,19.71,0,0,0-.87-4l-7.1-21.77a17.31,17.31,0,0,0-5.09-7.74,138.22,138.22,0,0,1,17.37-46.42c.24-.4.46-.79.72-1.18a136.75,136.75,0,0,1,55.06-50.86l62.55-31.73Z" transform="translate(-64.02 -120.54)"/><path class="cls-10" d="M571.86,960.77a167,167,0,0,1,9.88,93l-18.89,105.38H407.57l27.49-153.3.3-.11v0L370.53,848.14,358.82,819.7,354,848.14l-53.45,311H145.2l70.18-408.26V726.7c15.22,9.21,53,24.16,138,24.16,84,0,118.48-14.62,131.82-23.83v23.83h.57Z" transform="translate(-64.02 -120.54)"/><path class="cls-2" d="M499.15,461.37l28.21,62A59.69,59.69,0,0,1,504.66,499c-.59-1.15-1.13-2.31-1.63-3.46v0a10.08,10.08,0,0,0,0-4.7l-.13-.59a10.29,10.29,0,0,0-3.37-5.59,0,0,0,0,1,0,0A59.31,59.31,0,0,1,499.15,461.37Z" transform="translate(-64.02 -120.54)"/><path class="cls-5" d="M502.74,557.63a10.57,10.57,0,0,1-8,12.6l-1.7.39-24.77,5.57-.52-.46q-.33.36-.63.72L437,583.26l-25.24,5.68a37.23,37.23,0,0,1-10.88.81l-16.11-71.56a13.16,13.16,0,0,0,4.7-4.11l9.77-13.84,5.77-8.16,2.72-3.88a19.44,19.44,0,0,0,3.09-15.49L405,447.22a3,3,0,0,1,2.22-3.52,16.76,16.76,0,0,1,3.89-.44,17.55,17.55,0,0,1,11.6,4.4,17.31,17.31,0,0,1,5.09,7.74l7.1,21.77a19.71,19.71,0,0,1,.87,4l1.35,13.1,53.19-12a11.22,11.22,0,0,1,2.74-.24,10.38,10.38,0,0,1,6.46,2.59,0,0,0,0,0,0,0,10.29,10.29,0,0,1,3.37,5.59l.13.59a10.08,10.08,0,0,1,0,4.7v0a10.47,10.47,0,0,1-7.93,7.88l-2,.45-3,.68a10.42,10.42,0,0,1,3-.24,10.56,10.56,0,0,1,9.62,8.18l.13.63a10.56,10.56,0,0,1-7.94,12.58l-1.81.42-1.83.41a12.71,12.71,0,0,1,1.83-.13,10.57,10.57,0,0,1,10.14,8.23l.15.61a10.55,10.55,0,0,1-8,12.57l-2.33.53-3.05.67a9.89,9.89,0,0,1,3.05-.22,10.57,10.57,0,0,1,9,6.58,9.69,9.69,0,0,1,.52,1.63Z" transform="translate(-64.02 -120.54)"/><path class="cls-2" d="M493.08,570.62v149s-1.68,3.12-7.86,7.36c-13.34,9.21-47.79,23.83-131.82,23.83-85,0-122.8-15-138-24.16-6.77-4.09-9.07-7-9.07-7l13.14-75.6,184.27-41.5-2.89-12.82a37.23,37.23,0,0,0,10.88-.81L437,583.26l30.21-6.81,1.15-.26Z" transform="translate(-64.02 -120.54)"/><path class="cls-5" d="M468.31,576.19l-1.15.26q.3-.36.63-.72Z" transform="translate(-64.02 -120.54)"/><path class="cls-6" d="M446.09,171.13c34.59,26.64,3.64,65.14,3.64,65.14H349.9c0,39.13-12.75,55-12.75,55a26.18,26.18,0,0,0-19.33-18.17,25.83,25.83,0,0,0-5.74-.63,26.4,26.4,0,0,0-4,.3l.59-38.35a36.26,36.26,0,0,1,29.6-35.06l.61-.11,68.49-12.79,10.27-16.35c8.77,3.53,12.51,19.07,12.71,18.57S446.09,171.13,446.09,171.13Z" transform="translate(-64.02 -120.54)"/><path class="cls-5" d="M449.73,236.27v89.86a49.06,49.06,0,0,1-42,48.4,47.18,47.18,0,0,1-6.87.5H366.72L415,398.43s-11.19,18.35-44.38,18.35-52.84-18.35-52.84-18.35V324.09a26.43,26.43,0,0,1-5.74.63,26.12,26.12,0,0,1-4-51.93,26.4,26.4,0,0,1,4-.3,25.83,25.83,0,0,1,5.74.63,26.18,26.18,0,0,1,19.33,18.17s12.75-15.89,12.75-55Z" transform="translate(-64.02 -120.54)"/><path class="cls-2" d="M440.83,400.06c-.26.39-.48.78-.72,1.18a138.22,138.22,0,0,0-17.37,46.42,17.55,17.55,0,0,0-11.6-4.4,16.76,16.76,0,0,0-3.89.44,3,3,0,0,0-2.22,3.52l5.74,25.49a19.44,19.44,0,0,1-3.09,15.49L405,492.08l-5.77,8.16-9.77,13.84a13.16,13.16,0,0,1-4.7,4.11l-4.53-20.09L294.6,517.39l18.46-40.57a53.12,53.12,0,0,0,4.76-22,53.4,53.4,0,0,0-73.49-49.75,65.89,65.89,0,0,1,28.94-6.64h44.55s19.68,18.35,52.84,18.35S415,398.43,415,398.43h11.08A66.85,66.85,0,0,1,440.83,400.06Z" transform="translate(-64.02 -120.54)"/><path class="cls-6" d="M407.7,374.53l7.34,23.9L366.72,375h34.11A47.18,47.18,0,0,0,407.7,374.53Z" transform="translate(-64.02 -120.54)"/><path class="cls-2" d="M403.72,602.57,214,645.31a50.76,50.76,0,0,1-7.66,1.13A53.72,53.72,0,0,1,150,604.83a53,53,0,0,1-1.3-11.73,51.45,51.45,0,0,1,.91-9.71,52.74,52.74,0,0,1,4.33-15.34l54.8-120.5,6.86-15.06a53.61,53.61,0,0,1,2.76-5.27.07.07,0,0,1,0,0,53.35,53.35,0,0,1,25.95-22.11h0a53.54,53.54,0,0,1,68.73,71.75L294.6,517.39l85.59-19.29,4.53,20.09,16.11,71.56Z" transform="translate(-64.02 -120.54)"/><path class="cls-6" d="M682.92,565.06a2.13,2.13,0,0,1-1-4l52.43-26.57L701.18,469l-52.43,26.59a2.12,2.12,0,0,1-1.92-3.79l54.32-27.55a2.08,2.08,0,0,1,1.62-.12,2.11,2.11,0,0,1,1.24,1.05l35.12,69.28a2.12,2.12,0,0,1,.13,1.62,2.18,2.18,0,0,1-1.06,1.23l-54.32,27.53A2.19,2.19,0,0,1,682.92,565.06Z" transform="translate(-64.02 -120.54)"/><path class="cls-6" d="M518.93,605.89a2.08,2.08,0,0,1-.6-.09A138.33,138.33,0,0,1,492.07,595a2.13,2.13,0,0,1-1.11-1.87v-22.5a2.12,2.12,0,0,1,1.64-2.07l1.7-.39a8.43,8.43,0,0,0,6.37-10.07l-.13-.6a8.92,8.92,0,0,0-.41-1.27,8.47,8.47,0,0,0-7.2-5.27,7.75,7.75,0,0,0-2.21.12l-.23,0a2.12,2.12,0,0,1-.94-4.13l.29-.07,5.11-1.13a8.44,8.44,0,0,0,6.35-10l-.14-.56a8.51,8.51,0,0,0-8.11-6.62,11.4,11.4,0,0,0-1.5.11,2.12,2.12,0,0,1-.77-4.17l3.63-.83a8.42,8.42,0,0,0,6.35-10l-.14-.68a8.42,8.42,0,0,0-7.67-6.49,8.3,8.3,0,0,0-2.4.19,2.12,2.12,0,0,1-.92-4.14l5-1.13a8.37,8.37,0,0,0,6.32-6.28,2.1,2.1,0,0,1,1.87-1.64,2.13,2.13,0,0,1,2.14,1.26c.48,1.12,1,2.23,1.58,3.35a57.85,57.85,0,0,0,77.74,25.42l62.54-31.71a2.12,2.12,0,1,1,1.92,3.79l-62.54,31.71a62.07,62.07,0,0,1-83.15-26.73,12.69,12.69,0,0,1-3.93,3.58,12.65,12.65,0,0,1,5.64,7.92l.14.68a12.48,12.48,0,0,1-1.66,9.48,12.63,12.63,0,0,1-3.82,3.88,12.63,12.63,0,0,1,5.86,8.1l.14.56a12.71,12.71,0,0,1-6.28,13.93,12.89,12.89,0,0,1,5.53,7.87l.14.61a12.69,12.69,0,0,1-9.58,15.13h0v19.54a135.41,135.41,0,0,0,20.12,8.56l-3.78-9.55a13.1,13.1,0,0,1,22.32-13.11c0-.09.07-.19.11-.28a13,13,0,0,1,16.39-7.11,12.84,12.84,0,0,1,5.25,3.43,13.13,13.13,0,0,1,7.18-7,13.16,13.16,0,0,1,15,3.88,13,13,0,0,1,18.31-6.63,13,13,0,0,1,6,6.69l8.68,21.86a12,12,0,0,1,.5,1.5,22.61,22.61,0,0,1,.56,2.26c2.63-1.13,5.19-2.33,7.65-3.58L682,561a2.12,2.12,0,0,1,1.92,3.79l-62.55,31.73c-3.35,1.7-6.89,3.32-10.52,4.8a2.14,2.14,0,0,1-1.92-.17,2.1,2.1,0,0,1-1-1.65,18.84,18.84,0,0,0-.79-4.27,7.83,7.83,0,0,0-.33-1.06l-8.71-21.92a8.88,8.88,0,0,0-11.47-4.95,8.89,8.89,0,0,0-5,11.33,2.12,2.12,0,0,1-4,1.53l-1.79-4.49a8.87,8.87,0,0,0-11.48-5,8.91,8.91,0,0,0-5.54,9,2.12,2.12,0,0,1-4.09,1l-.52-1.31a8.66,8.66,0,0,0-5.25-5,8.83,8.83,0,0,0-11.2,11.55,2.12,2.12,0,1,1-3.94,1.57h0l-1.87-4.72a8.85,8.85,0,0,0-16.45,6.54L520.91,603a2.13,2.13,0,0,1-.41,2.22A2.15,2.15,0,0,1,518.93,605.89Z" transform="translate(-64.02 -120.54)"/><path class="cls-6" d="M593.56,388.86a2.12,2.12,0,0,1-1-4l52.45-26.59-33.23-65.49L559.4,319.36a2.12,2.12,0,1,1-1.92-3.78L611.8,288a2.13,2.13,0,0,1,2.85.94l35.15,69.27a2.12,2.12,0,0,1,.12,1.62,2.08,2.08,0,0,1-1.06,1.23l-54.34,27.56A2.17,2.17,0,0,1,593.56,388.86Z" transform="translate(-64.02 -120.54)"/><path class="cls-6" d="M526.92,648.83A23.55,23.55,0,0,1,505,634l-6.29-15.91A13.08,13.08,0,0,1,515.56,601l-4-10.15a13.1,13.1,0,0,1,22.32-13.11c0-.09.07-.19.11-.28a13,13,0,0,1,16.39-7.11,12.84,12.84,0,0,1,5.25,3.43,13.13,13.13,0,0,1,7.18-7,13.16,13.16,0,0,1,15,3.88,13,13,0,0,1,18.31-6.63,13,13,0,0,1,6,6.69l8.51,21.43c.24.63.45,1.24.64,1.85a13.17,13.17,0,0,1,.44,3.37c0,.22,0,.44,0,.67a2,2,0,0,1,.53,1.19,23.41,23.41,0,0,1-14.79,23.42l-61.78,24.5A23.26,23.26,0,0,1,526.92,648.83Zm-16-44.43a8.83,8.83,0,0,0-8.21,12.11L509,632.43a19.3,19.3,0,0,0,25,10.8l61.78-24.51a19.15,19.15,0,0,0,12.15-17.36l-.08-.07a2.15,2.15,0,0,1-.68-2,9.39,9.39,0,0,0,.2-1.88,8.53,8.53,0,0,0-.28-2.21c-.14-.43-.32-.95-.51-1.47l-8.51-21.42a8.88,8.88,0,0,0-11.47-4.95,8.89,8.89,0,0,0-5,11.33,2.12,2.12,0,0,1-4,1.53l-1.79-4.49a8.87,8.87,0,0,0-11.48-5,8.91,8.91,0,0,0-5.54,9,2.12,2.12,0,0,1-4.09,1l-.52-1.31a8.66,8.66,0,0,0-5.25-5,8.83,8.83,0,0,0-11.2,11.54h0a2.12,2.12,0,1,1-3.94,1.57l-1.87-4.73a8.85,8.85,0,0,0-16.45,6.54L522.91,608a2.12,2.12,0,0,1-3.91,1.65A8.88,8.88,0,0,0,510.9,604.4Zm99.33-4.51.61,1.45Z" transform="translate(-64.02 -120.54)"/><path class="cls-6" d="M609.25,601.82a2.13,2.13,0,0,1-2.08-2.55,9.39,9.39,0,0,0,.2-1.88,8.53,8.53,0,0,0-.28-2.21,2.12,2.12,0,0,1,4.08-1.16,22.9,22.9,0,0,1,1,5.22,2.12,2.12,0,0,1-1.29,2.1l-.66-1.45.52,1.51a7.21,7.21,0,0,1-.77.3A2,2,0,0,1,609.25,601.82Z" transform="translate(-64.02 -120.54)"/><path class="cls-6" d="M609.14,596.77a2.11,2.11,0,0,1-2-1.5q-.25-.78-.54-1.56a2.12,2.12,0,0,1,3.95-1.55l.17.44a12,12,0,0,1,.5,1.5,2.12,2.12,0,0,1-1.47,2.58A2,2,0,0,1,609.14,596.77Z" transform="translate(-64.02 -120.54)"/><path class="cls-6" d="M507.37,667.51a55.69,55.69,0,0,1-14.86-2,2.11,2.11,0,0,1-1.55-2V593.12a2.12,2.12,0,0,1,1-1.82,2.15,2.15,0,0,1,2.1,0,133.37,133.37,0,0,0,25.45,10.48,2.16,2.16,0,0,1,1.37,1.25l2,5a2.12,2.12,0,0,1-3.91,1.65,8.85,8.85,0,0,0-16.31,6.85L509,632.43a19.31,19.31,0,0,0,25,10.8l18.47-7.33h0l40.68-16.13a2.12,2.12,0,0,1,2.57,3.11,55.22,55.22,0,0,1-23.83,20.75L530.3,662.54A55.23,55.23,0,0,1,507.37,667.51ZM495.2,661.8a51.37,51.37,0,0,0,33.35-3.12l41.59-18.91a50.93,50.93,0,0,0,17.69-13.33l-52.27,20.73A23.52,23.52,0,0,1,505,634l-6.29-15.91a13.11,13.11,0,0,1,6.77-16.77c-3.52-1.42-7-3-10.32-4.68Z" transform="translate(-64.02 -120.54)"/><path class="cls-6" d="M437.15,496.4a2.12,2.12,0,0,1-2.11-1.91l-1.35-13.1a17.77,17.77,0,0,0-.77-3.55l-7.1-21.78a15.4,15.4,0,0,0-4.48-6.81,2.12,2.12,0,0,1-.69-2,139.79,139.79,0,0,1,17.64-47.13l.22-.37c.18-.3.35-.6.55-.89a138.94,138.94,0,0,1,55.87-51.58l62.55-31.73a2.12,2.12,0,1,1,1.92,3.78l-62.55,31.73a134.91,134.91,0,0,0-54.21,50.08c-.2.3-.34.54-.48.77l-.24.4A135.46,135.46,0,0,0,425,446.9a19.56,19.56,0,0,1,4.81,7.85l7.1,21.76a21.64,21.64,0,0,1,1,4.43L439,491.68l50.85-11.45a13.34,13.34,0,0,1,3.32-.28,12.49,12.49,0,0,1,3.47.63,60.78,60.78,0,0,1,.4-19.59,61.64,61.64,0,0,1,33-44.41l62.54-31.73a2.12,2.12,0,0,1,1.92,3.79L532,420.37a57.4,57.4,0,0,0-30.73,41.38,56.75,56.75,0,0,0,.38,22.45,2.13,2.13,0,0,1-3.48,2.05,8.24,8.24,0,0,0-5.13-2.06,7.9,7.9,0,0,0-2.24.19l-53.15,12A1.89,1.89,0,0,1,437.15,496.4Z" transform="translate(-64.02 -120.54)"/><path class="cls-6" d="M562.85,1161.24H407.57a2.13,2.13,0,0,1-2.09-2.5L433,1005.44l-73.3-178.11L356,848.5l-53.45,311a2.12,2.12,0,0,1-2.09,1.76H145.2a2.17,2.17,0,0,1-1.63-.75,2.13,2.13,0,0,1-.46-1.73l70.15-408.08v-24a2.12,2.12,0,0,1,3.22-1.81c14.72,8.91,52.08,23.85,136.92,23.85,84.07,0,117.92-14.7,130.62-23.46a2.13,2.13,0,0,1,3.33,1.75v22.39a2.1,2.1,0,0,1,.4.64L573.83,960a169,169,0,0,1,10,94.15l-18.89,105.38A2.12,2.12,0,0,1,562.85,1161.24ZM410.11,1157h151l18.58-103.64a164.76,164.76,0,0,0-9.76-91.79h0L484.27,752.76a2.13,2.13,0,0,1-1.17-1.9v-20C467.83,740,432.23,753,353.4,753c-80.33,0-118.89-13.41-135.9-22.62v20.5a2.19,2.19,0,0,1,0,.36L147.72,1157h151l58-337.66a2.13,2.13,0,0,1,4.06-.45l76.54,186a2.13,2.13,0,0,1-.34,2.18Z" transform="translate(-64.02 -120.54)"/><path class="cls-6" d="M527.36,525.49a2.13,2.13,0,0,1-1.09-.3A61.87,61.87,0,0,1,502.77,500c-.61-1.19-1.17-2.38-1.69-3.57a2.09,2.09,0,0,1-.18-.85,1.93,1.93,0,0,1,.07-.53,8.06,8.06,0,0,0,0-3.72l-.13-.6a8.23,8.23,0,0,0-2.68-4.44h0a2.14,2.14,0,0,1-.72-1.18h0a61,61,0,0,1-.41-24.12,2.12,2.12,0,0,1,4-.5l28.21,62a2.13,2.13,0,0,1-.52,2.46A2.09,2.09,0,0,1,527.36,525.49Zm-22.12-30.14c.41.9.84,1.82,1.31,2.73a57.64,57.64,0,0,0,15.71,19.2l-21.89-48.11a57.05,57.05,0,0,0,1.11,14.38A12.38,12.38,0,0,1,505,489.8l.13.6A12,12,0,0,1,505.24,495.35Zm-3.57-10.7h0Z" transform="translate(-64.02 -120.54)"/><path class="cls-6" d="M353.4,753c-85.87,0-124-15.32-139.12-24.46-7-4.24-9.54-7.4-9.64-7.54a2.09,2.09,0,0,1-.42-1.67l13.14-75.6A2.14,2.14,0,0,1,219,642l182.2-41-2.42-10.74a2.12,2.12,0,0,1,.46-1.86,2.17,2.17,0,0,1,1.76-.73,34.89,34.89,0,0,0,10.26-.76l81.37-18.32a2.11,2.11,0,0,1,2.59,2.07v149a2.07,2.07,0,0,1-.25,1c-.2.36-2.11,3.69-8.52,8.1C473.33,737.82,438.63,753,353.4,753ZM208.58,719a42.17,42.17,0,0,0,7.9,5.88c14.72,8.91,52.08,23.85,136.92,23.85,84.07,0,117.92-14.7,130.62-23.46A28.28,28.28,0,0,0,491,719V573.27L412.17,591a36.19,36.19,0,0,1-8.67,1l2.29,10.13a2.06,2.06,0,0,1-.28,1.6,2.12,2.12,0,0,1-1.32.94L221.3,645.83Z" transform="translate(-64.02 -120.54)"/><path class="cls-6" d="M337.15,293.41a2,2,0,0,1-.42,0,2.12,2.12,0,0,1-1.62-1.49,24,24,0,0,0-26.7-17,2.13,2.13,0,0,1-2.44-2.13l.59-38.35a38.5,38.5,0,0,1,31.33-37.11l.62-.12,67.56-12.62L415.85,169a2.14,2.14,0,0,1,2.59-.84c6.83,2.75,10.78,11.48,12.64,16.43,2.17-2.46,6.13-6.86,13.45-14.88a2.12,2.12,0,0,1,2.86-.26c9.94,7.66,15.63,17,16.92,27.82,2.49,20.88-12.3,39.55-12.93,40.33a2.12,2.12,0,0,1-1.65.79H352c-.44,37.89-12.68,53.57-13.21,54.23A2.11,2.11,0,0,1,337.15,293.41Zm-25.07-23.05a28.24,28.24,0,0,1,25.53,16.18c3.52-6.46,10.17-22.36,10.17-50.27a2.12,2.12,0,0,1,2.12-2.12h98.77c2.69-3.68,13.44-19.59,11.42-36.41-1.09-9.05-5.71-17-13.77-23.7-5.55,6.1-13.31,14.68-14.16,15.78a2.34,2.34,0,0,1-1.85,1c-1.53,0-1.94-1.21-2.42-2.58-1.07-3.08-4.15-11.92-9.48-15.34l-9.24,14.7a2.1,2.1,0,0,1-1.4.95l-69.12,12.91a34.25,34.25,0,0,0-27.85,33l-.55,35.94C310.87,270.38,311.47,270.36,312.08,270.36Zm118.27-81.65h0Z" transform="translate(-64.02 -120.54)"/><path class="cls-6" d="M370.66,418.9c-33.61,0-53.46-18.15-54.29-18.92a2.11,2.11,0,0,1-.67-1.55V326.61a29.2,29.2,0,0,1-3.62.23,28.24,28.24,0,1,1,25.53-40.3c3.52-6.46,10.17-22.36,10.17-50.27a2.12,2.12,0,0,1,2.12-2.12h99.83a2.12,2.12,0,0,1,2.12,2.12v89.86A51.24,51.24,0,0,1,408,376.63a49.32,49.32,0,0,1-7.17.53H376l40,19.36a2.12,2.12,0,0,1,.89,3C416.37,400.32,404.65,418.9,370.66,418.9Zm-50.72-21.44c3.69,3.07,22.17,17.19,50.72,17.19,25.28,0,37.27-10.95,41.12-15.44l-46-22.27a2.12,2.12,0,0,1,.92-4h34.11a45.38,45.38,0,0,0,6.57-.48,47,47,0,0,0,40.21-46.3V238.39H352c-.44,37.89-12.68,53.57-13.21,54.23a2.12,2.12,0,0,1-3.69-.74,24,24,0,1,0-23,30.71,24.54,24.54,0,0,0,5.28-.57,2.11,2.11,0,0,1,2.58,2.07Z" transform="translate(-64.02 -120.54)"/><path class="cls-6" d="M384.72,520.31a2,2,0,0,1-.89-.2,2.11,2.11,0,0,1-1.18-1.45l-4.06-18-83.52,18.82a2.12,2.12,0,0,1-2.4-3l18.45-40.57A2.13,2.13,0,0,1,315,477.7L298.3,514.38,379.73,496a2.11,2.11,0,0,1,2.53,1.61l3.84,17a10.9,10.9,0,0,0,1.59-1.8L406,487a17.37,17.37,0,0,0,2.75-13.81L403,447.69a5.11,5.11,0,0,1,3.8-6.06A20,20,0,0,1,421.29,444a139.46,139.46,0,0,1,16.17-42.42,65.31,65.31,0,0,0-11.34-1h-10c-3,4-15.65,18.35-45.49,18.35-30.7,0-49.91-15.14-53.64-18.35H273.27a63.54,63.54,0,0,0-28,6.42,2.12,2.12,0,1,1-1.86-3.81,67.69,67.69,0,0,1,29.87-6.85h44.55a2.16,2.16,0,0,1,1.45.56c.19.18,19.52,17.78,51.39,17.78,31.63,0,42.46-17.15,42.57-17.33a2.11,2.11,0,0,1,1.81-1h11.08A69.08,69.08,0,0,1,441.29,398a2.12,2.12,0,0,1,1.3,3.25c-.15.23-.29.47-.43.7l-.24.4A135.5,135.5,0,0,0,424.83,448a2.12,2.12,0,0,1-3.49,1.22,15.44,15.44,0,0,0-10.2-3.87,15.1,15.1,0,0,0-3.41.38.85.85,0,0,0-.63,1l5.74,25.47a21.63,21.63,0,0,1-3.43,17.19L391.16,515.3a15.33,15.33,0,0,1-5.46,4.78A2.24,2.24,0,0,1,384.72,520.31Z" transform="translate(-64.02 -120.54)"/><path class="cls-6" d="M415,400.55a2.18,2.18,0,0,1-.93-.21l-48.31-23.4a2.12,2.12,0,0,1,.92-4h34.11a45.38,45.38,0,0,0,6.57-.48,2.12,2.12,0,0,1,2.33,1.48l7.34,23.9a2.14,2.14,0,0,1-.65,2.23A2.11,2.11,0,0,1,415,400.55ZM376,377.16l35.6,17.24-5.38-17.54a48.46,48.46,0,0,1-5.37.3Z" transform="translate(-64.02 -120.54)"/><path class="cls-6" d="M202.24,648.72a56,56,0,0,1-54.33-43.42,55,55,0,0,1-1.35-12.2A73,73,0,0,1,152,567.18l61.66-135.57a55,55,0,0,1,2.83-5.41l.06-.11h0a55.79,55.79,0,0,1,27-23,2.18,2.18,0,0,1,2.93,2,2.13,2.13,0,0,1-1.5,2,51.57,51.57,0,0,0-24.71,21.09.75.75,0,0,1-.07.12,50,50,0,0,0-2.65,5.05L155.85,568.93a50.55,50.55,0,0,0-4.15,14.72,49.89,49.89,0,0,0-.9,9.45,50.87,50.87,0,0,0,1.25,11.26,51.67,51.67,0,0,0,54.1,40,49.43,49.43,0,0,0,7.36-1.09L401.18,601,378.59,500.64l-83.52,18.82a2.12,2.12,0,0,1-2.4-3l18.45-40.57A2.13,2.13,0,0,1,315,477.7L298.3,514.38,379.73,496a2.11,2.11,0,0,1,2.53,1.61L405.79,602.1a2.06,2.06,0,0,1-.28,1.6,2.12,2.12,0,0,1-1.32.94L214.43,647.38a54,54,0,0,1-8,1.18C205,648.67,203.64,648.72,202.24,648.72Z" transform="translate(-64.02 -120.54)"/><path class="cls-6" d="M465.25,511.76a2.12,2.12,0,0,1-.42-4.2l24.85-5.05a2.12,2.12,0,0,1,.84,4.16l-24.85,5.05A2,2,0,0,1,465.25,511.76Z" transform="translate(-64.02 -120.54)"/><path class="cls-6" d="M471.9,531.73a2.12,2.12,0,0,1-.33-4.22l19.35-3a2.13,2.13,0,1,1,.66,4.2l-19.35,3Z" transform="translate(-64.02 -120.54)"/><path class="cls-6" d="M473.72,554.11a2.12,2.12,0,0,1-.38-4.21L489.66,547a2.12,2.12,0,0,1,.75,4.18l-16.32,2.94A2.31,2.31,0,0,1,473.72,554.11Z" transform="translate(-64.02 -120.54)"/><path class="cls-6" d="M531.19,637.7a2.13,2.13,0,0,1-2-1.36L519,609.55a2.12,2.12,0,1,1,4-1.52l10.25,26.79a2.11,2.11,0,0,1-1.22,2.74A2,2,0,0,1,531.19,637.7Z" transform="translate(-64.02 -120.54)"/><path class="cls-6" d="M550.35,631.38a2.13,2.13,0,0,1-2-1.43l-14.57-42.56a2.12,2.12,0,1,1,4-1.37l14.57,42.55a2.13,2.13,0,0,1-1.32,2.7A2.07,2.07,0,0,1,550.35,631.38Z" transform="translate(-64.02 -120.54)"/><path class="cls-6" d="M571.12,624.31a2.13,2.13,0,0,1-2-1.44L554.69,580.6a2.12,2.12,0,1,1,4-1.37l14.43,42.27a2.13,2.13,0,0,1-1.32,2.7A2.37,2.37,0,0,1,571.12,624.31Z" transform="translate(-64.02 -120.54)"/><path class="cls-6" d="M589.67,617.54a2.13,2.13,0,0,1-2-1.55l-10.08-36a2.12,2.12,0,1,1,4.08-1.14l10.09,36a2.12,2.12,0,0,1-1.47,2.62A2.32,2.32,0,0,1,589.67,617.54Z" transform="translate(-64.02 -120.54)"/><path class="cls-6" d="M508.15,358.19a2.12,2.12,0,0,1-.93-4l85.41-41.95A2.12,2.12,0,1,1,594.5,316l-85.41,42A2.22,2.22,0,0,1,508.15,358.19Z" transform="translate(-64.02 -120.54)"/><path class="cls-6" d="M227.13,534.71a2.13,2.13,0,0,1-.46-4.2l67.46-15.19a2.12,2.12,0,1,1,.94,4.14L227.6,534.65A2,2,0,0,1,227.13,534.71Z" transform="translate(-64.02 -120.54)"/><circle class="cls-6" cx="317.13" cy="161.04" r="9.4"/><circle class="cls-6" cx="367.02" cy="161.04" r="9.4"/><path class="cls-6" d="M433.76,253.19c-2.82-.23-6.35-.59-8.71-.92-3.36-.46-7.17.82-8,4.56-.7,3.08.94,7.54,4.56,8,4.05.56,8.1,1,12.18,1.38,3.41.29,6.68-3.2,6.53-6.53A6.71,6.71,0,0,0,433.76,253.19Z" transform="translate(-64.02 -120.54)"/><path class="cls-6" d="M383,254.22c-2.81.19-6.37.37-8.74.41-3.4.05-7,1.89-7.25,5.72-.23,3.14,2.07,7.3,5.72,7.25,4.09-.06,8.17-.19,12.25-.47,3.42-.24,6.11-4.18,5.46-7.45A6.68,6.68,0,0,0,383,254.22Z" transform="translate(-64.02 -120.54)"/><path class="cls-6" d="M403.66,309.84a2.12,2.12,0,0,1-.72-4.12l13.75-4.92-11-21.14a2.12,2.12,0,1,1,3.76-2l12.1,23.3a2.12,2.12,0,0,1,.1,1.76,2.16,2.16,0,0,1-1.26,1.22l-16,5.74A2.21,2.21,0,0,1,403.66,309.84Z" transform="translate(-64.02 -120.54)"/><path class="cls-6" d="M404.17,325.66c-18.11,0-21.74-13.8-21.78-14a2.12,2.12,0,0,1,4.12-1c.13.53,3.45,12.53,21.6,10.51a2.12,2.12,0,0,1,.47,4.22A40.75,40.75,0,0,1,404.17,325.66Z" transform="translate(-64.02 -120.54)"/><path class="cls-6" d="M312.89,315.14h-.1a2.13,2.13,0,0,1-2-2.22c.87-18.38-10.57-27.34-11.06-27.71a2.12,2.12,0,0,1,2.56-3.38c.56.42,13.72,10.59,12.74,31.29A2.12,2.12,0,0,1,312.89,315.14Z" transform="translate(-64.02 -120.54)"/><path class="cls-6" d="M406.42,362.18l-.29,0a2.11,2.11,0,0,1-1.82-2.38l1.93-14.67a2.12,2.12,0,1,1,4.21.55l-1.93,14.67A2.13,2.13,0,0,1,406.42,362.18Z" transform="translate(-64.02 -120.54)"/><polyline class="cls-11" points="98.73 1028.88 169.52 642.89 169.52 622.33"/><line class="cls-11" x1="298.99" y1="700.57" x2="389.74" y2="672.34"/></g><path class="cls-6" d="M1012,797.16h-2.45a2.13,2.13,0,0,1,0-4.25H1012a2.13,2.13,0,0,1,0,4.25Zm17-.52a2.12,2.12,0,0,1-.21-4.23,101.79,101.79,0,0,0,16.33-3,2.12,2.12,0,0,1,1.11,4.09,104.68,104.68,0,0,1-17,3.13Zm32.61-8.84a2.12,2.12,0,0,1-.89-4,100.35,100.35,0,0,0,14.46-8.15,2.13,2.13,0,0,1,2.39,3.52,106.37,106.37,0,0,1-15.07,8.49A2.16,2.16,0,0,1,1061.54,787.8Zm28-18.94a2.12,2.12,0,0,1-1.46-3.66,101.46,101.46,0,0,0,11.07-12.38,2.12,2.12,0,0,1,3.39,2.56,106.88,106.88,0,0,1-11.54,12.9A2.14,2.14,0,0,1,1089.51,768.86Zm20.39-27a2.22,2.22,0,0,1-1-.24,2.14,2.14,0,0,1-.89-2.87,100.13,100.13,0,0,0,6.47-15.29,2.13,2.13,0,1,1,4,1.32,105.35,105.35,0,0,1-6.75,15.95A2.12,2.12,0,0,1,1109.9,741.9Zm10.55-32.11-.32,0a2.12,2.12,0,0,1-1.78-2.42,102.48,102.48,0,0,0,1.16-15.37v-1.19a2.12,2.12,0,0,1,2.1-2.15h0a2.13,2.13,0,0,1,2.13,2.09V692a105.75,105.75,0,0,1-1.21,16A2.12,2.12,0,0,1,1120.45,709.79Zm-.4-33.78a2.13,2.13,0,0,1-2.09-1.76,100.88,100.88,0,0,0-4.24-16,2.12,2.12,0,1,1,4-1.42,105.94,105.94,0,0,1,4.42,16.73,2.12,2.12,0,0,1-1.72,2.46A2.46,2.46,0,0,1,1120.05,676Zm-11.3-31.84a2.14,2.14,0,0,1-1.86-1.09,100.9,100.9,0,0,0-9.22-13.81,2.12,2.12,0,0,1,3.33-2.64,105.33,105.33,0,0,1,9.6,14.39,2.12,2.12,0,0,1-.82,2.88A2.14,2.14,0,0,1,1108.75,644.17Zm-21-26.46a2.13,2.13,0,0,1-1.42-.55,101.48,101.48,0,0,0-13.18-10.11,2.12,2.12,0,0,1,2.29-3.57A105.54,105.54,0,0,1,1089.17,614a2.13,2.13,0,0,1-1.43,3.7Zm-28.42-18.3a2.07,2.07,0,0,1-.84-.17,100.51,100.51,0,0,0-15.75-5.29,2.12,2.12,0,0,1,1-4.12,104.19,104.19,0,0,1,16.42,5.51,2.12,2.12,0,0,1-.84,4.07Zm-32.82-8.06h-.16c-2.58-.19-5.19-.29-7.77-.29h-9a2.13,2.13,0,0,1,0-4.25h9c2.69,0,5.41.1,8.09.31a2.12,2.12,0,0,1-.16,4.24Z" transform="translate(-64.02 -120.54)"/><path class="cls-6" d="M521.27,229a2.12,2.12,0,0,1-2.13-2.12V201.42a2.13,2.13,0,0,1,4.25,0v25.43A2.12,2.12,0,0,1,521.27,229Z" transform="translate(-64.02 -120.54)"/><path class="cls-6" d="M534,216.26H508.55a2.13,2.13,0,0,1,0-4.25H534a2.13,2.13,0,0,1,0,4.25Z" transform="translate(-64.02 -120.54)"/><path class="cls-6" d="M517.77,142.15c-10.92,0-10.94,17,0,17S528.71,142.15,517.77,142.15Z" transform="translate(-64.02 -120.54)"/><path class="cls-6" d="M563.39,168c-18.2,0-18.23,28.3,0,28.3S581.63,168,563.39,168Z" transform="translate(-64.02 -120.54)"/></g></svg>