<svg id="Camada_1" data-name="Camada 1" xmlns="http://www.w3.org/2000/svg" viewBox="0 0 955.46 242.25"><defs><style>.cls-1{fill:#ffd70f;}.cls-2{fill:#1a346f;}</style></defs><rect class="cls-1" x="234.59" y="98.07" width="183.55" height="46.51" rx="6.83"/><rect class="cls-2" x="234.59" y="0.41" width="183.55" height="46.51" rx="6.83"/><rect class="cls-2" x="234.59" y="195.73" width="183.55" height="46.51" rx="6.83"/><path class="cls-1" d="M482.08,192.29v70.88A6.82,6.82,0,0,0,488.9,270h37.63a6.82,6.82,0,0,0,6.82-6.89l-.64-70.88a6.83,6.83,0,0,0-6.83-6.77h-37A6.82,6.82,0,0,0,482.08,192.29Z" transform="translate(-26.11 -27.75)"/><path class="cls-2" d="M527.8,28.17H488.9A6.82,6.82,0,0,0,482.08,35V45.11a6.77,6.77,0,0,0,1.46,4.21L592.93,188.46a6.86,6.86,0,0,0,5.37,2.6h9.1a6.84,6.84,0,0,0,5.46-2.72l45.72-60.77a6.82,6.82,0,0,1,12.28,4l1.44,131.65a6.84,6.84,0,0,0,6.83,6.75H714a6.82,6.82,0,0,0,6.82-6.83V35A6.82,6.82,0,0,0,714,28.17H675.82a6.82,6.82,0,0,0-5.49,2.76l-61,82.33a6.83,6.83,0,0,1-10.84.17L533.15,30.76A6.81,6.81,0,0,0,527.8,28.17Z" transform="translate(-26.11 -27.75)"/><rect class="cls-1" x="744.99" y="0.41" width="48.93" height="83.38" rx="6.83"/><path class="cls-2" d="M771.1,262.51V166.25a6.86,6.86,0,0,1,2.18-5L914.76,30a6.82,6.82,0,0,1,4.64-1.82h38.32a6.82,6.82,0,0,1,6.3,4.2l2.43,5.83a6.81,6.81,0,0,1-1.11,7l-68,79.64a6.82,6.82,0,0,0-.39,8.35l83.34,118.59a6.81,6.81,0,0,1,1.24,3.92v6.65a6.83,6.83,0,0,1-6.83,6.83H936.13a6.84,6.84,0,0,1-5.62-3l-73-105.91a6.82,6.82,0,0,0-10.69-.69l-25.09,27.9a6.84,6.84,0,0,0-1.74,4.56v70.94a6.83,6.83,0,0,1-6.94,6.82l-35.27-.56A6.81,6.81,0,0,1,771.1,262.51Z" transform="translate(-26.11 -27.75)"/><path class="cls-2" d="M163.14,28.34,33,27.75a6.84,6.84,0,0,0-6.86,6.83V67.47a6.82,6.82,0,0,0,6.83,6.82H151.38a6.85,6.85,0,0,1,4.11,1.38c6.63,5,26.13,22.94,0,46.88a6.85,6.85,0,0,1-4.6,1.78h-118a6.82,6.82,0,0,0-6.83,6.82v34.78a6.83,6.83,0,0,0,6.9,6.82l124.54-1.25a6.71,6.71,0,0,1,4,1.26c7.69,5.49,34.4,27.59-.25,48.54a6.78,6.78,0,0,1-3.45,1l-125,1.44a6.83,6.83,0,0,0-6.75,6.82V263a6.83,6.83,0,0,0,6.83,6.82H165.15a6.24,6.24,0,0,0,1-.07c5.79-.84,34.51-6,51.28-32.64,3.68-5.86,14.77-25.44,9.43-50.71A68.73,68.73,0,0,0,204,148.56a6.77,6.77,0,0,1-.89-9.38,59.78,59.78,0,0,0,12.9-28.71,56.23,56.23,0,0,0,.41-12.84l0-.48a70.57,70.57,0,0,0-51.5-68.56Z" transform="translate(-26.11 -27.75)"/></svg>