<svg id="Camada_1" data-name="Camada 1" xmlns="http://www.w3.org/2000/svg" xmlns:xlink="http://www.w3.org/1999/xlink" viewBox="0 0 310.57 310.57"><defs><style>.cls-1,.cls-11,.cls-9{fill:none;}.cls-2{clip-path:url(#clip-path);}.cls-3{clip-path:url(#clip-path-3);}.cls-4{clip-path:url(#clip-path-4);}.cls-5{fill:#07221b;}.cls-6{clip-path:url(#clip-path-7);}.cls-7{clip-path:url(#clip-path-8);}.cls-8{clip-path:url(#clip-path-9);}.cls-9{stroke:#07221b;}.cls-11,.cls-9{stroke-width:1.5px;}.cls-10{font-size:41.48px;}.cls-10,.cls-12{fill:#fcf9da;font-family:CormorantSC-Bold, Cormorant SC;font-weight:700;}.cls-11{stroke:#fcf9da;}.cls-12{font-size:22px;}.cls-13{opacity:0;}</style><clipPath id="clip-path" transform="translate(-32.59 -24.17)"><rect class="cls-1" y="-8.04" width="375" height="375"/></clipPath><clipPath id="clip-path-3" transform="translate(-32.59 -24.17)"><rect class="cls-1" x="33.34" y="24.92" width="309.08" height="309.08"/></clipPath><clipPath id="clip-path-4" transform="translate(-32.59 -24.17)"><circle class="cls-1" cx="187.87" cy="179.46" r="154.54"/></clipPath><clipPath id="clip-path-7" transform="translate(-32.59 -24.17)"><rect class="cls-1" x="33.34" y="24.92" width="309" height="309"/></clipPath><clipPath id="clip-path-8" transform="translate(-32.59 -24.17)"><rect class="cls-1" x="33.34" y="24.92" width="309.07" height="309.07"/></clipPath><clipPath id="clip-path-9" transform="translate(-32.59 -24.17)"><circle class="cls-1" cx="187.87" cy="179.46" r="154.54"/></clipPath></defs><g class="cls-2"><g class="cls-2"><g class="cls-3"><g class="cls-4"><rect class="cls-5" x="0.75" y="0.75" width="309.08" height="309.08"/></g></g></g></g><g class="cls-2"><g class="cls-2"><g class="cls-6"><g class="cls-7"><g class="cls-8"><circle class="cls-9" cx="155.29" cy="155.29" r="154.54"/></g></g></g></g></g><g class="cls-2"><text class="cls-10" transform="translate(26.27 159.14)">F</text><text class="cls-10" transform="translate(47.92 159.14)">e</text><text class="cls-10" transform="translate(67.17 159.14)">r</text><text class="cls-10" transform="translate(89.85 159.14)">r</text><text class="cls-10" transform="translate(112.54 159.14)">e</text><text class="cls-10" transform="translate(131.78 159.14)">i</text><text class="cls-10" transform="translate(144.35 159.14)">r</text><text class="cls-10" transform="translate(167.03 159.14)">a</text><text class="cls-10" transform="translate(190.09 159.14)"> </text><text class="cls-10" transform="translate(199.8 159.14)">L</text><text class="cls-10" transform="translate(222.4 159.14)">i</text><text class="cls-10" transform="translate(234.96 159.14)">m</text><text class="cls-10" transform="translate(263.37 159.14)">a</text><line class="cls-11" x1="26.27" y1="165.31" x2="288.71" y2="165.31"/><text class="cls-12" transform="translate(100.04 190.29)">A</text><text class="cls-12" transform="translate(115.79 190.29)">d</text><text class="cls-12" transform="translate(128.26 190.29)">v</text><text class="cls-12" transform="translate(139.48 190.29)">o</text><text class="cls-12" transform="translate(151.95 190.29)">g</text><text class="cls-12" transform="translate(164.07 190.29)">a</text><text class="cls-12" transform="translate(176.3 190.29)">d</text><text class="cls-12" transform="translate(188.77 190.29)">o</text><text class="cls-12" transform="translate(201.24 190.29)">s</text></g><rect class="cls-13" x="0.75" y="0.75" width="309.08" height="309.08"/><rect class="cls-13" x="26.27" y="164.56" width="262.43" height="1.5"/></svg>