<svg id="Camada_1" data-name="Camada 1" xmlns="http://www.w3.org/2000/svg" viewBox="0 0 149.15 52.89"><defs><style>.cls-1{fill:#0070a8;}.cls-2{fill:#5a6778;}.cls-3{fill:none;stroke:#000;stroke-miterlimit:10;stroke-width:0.28px;}</style></defs><path class="cls-1" d="M31.93,25.61l-3.73,16a.11.11,0,0,0,.11.14h.41a.11.11,0,0,0,.11-.09l3.74-16a.12.12,0,0,0-.12-.15h-.4A.13.13,0,0,0,31.93,25.61Z" transform="translate(-0.41 -1.52)"/><path class="cls-2" d="M17.71,1.52H53.1a.32.32,0,0,1,.31.32V54.1a.32.32,0,0,1-.31.32H.84a.32.32,0,0,1-.32-.32v-46a.32.32,0,0,1,.32-.32h.23a.32.32,0,0,1,.32.32l-.11,45.1a.32.32,0,0,0,.32.32L52,53.76a.31.31,0,0,0,.32-.31l.11-50.74a.32.32,0,0,0-.32-.32L17.69,2.28a.32.32,0,0,1-.32-.36l0-.12A.32.32,0,0,1,17.71,1.52Z" transform="translate(-0.41 -1.52)"/><path class="cls-1" d="M.49,1.52h11a.09.09,0,0,1,.07.06q1.85,8,4.16,16.45c2,7.29,4.13,14.23,6.32,20.81h0c.15.35,2.47,5.42,7.77,6.18a9.53,9.53,0,0,0,7-1.81,9.33,9.33,0,0,0,3.33-5.09,28.45,28.45,0,0,0,.38-5.66c-.19-2.31-2.25-5.75-2.25-5.75s-2.08-3.38-5.41-4.12a9.47,9.47,0,0,0-8,1.28l-.05-.35s0,0,0-.06a10,10,0,0,1,3.33-2.3,11.07,11.07,0,0,1,8.43.21h0a13.72,13.72,0,0,1,5.72,5.52A16.15,16.15,0,0,1,44,33a22.36,22.36,0,0,1,0,5.36A14.25,14.25,0,0,1,33.07,49.81a14.18,14.18,0,0,1-9.65-1.25C19.1,46.2,17.39,42,16,38.37a40,40,0,0,1-1.48-4.87C13,28.31,11.53,23.14,10.06,18,9.23,15,8,10.75,6.35,5.49v0a6.17,6.17,0,0,0-1.55-1.7A6.41,6.41,0,0,0,1.88,2.55L.48,2.4a.08.08,0,0,1-.07-.07V1.6A.09.09,0,0,1,.49,1.52Z" transform="translate(-0.41 -1.52)"/><path class="cls-3" d="M41.84,8" transform="translate(-0.41 -1.52)"/><path class="cls-3" d="M41.47,9.49" transform="translate(-0.41 -1.52)"/><path class="cls-1" d="M33.34,7.62h6.79a.21.21,0,0,1,.21.22v.43a.21.21,0,0,1-.21.22H38.86a.2.2,0,0,0-.11,0,6.27,6.27,0,0,0-2.65,3.21c-.49,1.76-1.24,5.39-1.41,6.22a.21.21,0,0,1-.21.17h-.62a.22.22,0,0,1-.21-.25L35,9.53V9.45c0-.19-.3-.92-1.7-1.2A.22.22,0,0,1,33.12,8v-.2A.22.22,0,0,1,33.34,7.62Z" transform="translate(-0.41 -1.52)"/><path class="cls-2" d="M57.48,2.59H65a5.22,5.22,0,0,1,3.4,1A3.06,3.06,0,0,1,69.58,6a2.88,2.88,0,0,1-.83,2.08,5.46,5.46,0,0,1-2.47,1.36,6.6,6.6,0,0,1,3.07,1.35,3,3,0,0,1,1,2.34,3.28,3.28,0,0,1-.58,1.9,4.5,4.5,0,0,1-1.94,1.41,7.82,7.82,0,0,1-3.07.58h-7.3V16.3h1.19a1.43,1.43,0,0,0,.78-.17.49.49,0,0,0,.25-.4V4.15a.78.78,0,0,0-.24-.62,1.06,1.06,0,0,0-.71-.21H57.48Zm4.31,6.63h2.74a2.67,2.67,0,0,0,2-.74,3.3,3.3,0,0,0,.75-2.43,3.09,3.09,0,0,0-.36-1.62,2,2,0,0,0-1-.86,7.09,7.09,0,0,0-2.35-.27,3.43,3.43,0,0,0-1.46.18.64.64,0,0,0-.29.6Zm0,.74v5.56a.75.75,0,0,0,.23.59,1.31,1.31,0,0,0,.83.19h1.74a3.69,3.69,0,0,0,2.57-.76A3.08,3.08,0,0,0,68,13.15a3.13,3.13,0,0,0-.86-2.34A3.2,3.2,0,0,0,64.76,10Z" transform="translate(-0.41 -1.52)"/><path class="cls-2" d="M72.68,2.59h7.46a5.1,5.1,0,0,1,3.36,1,3.19,3.19,0,0,1,1.2,2.59,3.17,3.17,0,0,1-.47,1.7,3.27,3.27,0,0,1-1.37,1.19,8.57,8.57,0,0,1-2.81.64,6.79,6.79,0,0,1,1.92.75,2.66,2.66,0,0,1,.84,1,10,10,0,0,1,.73,2.36,5.43,5.43,0,0,0,.63,1.75.71.71,0,0,0,.55.36c.2,0,.39-.15.56-.44a3.67,3.67,0,0,0,.32-1.57h.66c-.12,2.22-.94,3.32-2.45,3.32a2.12,2.12,0,0,1-1.23-.36,2.22,2.22,0,0,1-.79-1.06A15.42,15.42,0,0,1,81.33,13a5.13,5.13,0,0,0-.46-1.84,2.2,2.2,0,0,0-1-.88,3.64,3.64,0,0,0-1.61-.33H77.08v5.67a.63.63,0,0,0,.19.51,1.21,1.21,0,0,0,.73.18h1.39V17H72.68V16.3H74.1a1,1,0,0,0,.68-.18.64.64,0,0,0,.22-.51V4.07a.68.68,0,0,0-.22-.56,1.08,1.08,0,0,0-.68-.19H72.68Zm4.4,6.64h1.71a4.72,4.72,0,0,0,2.69-.65,2.56,2.56,0,0,0,1-2.3,3.84,3.84,0,0,0-.37-1.81,2,2,0,0,0-1-.9,7.35,7.35,0,0,0-2.35-.25,3.53,3.53,0,0,0-1.42.17.59.59,0,0,0-.28.55Z" transform="translate(-0.41 -1.52)"/><path class="cls-2" d="M88.35,2.59H95v.73H93.68a1.21,1.21,0,0,0-.75.18.67.67,0,0,0-.21.54v8.15a6.4,6.4,0,0,0,.22,1.94,3,3,0,0,0,1.22,1.54,4.94,4.94,0,0,0,5.31-.45,3.66,3.66,0,0,0,1-2.73V5.86a5.56,5.56,0,0,0-.12-1.33,1.75,1.75,0,0,0-.35-.71,1.41,1.41,0,0,0-.58-.37,4,4,0,0,0-1.18-.13V2.59h5.46v.73h-.39a1.77,1.77,0,0,0-1.37.5,2.09,2.09,0,0,0-.44,1.43v7.1a4.65,4.65,0,0,1-1.33,3.56,5.6,5.6,0,0,1-4,1.4,7.68,7.68,0,0,1-3.38-.61A3.78,3.78,0,0,1,91.06,15a5,5,0,0,1-.42-2.19V4a.67.67,0,0,0-.23-.53,1.09,1.09,0,0,0-.69-.19H88.35Z" transform="translate(-0.41 -1.52)"/><path class="cls-2" d="M114.56,3.69l.88-1.26h.71l.06,5.26h-.64a7.26,7.26,0,0,0-1.79-3.54A3.89,3.89,0,0,0,111.05,3a3,3,0,0,0-2.11.77,2.5,2.5,0,0,0-.82,1.89,2.33,2.33,0,0,0,.31,1.22,2.33,2.33,0,0,0,.93.85,10,10,0,0,0,2.34.69,13.39,13.39,0,0,1,3.38,1.07,3.68,3.68,0,0,1,1.46,1.35,3.78,3.78,0,0,1,.47,1.91A4.3,4.3,0,0,1,115.7,16a4.65,4.65,0,0,1-3.39,1.29,5.69,5.69,0,0,1-3.89-1.45l-1.1,1.35h-.71V11.62h.71a6.33,6.33,0,0,0,1.83,3.65,4.59,4.59,0,0,0,3.22,1.34,3.29,3.29,0,0,0,2.35-.86,2.73,2.73,0,0,0,.92-2.07,2.16,2.16,0,0,0-.35-1.22,2.5,2.5,0,0,0-1.08-.88,17,17,0,0,0-2.92-.86A8.8,8.8,0,0,1,108,9.45a3.43,3.43,0,0,1-1.22-2.82A4.26,4.26,0,0,1,108,3.5a4.21,4.21,0,0,1,3.11-1.21,4.75,4.75,0,0,1,1.73.32A5.93,5.93,0,0,1,114.56,3.69Z" transform="translate(-0.41 -1.52)"/><path class="cls-2" d="M119.92,2.59h6.6v.73h-1.4a1,1,0,0,0-.7.24.78.78,0,0,0-.24.59v6.71l5.44-5.81a1.47,1.47,0,0,0,.47-1,.65.65,0,0,0-.32-.56,2,2,0,0,0-1.06-.22h-.4V2.59h5.93v.73h-.46a3,3,0,0,0-1.31.36,5,5,0,0,0-1.32,1l-3.34,3.5,4.79,7.06a2.55,2.55,0,0,0,.83.84,1.92,1.92,0,0,0,1,.25H135V17h-6.51V16.3h.74a2.84,2.84,0,0,0,1.08-.13.4.4,0,0,0,.27-.35.7.7,0,0,0-.12-.37l-4-5.85L124.18,12v3.55a.6.6,0,0,0,.2.49,1.21,1.21,0,0,0,.74.23h1.4V17h-6.6V16.3h1.27a1,1,0,0,0,.72-.2.64.64,0,0,0,.24-.52V4.05a.63.63,0,0,0-.27-.54,1.59,1.59,0,0,0-.88-.19h-1.08Z" transform="translate(-0.41 -1.52)"/><path class="cls-2" d="M137.18,2.59h11.44l.28,4.87h-.66A6.45,6.45,0,0,0,147,4.24a2.86,2.86,0,0,0-2.2-.92H142a.7.7,0,0,0-.52.19.83.83,0,0,0-.17.57V9.22h1.24a2,2,0,0,0,1.61-.71,3.46,3.46,0,0,0,.66-2.19h.68V13h-.68a3.77,3.77,0,0,0-.67-2.38,2.18,2.18,0,0,0-1.71-.71h-1.13v5.74a.57.57,0,0,0,.21.48,1.15,1.15,0,0,0,.7.16h2.23q3.63,0,4.19-4.65h.71L149.08,17h-11.9V16.3h1a1.2,1.2,0,0,0,.81-.2.7.7,0,0,0,.24-.58V4.08a.71.71,0,0,0-.21-.57.94.94,0,0,0-.64-.19h-1.18Z" transform="translate(-0.41 -1.52)"/><path class="cls-2" d="M102.14,24.71c.84,1.44,1.49,2.48,1.94,3.14a24,24,0,0,0,1.47,1.93,5.53,5.53,0,0,0,1.53-3.08,1.05,1.05,0,0,0-.38-.85,1.79,1.79,0,0,0-1.15-.31H105v-.68h5.43v.68h-.41a2.12,2.12,0,0,0-.87.15,2,2,0,0,0-.63.48,5.43,5.43,0,0,0-.7,1.21,15.14,15.14,0,0,1-1.79,3,3.65,3.65,0,0,0,2.34,1.37,1.27,1.27,0,0,0,1-.48,3.17,3.17,0,0,0,.54-1.65h.61a4.25,4.25,0,0,1-.78,2.77,2.49,2.49,0,0,1-2,1,3.18,3.18,0,0,1-1.37-.34,7.77,7.77,0,0,1-1.69-1.24,8,8,0,0,1-2,1.24,5.43,5.43,0,0,1-1.9.34,4.16,4.16,0,0,1-3-1.18,3.9,3.9,0,0,1-1.21-2.91,4,4,0,0,1,.77-2.4,7.94,7.94,0,0,1,2.75-2.11,7.67,7.67,0,0,1-.92-3.17,3.11,3.11,0,0,1,1-2.34,3.37,3.37,0,0,1,2.45-1,3.19,3.19,0,0,1,2.19.71,2.41,2.41,0,0,1,.8,1.9,3.14,3.14,0,0,1-.76,2.05A7.66,7.66,0,0,1,102.14,24.71Zm-1.71.77c-1.38.76-2.06,1.67-2.06,2.74a4.5,4.5,0,0,0,1,2.58,2.84,2.84,0,0,0,2.4,1.36,4.09,4.09,0,0,0,2.49-1,25,25,0,0,1-1.7-2.24C102,28.19,101.32,27,100.43,25.48ZM101.76,24a4.78,4.78,0,0,0,1.94-1.31,2.72,2.72,0,0,0,.53-1.68,2.1,2.1,0,0,0-.49-1.45,1.57,1.57,0,0,0-1.23-.54,1.59,1.59,0,0,0-1.23.52,1.86,1.86,0,0,0-.49,1.36A7.07,7.07,0,0,0,101.76,24Z" transform="translate(-0.41 -1.52)"/><path class="cls-2" d="M56.82,34.59H62.9v.73h-1a1.76,1.76,0,0,0-.89.16.47.47,0,0,0-.24.42,1.59,1.59,0,0,0,.18.6l.08.2,3.8,9.68,3.37-9.24a2.1,2.1,0,0,0,.09-.66,1.11,1.11,0,0,0-.31-.85,1.21,1.21,0,0,0-.88-.31h-1v-.73H71.4v.73H71a1.44,1.44,0,0,0-1,.46,3.92,3.92,0,0,0-.88,1.52L64.66,49.38H64L58.84,36.47a2,2,0,0,0-.61-.9,1.64,1.64,0,0,0-.94-.25h-.47Z" transform="translate(-0.41 -1.52)"/><path class="cls-2" d="M73.34,34.59H84.78l.28,4.87H84.4a6.45,6.45,0,0,0-1.23-3.22,2.86,2.86,0,0,0-2.2-.92H78.14a.7.7,0,0,0-.52.19.83.83,0,0,0-.17.57v5.14h1.24a2,2,0,0,0,1.61-.71A3.46,3.46,0,0,0,81,38.32h.68V45H81a3.77,3.77,0,0,0-.67-2.38,2.18,2.18,0,0,0-1.71-.71H77.45v5.74a.57.57,0,0,0,.21.48,1.15,1.15,0,0,0,.7.16h2.23q3.63,0,4.19-4.65h.71L85.24,49H73.34V48.3h1a1.2,1.2,0,0,0,.81-.2.7.7,0,0,0,.24-.58V36.08a.71.71,0,0,0-.21-.57.94.94,0,0,0-.64-.19H73.34Z" transform="translate(-0.41 -1.52)"/><path class="cls-2" d="M87.66,34.59h7.46a5.1,5.1,0,0,1,3.36,1,3.36,3.36,0,0,1,.73,4.29,3.27,3.27,0,0,1-1.37,1.19A8.57,8.57,0,0,1,95,41.7a6.79,6.79,0,0,1,1.92.75,2.66,2.66,0,0,1,.84.95,10.42,10.42,0,0,1,.74,2.36,5.24,5.24,0,0,0,.62,1.75.71.71,0,0,0,.55.36c.2,0,.39-.15.56-.44a3.83,3.83,0,0,0,.32-1.57h.66c-.12,2.22-.94,3.32-2.45,3.32a2.12,2.12,0,0,1-1.23-.36,2.22,2.22,0,0,1-.79-1.06A15.42,15.42,0,0,1,96.31,45a5.13,5.13,0,0,0-.46-1.84,2.2,2.2,0,0,0-1-.88,3.64,3.64,0,0,0-1.61-.33H92.06v5.67a.63.63,0,0,0,.19.51,1.21,1.21,0,0,0,.73.18h1.39V49H87.66V48.3h1.42a1,1,0,0,0,.68-.18.64.64,0,0,0,.22-.51V36.07a.68.68,0,0,0-.22-.56,1.08,1.08,0,0,0-.68-.19H87.66Zm4.4,6.64h1.71a4.72,4.72,0,0,0,2.69-.65,2.56,2.56,0,0,0,1-2.3,3.84,3.84,0,0,0-.37-1.81,2,2,0,0,0-1-.9,7.35,7.35,0,0,0-2.35-.25,3.53,3.53,0,0,0-1.42.17.59.59,0,0,0-.28.55Z" transform="translate(-0.41 -1.52)"/><path class="cls-2" d="M103,34.59h7.46a6.19,6.19,0,0,1,2.82.59,6.08,6.08,0,0,1,2.46,2.47,8,8,0,0,1,1,4.09,9.6,9.6,0,0,1-.61,3.52,5.49,5.49,0,0,1-1.41,2.1,6.11,6.11,0,0,1-2.32,1.34,9.1,9.1,0,0,1-2.73.34H103V48.3h1.37a1.14,1.14,0,0,0,.71-.16.62.62,0,0,0,.2-.52V36a.64.64,0,0,0-.21-.49.9.9,0,0,0-.6-.18H103Zm5.23.73a1,1,0,0,0-.65.19.7.7,0,0,0-.21.56V47.59a.63.63,0,0,0,.25.53,1.44,1.44,0,0,0,.83.18h1.23a5,5,0,0,0,2.89-.85,3.48,3.48,0,0,0,1.23-1.59,10.31,10.31,0,0,0,.58-3.83q0-3.62-1.26-5.29a3.84,3.84,0,0,0-3.25-1.42Z" transform="translate(-0.41 -1.52)"/><path class="cls-2" d="M125.5,34.29h.65l5.18,13.21a1.23,1.23,0,0,0,1.28.8h.45V49H127.3V48.3h.46a3,3,0,0,0,1.27-.19.44.44,0,0,0,.25-.42.91.91,0,0,0-.07-.35L128,44.27h-5.71L121.64,46a3.35,3.35,0,0,0-.27,1.11,1,1,0,0,0,.45.82,2,2,0,0,0,1.29.34h.49V49h-5.23V48.3a2.16,2.16,0,0,0,1.32-.36,3.18,3.18,0,0,0,.9-1.4Zm-.28,2.78-2.6,6.44h5.1Z" transform="translate(-0.41 -1.52)"/><path class="cls-2" d="M134.46,34.59h3.44l8.71,11.35V37.73a2.58,2.58,0,0,0-.56-1.84,2.15,2.15,0,0,0-1.55-.57v-.73h5.06v.73a2.51,2.51,0,0,0-1.16.22,1.75,1.75,0,0,0-.66.78,2.73,2.73,0,0,0-.29,1.24V49h-.91l-9-11.82v8.72a2.34,2.34,0,0,0,.6,1.76,2.59,2.59,0,0,0,1.84.6V49h-5.5V48.3a2.28,2.28,0,0,0,1.64-.67,2.22,2.22,0,0,0,.6-1.57V36.28l-.17-.19a3.46,3.46,0,0,0-.69-.63,1.69,1.69,0,0,0-.73-.14h-.65Z" transform="translate(-0.41 -1.52)"/><path class="cls-1" d="M56.61,52.26a1.72,1.72,0,0,1,1.87-1.74,2.53,2.53,0,0,1,1,.21,2.91,2.91,0,0,0,0,.66h0a.9.9,0,0,0-1-.69,1.34,1.34,0,0,0-1.39,1.48,1.45,1.45,0,0,0,1.44,1.64.91.91,0,0,0,1-.74h0a2.47,2.47,0,0,0,0,.72,3.35,3.35,0,0,1-1.13.21A1.7,1.7,0,0,1,56.61,52.26Z" transform="translate(-0.41 -1.52)"/><path class="cls-1" d="M60.77,52.26a1.71,1.71,0,0,1,1.77-1.74,1.73,1.73,0,0,1,1.8,1.74A1.71,1.71,0,0,1,62.57,54,1.73,1.73,0,0,1,60.77,52.26Zm3.1.1a1.52,1.52,0,0,0-1.37-1.67,1.34,1.34,0,0,0-1.26,1.47,1.52,1.52,0,0,0,1.37,1.67A1.33,1.33,0,0,0,63.87,52.36Z" transform="translate(-0.41 -1.52)"/><path class="cls-1" d="M69,50.55v0c-.23,0-.36.13-.38.39s0,.7,0,1.32,0,1.17,0,1.72h0c-.78-.85-1.61-1.71-2.49-2.56v.73c0,.63,0,.94,0,1.36a.38.38,0,0,0,.38.41v0L66,54l-.53,0v0c.24,0,.36-.13.37-.41s0-.73,0-1.36,0-1.17,0-1.66h0c.84.88,1.67,1.73,2.5,2.56v-.81c0-.61,0-.9,0-1.29a.38.38,0,0,0-.38-.4v0l.53,0Z" transform="translate(-0.41 -1.52)"/><path class="cls-1" d="M73.23,50.42a4.62,4.62,0,0,0-.13.7h0c0-.2,0-.31-.23-.34s-.57,0-.9,0c0,.45,0,1,0,1.54s0,.83,0,1.29c0,.25.13.35.4.39v0l-.65,0-.64,0v0c.26,0,.38-.14.4-.4,0-.42,0-.8,0-1.28s0-1.08,0-1.54c-.32,0-.7,0-.89,0s-.28.16-.36.37h0a5.38,5.38,0,0,0,.16-.73h0c0,.11,0,.12.07.13l1.25,0c.34,0,1.19,0,1.36,0s.13,0,.15-.11Z" transform="translate(-0.41 -1.52)"/><path class="cls-1" d="M77.25,54v0a5.85,5.85,0,0,0-.62,0,5.71,5.71,0,0,0-.69,0v0c.3,0,.44-.14.33-.41s-.15-.39-.26-.64l-.65,0-.67,0c-.08.21-.16.43-.23.64s0,.38.29.41v0a4.81,4.81,0,0,0-.52,0,3.58,3.58,0,0,0-.49,0v0c.16,0,.3-.13.43-.42.35-.8,1-2.36,1.25-3h0c.49,1.11.77,1.71,1.38,3C76.93,53.81,77,53.91,77.25,54Zm-1.33-1.26-.61-1.35-.53,1.34a5.3,5.3,0,0,0,.57,0Z" transform="translate(-0.41 -1.52)"/><path class="cls-1" d="M80.66,53a1,1,0,0,1-1.1,1l-.68,0-.64,0v0c.23,0,.38-.13.39-.4s0-.76,0-1.29,0-.85,0-1.28c0-.28-.16-.36-.4-.4v0l.58,0,.6,0c.55,0,1,.24,1,.78a.83.83,0,0,1-.72.82C80.33,52.21,80.66,52.53,80.66,53Zm-1.32-2.31-.23,0c0,.62,0,1,0,1.37h.25a.68.68,0,0,0,.68-.73A.66.66,0,0,0,79.34,50.71Zm.87,2.39a.8.8,0,0,0-.85-.84h-.27c0,.63,0,.92,0,1.2s.21.35.43.35A.64.64,0,0,0,80.21,53.1Z" transform="translate(-0.41 -1.52)"/><path class="cls-1" d="M83.18,50.58c-.26.05-.38.15-.4.4,0,.46,0,.77,0,1.28s0,.83,0,1.28c0,.26.14.36.4.4v0l-.64,0-.65,0v0c.26,0,.38-.14.4-.4,0-.43,0-.79,0-1.28s0-.85,0-1.27c0-.26-.14-.36-.4-.41v0l.65,0,.64,0Z" transform="translate(-0.41 -1.52)"/><path class="cls-1" d="M86.56,53.28a4.09,4.09,0,0,0,0,.7c-.42,0-.71,0-1,0s-.86,0-1.14,0v0c.25,0,.38-.13.4-.41s0-.75,0-1.28,0-.86,0-1.28c0-.26-.14-.36-.4-.4v0l.65,0,.65,0v0c-.27.05-.39.14-.4.4,0,.45,0,.77,0,1.28s0,.9,0,1.16.26.35.62.35.54-.07.64-.5Z" transform="translate(-0.41 -1.52)"/><path class="cls-1" d="M89.15,50.58c-.26.05-.38.15-.4.4,0,.46,0,.77,0,1.28s0,.83,0,1.28c0,.26.14.36.4.4v0l-.64,0-.65,0v0c.26,0,.39-.14.4-.4,0-.43,0-.79,0-1.28s0-.85,0-1.27c0-.26-.14-.36-.4-.41v0l.65,0,.64,0Z" transform="translate(-0.41 -1.52)"/><path class="cls-1" d="M93.64,52.22A1.72,1.72,0,0,1,91.86,54l-.81,0a6.87,6.87,0,0,0-.69,0v0c.26,0,.38-.13.39-.4s0-.72,0-1.28,0-1,0-1.3-.14-.35-.39-.39v0l.57,0c.21,0,.5,0,.78,0A1.71,1.71,0,0,1,93.64,52.22Zm-.49.09a1.45,1.45,0,0,0-1.47-1.59l-.44,0c0,.66,0,1,0,1.54s0,.86,0,1.13.35.38.66.38A1.32,1.32,0,0,0,93.15,52.31Z" transform="translate(-0.41 -1.52)"/><path class="cls-1" d="M98,54v0a5.79,5.79,0,0,0-.61,0,6,6,0,0,0-.7,0v0c.3,0,.44-.14.33-.41s-.15-.39-.26-.64l-.65,0-.67,0c-.08.21-.16.43-.23.64s0,.38.29.41v0a4.81,4.81,0,0,0-.52,0,3.33,3.33,0,0,0-.48,0v0c.15,0,.3-.13.42-.42.35-.8,1-2.36,1.26-3h0c.49,1.11.77,1.71,1.38,3C97.63,53.81,97.73,53.91,98,54Zm-1.33-1.26L96,51.34l-.53,1.34a5.44,5.44,0,0,0,.57,0Z" transform="translate(-0.41 -1.52)"/><path class="cls-1" d="M102.22,52.22A1.73,1.73,0,0,1,100.43,54c-.21,0-.53,0-.8,0a6.87,6.87,0,0,0-.69,0v0c.26,0,.37-.13.39-.4s0-.72,0-1.28,0-1,0-1.3-.14-.35-.4-.39v0l.58,0c.21,0,.5,0,.78,0A1.71,1.71,0,0,1,102.22,52.22Zm-.49.09a1.45,1.45,0,0,0-1.47-1.59l-.44,0c0,.66,0,1,0,1.54s0,.86,0,1.13.35.38.66.38A1.33,1.33,0,0,0,101.73,52.31Z" transform="translate(-0.41 -1.52)"/><path class="cls-1" d="M105.51,53.27a4.09,4.09,0,0,0,0,.7c-.42,0-.71,0-1,0s-.86,0-1.15,0v0c.25,0,.39-.13.4-.41s0-.75,0-1.28,0-.85,0-1.27c0-.26-.14-.37-.39-.41v0c.29,0,.69,0,1.14,0s.74,0,1,0a4.69,4.69,0,0,0,0,.65h0c-.07-.38-.25-.46-.71-.46a5.16,5.16,0,0,0-.53,0c0,.63,0,.94,0,1.33h.54c.33,0,.39-.13.44-.34h0c0,.13,0,.28,0,.41a2.93,2.93,0,0,0,0,.41h0c-.06-.23-.11-.32-.44-.33h-.54c0,.52,0,.9,0,1.16s.26.35.63.35.54-.08.64-.51Z" transform="translate(-0.41 -1.52)"/><path class="cls-1" d="M110.84,53.27a2.73,2.73,0,0,0,0,.7c-.43,0-.72,0-1,0s-.87,0-1.15,0v0c.25,0,.38-.13.4-.41s0-.75,0-1.28,0-.85,0-1.27a.4.4,0,0,0-.4-.41v0c.29,0,.7,0,1.15,0s.73,0,1,0a3.52,3.52,0,0,0,0,.65h0c-.07-.38-.26-.46-.71-.46-.15,0-.33,0-.54,0,0,.63,0,.94,0,1.33h.54c.32,0,.39-.13.44-.34h0a2.83,2.83,0,0,0,0,.41,2.93,2.93,0,0,0,0,.41h0c-.06-.23-.11-.32-.44-.33h-.54c0,.52,0,.9,0,1.16s.26.35.62.35.55-.08.65-.51Z" transform="translate(-0.41 -1.52)"/><path class="cls-1" d="M117.27,54v0a6.13,6.13,0,0,0-.62,0,5.71,5.71,0,0,0-.69,0v0c.29,0,.43-.14.33-.41s-.16-.39-.27-.64l-.65,0-.66,0-.24.64c-.1.27,0,.38.29.41v0l-.51,0a3.38,3.38,0,0,0-.49,0v0c.15,0,.3-.13.42-.42.35-.8,1-2.36,1.26-3h0c.49,1.11.77,1.71,1.37,3C116.94,53.81,117,53.91,117.27,54Zm-1.34-1.26-.6-1.35c-.18.42-.36.88-.54,1.34a5.49,5.49,0,0,0,.58,0Z" transform="translate(-0.41 -1.52)"/><path class="cls-1" d="M118.26,53.73a3,3,0,0,0,0-.6h0a.8.8,0,0,0,.81.7.57.57,0,0,0,.64-.57c0-.82-1.4-1-1.4-1.93,0-.55.48-.81,1-.81a1.3,1.3,0,0,1,.66.17,2.25,2.25,0,0,0,0,.58h0a.61.61,0,0,0-.63-.57c-.38,0-.56.22-.56.48,0,.74,1.41.93,1.41,1.9a1,1,0,0,1-1.08.93A1.36,1.36,0,0,1,118.26,53.73Z" transform="translate(-0.41 -1.52)"/><path class="cls-1" d="M121.47,53.73a3,3,0,0,0,0-.6h0a.8.8,0,0,0,.81.7.57.57,0,0,0,.64-.57c0-.82-1.4-1-1.4-1.93,0-.55.48-.81,1-.81a1.29,1.29,0,0,1,.65.17,2.25,2.25,0,0,0,0,.58h0a.61.61,0,0,0-.63-.57c-.38,0-.55.22-.55.48,0,.74,1.4.93,1.4,1.9a1,1,0,0,1-1.08.93A1.36,1.36,0,0,1,121.47,53.73Z" transform="translate(-0.41 -1.52)"/><path class="cls-1" d="M126.88,53.27a2.73,2.73,0,0,0,0,.7c-.43,0-.72,0-1,0s-.87,0-1.15,0v0c.25,0,.38-.13.4-.41s0-.75,0-1.28,0-.85,0-1.27a.4.4,0,0,0-.4-.41v0c.29,0,.7,0,1.15,0s.73,0,1,0a3.52,3.52,0,0,0,0,.65h0c-.07-.38-.26-.46-.71-.46-.15,0-.33,0-.54,0,0,.63,0,.94,0,1.33h.54c.32,0,.39-.13.44-.34h0a2.83,2.83,0,0,0,0,.41,2.93,2.93,0,0,0,0,.41h0c-.06-.23-.11-.32-.44-.33h-.54c0,.52,0,.9,0,1.16s.26.35.62.35.55-.08.65-.51Z" transform="translate(-0.41 -1.52)"/><path class="cls-1" d="M128.24,53.73a3,3,0,0,0,0-.6h0a.8.8,0,0,0,.81.7.57.57,0,0,0,.64-.57c0-.82-1.4-1-1.4-1.93,0-.55.48-.81,1-.81a1.3,1.3,0,0,1,.66.17,2.25,2.25,0,0,0,0,.58h0a.61.61,0,0,0-.63-.57c-.38,0-.55.22-.55.48,0,.74,1.4.93,1.4,1.9a1,1,0,0,1-1.08.93A1.36,1.36,0,0,1,128.24,53.73Z" transform="translate(-0.41 -1.52)"/><path class="cls-1" d="M131.45,53.73a3,3,0,0,0,0-.6h0a.8.8,0,0,0,.81.7.57.57,0,0,0,.64-.57c0-.82-1.4-1-1.4-1.93,0-.55.48-.81,1-.81a1.29,1.29,0,0,1,.65.17,2.25,2.25,0,0,0,0,.58h0a.61.61,0,0,0-.63-.57c-.38,0-.55.22-.55.48,0,.74,1.41.93,1.41,1.9a1,1,0,0,1-1.09.93A1.36,1.36,0,0,1,131.45,53.73Z" transform="translate(-0.41 -1.52)"/><path class="cls-1" d="M134.69,52.26a1.71,1.71,0,0,1,1.77-1.74,1.74,1.74,0,0,1,1.81,1.74,1.79,1.79,0,0,1-3.58,0Zm3.1.1a1.52,1.52,0,0,0-1.37-1.67,1.34,1.34,0,0,0-1.26,1.47,1.52,1.52,0,0,0,1.37,1.67A1.33,1.33,0,0,0,137.79,52.36Z" transform="translate(-0.41 -1.52)"/><path class="cls-1" d="M142.64,53.94v0c-1.33,0-1.12-.31-1.89-1.45h-.16l-.34,0c0,.38,0,.66,0,1s.14.35.4.4v0L140,54l-.65,0v0c.26,0,.39-.14.4-.4,0-.43,0-.8,0-1.29,0-.32,0-.93,0-1.31s-.15-.33-.4-.37v0l.6,0,.61,0c.73,0,1.12.4,1.12.93a1,1,0,0,1-.52.89C141.82,53.42,142.11,53.93,142.64,53.94Zm-1.37-2.37a.73.73,0,0,0-.73-.83l-.27,0c0,.69,0,1,0,1.5v.09a1.17,1.17,0,0,0,.29,0A.72.72,0,0,0,141.27,51.57Z" transform="translate(-0.41 -1.52)"/><path class="cls-1" d="M144.84,50.58c-.26.05-.39.15-.4.4,0,.46,0,.77,0,1.28s0,.83,0,1.28c0,.26.14.36.4.4v0l-.65,0-.64,0v0c.25,0,.38-.14.4-.4,0-.43,0-.79,0-1.28s0-.85,0-1.27c0-.26-.15-.36-.4-.41v0l.64,0,.65,0Z" transform="translate(-0.41 -1.52)"/><path class="cls-1" d="M149.32,54v0a5.79,5.79,0,0,0-.61,0,6,6,0,0,0-.7,0v0c.3,0,.44-.14.34-.41s-.16-.39-.27-.64l-.65,0-.66,0-.24.64c-.11.27,0,.38.29.41v0l-.51,0a3.38,3.38,0,0,0-.49,0v0c.15,0,.3-.13.42-.42.35-.8,1-2.36,1.26-3h0c.49,1.11.77,1.71,1.37,3C149,53.81,149.1,53.91,149.32,54ZM148,52.69l-.61-1.35-.53,1.34a5.49,5.49,0,0,0,.58,0Z" transform="translate(-0.41 -1.52)"/></svg>