<svg xmlns="http://www.w3.org/2000/svg" xmlns:xlink="http://www.w3.org/1999/xlink" width="250" zoomAndPan="magnify" viewBox="0 0 187.5 50.999998" height="68" preserveAspectRatio="xMidYMid meet" version="1.0"><defs><g/></defs><g fill="#000000" fill-opacity="1"><g transform="translate(2.235076, 42.263491)"><g><path d="M 27.203125 -32.8125 C 26.984375 -29.90625 26.875 -27.3125 26.875 -25.03125 C 26.875 -23.601562 26.921875 -22.488281 27.015625 -21.6875 L 25.953125 -21.6875 C 25.210938 -25.269531 24.078125 -27.84375 22.546875 -29.40625 C 21.015625 -30.96875 19.304688 -31.75 17.421875 -31.75 L 16.828125 -31.75 C 15.992188 -31.75 15.378906 -31.675781 14.984375 -31.53125 C 14.597656 -31.394531 14.335938 -31.132812 14.203125 -30.75 C 14.066406 -30.363281 14 -29.722656 14 -28.828125 L 14 -16.96875 L 14.453125 -16.96875 C 16.066406 -16.96875 17.441406 -17.597656 18.578125 -18.859375 C 19.722656 -20.128906 20.453125 -21.535156 20.765625 -23.078125 L 21.828125 -23.078125 C 21.734375 -21.773438 21.6875 -20.320312 21.6875 -18.71875 L 21.6875 -16.5 C 21.6875 -14.925781 21.78125 -12.734375 21.96875 -9.921875 L 20.90625 -9.921875 C 20.625 -11.679688 19.90625 -13.140625 18.75 -14.296875 C 17.59375 -15.453125 16.160156 -16.03125 14.453125 -16.03125 L 14 -16.03125 L 14 -5.375 C 14 -4.070312 14.128906 -3.128906 14.390625 -2.546875 C 14.648438 -1.960938 15.128906 -1.566406 15.828125 -1.359375 C 16.523438 -1.160156 17.628906 -1.0625 19.140625 -1.0625 L 19.140625 0 C 14.972656 -0.09375 11.789062 -0.140625 9.59375 -0.140625 C 8.144531 -0.140625 6.117188 -0.109375 3.515625 -0.046875 L 1.296875 0 L 1.296875 -0.921875 C 2.285156 -0.984375 3.003906 -1.109375 3.453125 -1.296875 C 3.898438 -1.484375 4.203125 -1.835938 4.359375 -2.359375 C 4.515625 -2.890625 4.59375 -3.738281 4.59375 -4.90625 L 4.59375 -27.90625 C 4.59375 -29.070312 4.503906 -29.914062 4.328125 -30.4375 C 4.160156 -30.96875 3.859375 -31.328125 3.421875 -31.515625 C 2.992188 -31.703125 2.285156 -31.828125 1.296875 -31.890625 L 1.296875 -32.8125 C 4.878906 -32.71875 10.285156 -32.671875 17.515625 -32.671875 C 22.054688 -32.671875 25.285156 -32.71875 27.203125 -32.8125 Z M 27.203125 -32.8125 "/></g></g></g><g fill="#000000" fill-opacity="1"><g transform="translate(30.410539, 42.263491)"><g><path d="M 19.1875 -33.453125 C 22.675781 -33.453125 25.734375 -32.785156 28.359375 -31.453125 C 30.984375 -30.128906 33.019531 -28.207031 34.46875 -25.6875 C 35.925781 -23.175781 36.65625 -20.175781 36.65625 -16.6875 C 36.65625 -13.289062 35.910156 -10.273438 34.421875 -7.640625 C 32.941406 -5.015625 30.875 -2.972656 28.21875 -1.515625 C 25.5625 -0.0664062 22.535156 0.65625 19.140625 0.65625 C 15.648438 0.65625 12.59375 -0.0078125 9.96875 -1.34375 C 7.34375 -2.675781 5.300781 -4.597656 3.84375 -7.109375 C 2.394531 -9.628906 1.671875 -12.632812 1.671875 -16.125 C 1.671875 -19.519531 2.410156 -22.53125 3.890625 -25.15625 C 5.378906 -27.789062 7.453125 -29.832031 10.109375 -31.28125 C 12.765625 -32.726562 15.789062 -33.453125 19.1875 -33.453125 Z M 19 -32.625 C 17.488281 -32.625 16.148438 -31.9375 14.984375 -30.5625 C 13.828125 -29.1875 12.941406 -27.265625 12.328125 -24.796875 C 11.710938 -22.328125 11.40625 -19.5 11.40625 -16.3125 C 11.40625 -13.101562 11.757812 -10.273438 12.46875 -7.828125 C 13.175781 -5.390625 14.128906 -3.503906 15.328125 -2.171875 C 16.535156 -0.847656 17.867188 -0.1875 19.328125 -0.1875 C 20.835938 -0.1875 22.171875 -0.875 23.328125 -2.25 C 24.492188 -3.625 25.382812 -5.546875 26 -8.015625 C 26.613281 -10.484375 26.921875 -13.3125 26.921875 -16.5 C 26.921875 -19.707031 26.566406 -22.53125 25.859375 -24.96875 C 25.148438 -27.414062 24.191406 -29.300781 22.984375 -30.625 C 21.773438 -31.957031 20.445312 -32.625 19 -32.625 Z M 19 -32.625 "/></g></g></g><g fill="#000000" fill-opacity="1"><g transform="translate(68.734727, 42.263491)"><g><path d="M 19.1875 -33.453125 C 21.039062 -33.453125 22.613281 -33.191406 23.90625 -32.671875 C 25.207031 -32.148438 26.476562 -31.410156 27.71875 -30.453125 C 28.019531 -30.171875 28.3125 -30.03125 28.59375 -30.03125 C 29.207031 -30.03125 29.609375 -30.957031 29.796875 -32.8125 L 30.859375 -32.8125 C 30.734375 -30.613281 30.671875 -26.75 30.671875 -21.21875 L 29.609375 -21.21875 C 29.398438 -23.695312 29 -25.644531 28.40625 -27.0625 C 27.820312 -28.488281 26.800781 -29.679688 25.34375 -30.640625 C 23.894531 -31.566406 22.460938 -32.03125 21.046875 -32.03125 C 17.828125 -32.03125 15.566406 -30.484375 14.265625 -27.390625 C 12.972656 -24.296875 12.328125 -20.601562 12.328125 -16.3125 C 12.328125 -12.019531 12.972656 -8.328125 14.265625 -5.234375 C 15.566406 -2.148438 17.828125 -0.609375 21.046875 -0.609375 C 22.460938 -0.609375 23.894531 -1.070312 25.34375 -2 C 26.800781 -2.894531 27.820312 -4.097656 28.40625 -5.609375 C 29 -7.117188 29.398438 -9.265625 29.609375 -12.046875 L 30.671875 -12.046875 C 30.671875 -6.273438 30.734375 -2.257812 30.859375 0 L 29.796875 0 C 29.703125 -0.988281 29.570312 -1.691406 29.40625 -2.109375 C 29.238281 -2.523438 29 -2.734375 28.6875 -2.734375 C 28.4375 -2.734375 28.113281 -2.609375 27.71875 -2.359375 C 26.320312 -1.367188 24.988281 -0.617188 23.71875 -0.109375 C 22.457031 0.398438 20.929688 0.65625 19.140625 0.65625 C 15.648438 0.65625 12.59375 -0.0078125 9.96875 -1.34375 C 7.34375 -2.675781 5.300781 -4.597656 3.84375 -7.109375 C 2.394531 -9.628906 1.671875 -12.632812 1.671875 -16.125 C 1.671875 -19.519531 2.410156 -22.53125 3.890625 -25.15625 C 5.378906 -27.789062 7.453125 -29.832031 10.109375 -31.28125 C 12.765625 -32.726562 15.789062 -33.453125 19.1875 -33.453125 Z M 19.1875 -33.453125 "/></g></g></g><g fill="#000000" fill-opacity="1"><g transform="translate(101.961383, 42.263491)"><g><path d="M 19.1875 -33.453125 C 22.675781 -33.453125 25.734375 -32.785156 28.359375 -31.453125 C 30.984375 -30.128906 33.019531 -28.207031 34.46875 -25.6875 C 35.925781 -23.175781 36.65625 -20.175781 36.65625 -16.6875 C 36.65625 -13.289062 35.910156 -10.273438 34.421875 -7.640625 C 32.941406 -5.015625 30.875 -2.972656 28.21875 -1.515625 C 25.5625 -0.0664062 22.535156 0.65625 19.140625 0.65625 C 15.648438 0.65625 12.59375 -0.0078125 9.96875 -1.34375 C 7.34375 -2.675781 5.300781 -4.597656 3.84375 -7.109375 C 2.394531 -9.628906 1.671875 -12.632812 1.671875 -16.125 C 1.671875 -19.519531 2.410156 -22.53125 3.890625 -25.15625 C 5.378906 -27.789062 7.453125 -29.832031 10.109375 -31.28125 C 12.765625 -32.726562 15.789062 -33.453125 19.1875 -33.453125 Z M 19 -32.625 C 17.488281 -32.625 16.148438 -31.9375 14.984375 -30.5625 C 13.828125 -29.1875 12.941406 -27.265625 12.328125 -24.796875 C 11.710938 -22.328125 11.40625 -19.5 11.40625 -16.3125 C 11.40625 -13.101562 11.757812 -10.273438 12.46875 -7.828125 C 13.175781 -5.390625 14.128906 -3.503906 15.328125 -2.171875 C 16.535156 -0.847656 17.867188 -0.1875 19.328125 -0.1875 C 20.835938 -0.1875 22.171875 -0.875 23.328125 -2.25 C 24.492188 -3.625 25.382812 -5.546875 26 -8.015625 C 26.613281 -10.484375 26.921875 -13.3125 26.921875 -16.5 C 26.921875 -19.707031 26.566406 -22.53125 25.859375 -24.96875 C 25.148438 -27.414062 24.191406 -29.300781 22.984375 -30.625 C 21.773438 -31.957031 20.445312 -32.625 19 -32.625 Z M 19 -32.625 "/></g></g></g><g fill="#ea7f15" fill-opacity="1"><g transform="translate(139.893644, 40.989386)"><g><path d="M 5.046875 -30.96875 L 8.3125 -30.96875 L 8.3125 0 L 5.046875 0 Z M 5.046875 -30.96875 "/></g></g></g><g fill="#ea7f15" fill-opacity="1"><g transform="translate(153.250651, 40.989386)"><g><path d="M 11.0625 -28.140625 L 0.171875 -28.140625 L 0.171875 -30.96875 L 25.21875 -30.96875 L 25.21875 -28.140625 L 14.328125 -28.140625 L 14.328125 0 L 11.0625 0 Z M 11.0625 -28.140625 "/></g></g></g></svg>