<svg id="Camada_1" data-name="Camada 1" xmlns="http://www.w3.org/2000/svg" viewBox="0 0 988.89 139.25"><defs><style>.cls-1,.cls-6{fill:#ffd70f;}.cls-2{fill:#1a346f;}.cls-3,.cls-4{fill:none;stroke:lime;}.cls-3,.cls-4,.cls-6{stroke-miterlimit:10;}.cls-4{stroke-width:1.15px;}.cls-5{fill:#f2da00;}.cls-6{stroke:#1a346f;stroke-width:3px;}</style></defs><rect class="cls-1" x="134.85" y="56.37" width="105.5" height="26.74" rx="3.92"/><rect class="cls-2" x="134.85" y="1.24" width="105.5" height="26.74" rx="3.92"/><rect class="cls-2" x="134.85" y="112.51" width="105.5" height="26.74" rx="3.92"/><path class="cls-2" d="M293.49,81H271.13a3.93,3.93,0,0,0-3.92,3.92v5.82a3.87,3.87,0,0,0,.84,2.42l62.88,80a3.93,3.93,0,0,0,3.08,1.5h5.24a3.91,3.91,0,0,0,3.13-1.57l26.29-34.93a3.92,3.92,0,0,1,7.05,2.32l.83,75.67a3.93,3.93,0,0,0,3.93,3.88h20a3.92,3.92,0,0,0,3.92-3.92V84.91A3.92,3.92,0,0,0,400.52,81H378.57a3.92,3.92,0,0,0-3.15,1.59L340.37,129.9a3.92,3.92,0,0,1-6.23.1L296.57,82.48A3.94,3.94,0,0,0,293.49,81Z" transform="translate(-5.11 -80.75)"/><rect class="cls-1" x="428.23" y="0.24" width="28.12" height="47.93" rx="3.92"/><path class="cls-2" d="M433.34,215.69V160.36a3.91,3.91,0,0,1,1.26-2.87L515.92,82A3.93,3.93,0,0,1,518.59,81h22a3.92,3.92,0,0,1,3.63,2.42l1.39,3.35a3.91,3.91,0,0,1-.64,4l-39.06,45.78a3.92,3.92,0,0,0-.22,4.8l47.9,68.16a4,4,0,0,1,.71,2.26v3.82a3.92,3.92,0,0,1-3.92,3.93H528.21a3.93,3.93,0,0,1-3.23-1.7L483,157a3.92,3.92,0,0,0-6.15-.4l-14.42,16a3.89,3.89,0,0,0-1,2.62V216a3.93,3.93,0,0,1-4,3.93l-20.28-.32A3.93,3.93,0,0,1,433.34,215.69Z" transform="translate(-5.11 -80.75)"/><path class="cls-2" d="M83.88,81.09,9.05,80.75a3.93,3.93,0,0,0-3.94,3.93v18.9A3.92,3.92,0,0,0,9,107.5H77.12a3.89,3.89,0,0,1,2.36.8c3.81,2.85,15,13.18,0,26.94a3.92,3.92,0,0,1-2.64,1H9a3.93,3.93,0,0,0-3.93,3.93v20a3.92,3.92,0,0,0,4,3.92l71.59-.72a3.85,3.85,0,0,1,2.31.73c4.42,3.15,19.77,15.85-.15,27.9a4,4,0,0,1-2,.57L9,193.41a3.92,3.92,0,0,0-3.88,3.92V216A3.93,3.93,0,0,0,9,219.89H85a3.39,3.39,0,0,0,.55,0c3.33-.48,19.84-3.44,29.48-18.76,2.11-3.37,8.49-14.63,5.42-29.15a39.56,39.56,0,0,0-13.1-21.75,3.88,3.88,0,0,1-.51-5.39,34.4,34.4,0,0,0,7.41-16.5,32.38,32.38,0,0,0,.24-7.38v-.28a40.55,40.55,0,0,0-29.61-39.4Z" transform="translate(-5.11 -80.75)"/><path class="cls-2" d="M194.16,166.54" transform="translate(-5.11 -80.75)"/><path class="cls-2" d="M179,295" transform="translate(-5.11 -80.75)"/><path d="M211,318" transform="translate(-5.11 -80.75)"/><path class="cls-3" d="M402,320" transform="translate(-5.11 -80.75)"/><path class="cls-1" d="M267.11,175.62v39.13a4.73,4.73,0,0,0,4.73,4.73h20a4.74,4.74,0,0,0,4.73-4.77l-.36-39.14a4.72,4.72,0,0,0-4.73-4.68H271.84A4.73,4.73,0,0,0,267.11,175.62Z" transform="translate(-5.11 -80.75)"/><path class="cls-4" d="M450.5,666.5" transform="translate(-5.11 -80.75)"/><path class="cls-5" d="M260,315" transform="translate(-5.11 -80.75)"/><path class="cls-1" d="M739.05,177v35.16a6.36,6.36,0,0,0,6.36,6.35h16.3a6.35,6.35,0,0,0,6.35-6.41L767.74,177a6.35,6.35,0,0,0-6.35-6.29h-16A6.35,6.35,0,0,0,739.05,177Z" transform="translate(-5.11 -80.75)"/><path class="cls-2" d="M831.09,82.66h19.7a5.13,5.13,0,0,1,5.13,5.13v125.9a5.13,5.13,0,0,1-5.13,5.13H833.57a5.15,5.15,0,0,1-4.1-2l-59.2-78.64a5.12,5.12,0,0,0-4.1-2H743.86a5.13,5.13,0,0,1-5.13-5.13V87.79a5.13,5.13,0,0,1,5.13-5.13H765a5.14,5.14,0,0,1,4.16,2.13l47.94,66.42a5.13,5.13,0,0,0,9.29-3L826,87.83A5.14,5.14,0,0,1,831.09,82.66Z" transform="translate(-5.11 -80.75)"/><rect class="cls-1" x="884.97" y="56.75" width="103.92" height="26.33" rx="3.86"/><rect class="cls-2" x="884.97" y="1.46" width="103.92" height="26.33" rx="3.86"/><rect class="cls-2" x="884.97" y="112.04" width="103.92" height="26.33" rx="3.86"/><path class="cls-1" d="M643.8,214.06a5.06,5.06,0,0,1-5.59,5c-34.13-3.47-60.92-31.62-62.26-65-1.43-35.48,26.27-67,62.58-70.58a5,5,0,0,1,5.55,5v12.85a5,5,0,0,1-4.31,5c-23.93,3.27-41.44,24.54-39.91,47.44,1.38,20.7,18,38.31,39.59,41.31a5,5,0,0,1,4.35,5Z" transform="translate(-5.11 -80.75)"/><path class="cls-2" d="M652.34,89.47a5.89,5.89,0,0,1,6.54-5.83c36.53,4.34,63.75,36.57,61.63,71.83-2,32.45-28.31,59.8-61.93,63.53a5.9,5.9,0,0,1-6.52-5.84l-.07-12a5.87,5.87,0,0,1,5.09-5.88c21.55-2.78,38.37-19.94,40.21-40.22,2.08-23-15.51-45-40-48.5a5.88,5.88,0,0,1-5-5.87Z" transform="translate(-5.11 -80.75)"/><path class="cls-6" d="M562.65,138.8l-25.15.36a3,3,0,0,0-3,3.08l.18,12.85a3,3,0,0,0,3.11,3l25.14-.59a3,3,0,0,0,3-3.08l-.18-12.62A3.05,3.05,0,0,0,562.65,138.8Z" transform="translate(-5.11 -80.75)"/></svg>