<?xml version="1.0" encoding="UTF-8"?>
<svg id="Camada_1" data-name="Camada 1" xmlns="http://www.w3.org/2000/svg" viewBox="0 0 955.46 242.25">
  <defs>
    <style>
      .cls-1 {
        fill: #ffc220;
      }

      .cls-1, .cls-2 {
        stroke-width: 0px;
      }

      .cls-2 {
        fill: #fff;
      }
    </style>
  </defs>
  <rect class="cls-1" x="234.59" y="98.07" width="183.55" height="46.51" rx="6.83" ry="6.83"/>
  <rect class="cls-2" x="234.59" y=".41" width="183.55" height="46.51" rx="6.83" ry="6.83"/>
  <rect class="cls-2" x="234.59" y="195.73" width="183.55" height="46.51" rx="6.83" ry="6.83"/>
  <path class="cls-1" d="M455.96,164.54v70.88c0,3.77,3.06,6.83,6.83,6.83h37.63c3.79,0,6.86-3.09,6.83-6.89l-.65-70.88c-.03-3.75-3.08-6.76-6.83-6.76h-36.98c-3.77,0-6.83,3.06-6.83,6.83Z"/>
  <path class="cls-2" d="M501.68.41h-38.89c-3.77,0-6.83,3.06-6.83,6.83v10.11c0,1.53.51,3.02,1.46,4.22l109.4,139.13c1.29,1.65,3.27,2.61,5.37,2.61h9.1c2.14,0,4.16-1.01,5.45-2.72l45.72-60.77c3.92-5.21,12.21-2.49,12.28,4.03l1.44,131.65c.04,3.74,3.08,6.75,6.83,6.75h34.87c3.77,0,6.83-3.06,6.83-6.83V7.24c0-3.77-3.06-6.83-6.83-6.83h-38.18c-2.16,0-4.2,1.03-5.49,2.76l-60.97,82.33c-2.68,3.61-8.05,3.7-10.84.17L507.04,3.01c-1.29-1.64-3.27-2.59-5.35-2.59Z"/>
  <rect class="cls-1" x="744.99" y=".41" width="48.93" height="83.38" rx="6.83" ry="6.83"/>
  <path class="cls-2" d="M744.99,234.76v-96.26c0-1.9.79-3.71,2.18-5L888.64,2.24c1.26-1.17,2.92-1.82,4.64-1.82h38.32c2.76,0,5.24,1.66,6.3,4.2l2.43,5.83c.99,2.37.56,5.1-1.11,7.06l-67.96,79.64c-2.02,2.37-2.18,5.81-.39,8.36l83.34,118.58c.81,1.15,1.24,2.52,1.24,3.92v6.65c0,3.77-3.06,6.83-6.83,6.83h-38.61c-2.25,0-4.35-1.1-5.62-2.95l-72.96-105.91c-2.5-3.63-7.75-3.97-10.7-.69l-25.08,27.9c-1.13,1.25-1.75,2.88-1.75,4.56v70.93c0,3.81-3.12,6.88-6.93,6.82l-35.28-.56c-3.73-.06-6.72-3.1-6.72-6.82Z"/>
  <path class="cls-2" d="M137.03.59C93.64.39,50.25.2,6.86,0,3.07-.02,0,3.04,0,6.83v32.89c0,3.77,3.06,6.83,6.83,6.83h118.44c1.49,0,2.92.49,4.11,1.38,6.63,4.97,26.12,22.94.03,46.88-1.25,1.15-2.9,1.78-4.6,1.78H6.83C3.06,96.57,0,99.63,0,103.4v34.77C0,141.97,3.1,145.04,6.89,145c0,0,108.01-1.09,124.55-1.26,1.44-.01,2.84.43,4.02,1.27,7.69,5.49,34.39,27.58-.25,48.54-1.04.63-2.23.98-3.46.99-13.58.16-100.05,1.15-125.01,1.44C3.01,196.03,0,199.07,0,202.81v32.42C0,239,3.06,242.06,6.83,242.06h132.22c.33,0,.65-.02.97-.07,5.79-.84,34.5-5.98,51.27-32.65,3.68-5.85,14.77-25.44,9.43-50.71-4.07-19.26-15.54-31.63-22.79-37.83-2.78-2.37-3.18-6.54-.89-9.38,5.05-6.26,11.02-15.95,12.9-28.71.7-4.74.71-9.08.41-12.84l-.02-.48c.05-6.13-.62-25.43-14.63-43.64-13.19-17.15-30.31-23.07-36.87-24.92l-1.8-.25Z"/>
</svg>