<svg id="Camada_1" data-name="Camada 1" xmlns="http://www.w3.org/2000/svg" viewBox="0 0 127.26 48.24"><defs><style>.cls-1{fill:#c0d810;}.cls-2{fill:none;stroke:#00af9e;stroke-width:2.51px;}.cls-2,.cls-5{stroke-miterlimit:10;}.cls-3,.cls-4,.cls-6,.cls-7,.cls-8{fill:#003c46;}.cls-4{opacity:0.8;}.cls-5{fill:#0ff2d6;stroke:#000;stroke-width:0.1px;}.cls-6{opacity:0.7;}.cls-7{opacity:0.5;}.cls-8{font-size:7.73px;font-family:MS-UIGothic, MS UI Gothic;}</style></defs><polygon class="cls-1" points="4.87 18.03 12.81 18.03 12.81 37.91 4.87 29.38 4.87 18.03"/><rect class="cls-1" x="14.71" y="12.5" width="8.04" height="15.57"/><rect class="cls-1" x="24.86" y="8.09" width="7.93" height="19.99"/><path class="cls-2" d="M6.24,1.67H35.19a3.25,3.25,0,0,1,3.24,3.27l-.15,21.47a3.24,3.24,0,0,1-3.21,3.21l-28.8.25A3.24,3.24,0,0,1,3,26.63V4.91A3.24,3.24,0,0,1,6.24,1.67Z" transform="translate(-1.74 -0.42)"/><path class="cls-3" d="M52,4.73a11.51,11.51,0,0,0-9.34,11.75,11.46,11.46,0,0,0,8.84,10.25H64.72V22.81H52.27a7.29,7.29,0,0,1-5.73-7.73A7.28,7.28,0,0,1,53,8.65H64.72V4.73Z" transform="translate(-1.74 -0.42)"/><path class="cls-4" d="M87.32,4.83H70a6.52,6.52,0,0,0-4.82,4.62V21.91a6.33,6.33,0,0,0,.91,2.21,6.61,6.61,0,0,0,3.71,2.61H87.22V22.81H70.55a2.31,2.31,0,0,1-1.31-1.31,3.54,3.54,0,0,1-.1-1.1c0-.84,0-1.48,0-1.61,0-.53,0-1.28,0-2.21H83.3V12.77H69.14v-1a7.14,7.14,0,0,1,.1-1.71,2.56,2.56,0,0,1,1.2-1.4H87.32Z" transform="translate(-1.74 -0.42)"/><path class="cls-5" d="M67.83,6.74" transform="translate(-1.74 -0.42)"/><path class="cls-6" d="M95.35,4.73A11.51,11.51,0,0,0,86,16.48a11.46,11.46,0,0,0,8.84,10.25h13.26V22.81H95.65a7.29,7.29,0,0,1-5.72-7.73,7.27,7.27,0,0,1,6.43-6.43h11.75V4.73Z" transform="translate(-1.74 -0.42)"/><path class="cls-7" d="M116.24,4.73a11.51,11.51,0,0,0-9.34,11.75,11.46,11.46,0,0,0,8.84,10.25H129V22.81H116.55a7.29,7.29,0,0,1-5.73-7.73,7.28,7.28,0,0,1,6.43-6.43H129V4.73Z" transform="translate(-1.74 -0.42)"/><text class="cls-8" transform="translate(13.74 37.9) scale(0.64 1)">Centro Especializado em Contabilidade e Controladoria<tspan x="41.15" y="9.28">para Cooperativas de Crédito</tspan></text></svg>