<svg id="Camada_1" data-name="Camada 1" xmlns="http://www.w3.org/2000/svg" viewBox="0 0 97 19.27"><defs><style>.cls-1{fill:#1a346f;}.cls-2{fill:#ffd70f;}</style></defs><path class="cls-1" d="M92.24,14.41a7.48,7.48,0,0,1-5.3-2.19l-2.16-2.17a4.42,4.42,0,0,0-6.12,0l-2.17,2.17a7.69,7.69,0,0,1-10.59,0l-2.17-2.17a4.42,4.42,0,0,0-6.12,0l-2.16,2.17a7.7,7.7,0,0,1-10.6,0l-2.16-2.17a4.42,4.42,0,0,0-6.12,0L34.4,12.22a7.69,7.69,0,0,1-10.59,0A1.58,1.58,0,1,1,26,10a4.44,4.44,0,0,0,6.12,0l2.17-2.16a7.65,7.65,0,0,1,10.59,0L47.09,10a4.44,4.44,0,0,0,6.12,0l2.17-2.16A7.65,7.65,0,0,1,66,7.82L68.13,10a4.45,4.45,0,0,0,6.13,0l2.16-2.16A7.65,7.65,0,0,1,87,7.82L89.18,10a4.44,4.44,0,0,0,6.12,0,1.58,1.58,0,0,1,2.24,0,1.6,1.6,0,0,1,0,2.24A7.48,7.48,0,0,1,92.24,14.41Z" transform="translate(-1 -5.69)"/><path class="cls-2" d="M69.9,25a7.46,7.46,0,0,1-5.3-2.19L62.43,20.6a4.44,4.44,0,0,0-6.12,0l-2.16,2.17a7.69,7.69,0,0,1-10.6,0L41.39,20.6a4.44,4.44,0,0,0-6.12,0L33.1,22.77a7.68,7.68,0,0,1-10.59,0L20.34,20.6a4.44,4.44,0,0,0-6.12,0l-2.16,2.17a7.69,7.69,0,0,1-10.6,0A1.58,1.58,0,1,1,3.7,20.53a4.42,4.42,0,0,0,6.12,0L12,18.37a7.67,7.67,0,0,1,10.59,0l2.16,2.16a4.43,4.43,0,0,0,6.13,0L33,18.37a7.67,7.67,0,0,1,10.59,0l2.17,2.16a4.42,4.42,0,0,0,6.12,0l2.17-2.16a7.67,7.67,0,0,1,10.59,0l2.17,2.16a4.42,4.42,0,0,0,6.12,0,1.58,1.58,0,0,1,2.23,2.24A7.44,7.44,0,0,1,69.9,25Z" transform="translate(-1 -5.69)"/></svg>